<?xml version="1.0" encoding="UTF-8"?>
<svg id="Layer_1" xmlns="http://www.w3.org/2000/svg" version="1.1" viewBox="0 0 500 500">
  <!-- Generator: Adobe Illustrator 29.8.1, SVG Export Plug-In . SVG Version: 2.1.1 Build 2)  -->
  <defs>
    <style>
      .st0 {
        fill: #fff;
      }

      .st1 {
        fill: #e31837;
      }

      .st2 {
        fill: #012169;
      }
    </style>
  </defs>
  <g>
    <path class="st0" d="M251,498.5c-66.3,0-128.7-25.8-175.6-72.7S2.7,316.6,2.7,250.2,28.6,121.6,75.5,74.7,184.7,2,251,2s128.7,25.8,175.6,72.7,72.7,109.2,72.7,175.6-25.8,128.7-72.7,175.6-109.2,72.7-175.6,72.7Z"/>
    <path d="M251,2.5c33.5,0,65.9,6.6,96.4,19.5,29.5,12.5,56,30.3,78.8,53.1,22.8,22.8,40.6,49.3,53.1,78.8,12.9,30.5,19.5,63,19.5,96.4s-6.6,65.9-19.5,96.4c-12.5,29.5-30.3,56-53.1,78.8-22.8,22.8-49.3,40.6-78.8,53.1-30.5,12.9-63,19.5-96.4,19.5s-65.9-6.6-96.4-19.5c-29.5-12.5-56-30.3-78.8-53.1-22.8-22.8-40.6-49.3-53.1-78.8-12.9-30.5-19.5-63-19.5-96.4s6.6-65.9,19.5-96.4c12.5-29.5,30.3-56,53.1-78.8,22.8-22.8,49.3-40.6,78.8-53.1,30.5-12.9,63-19.5,96.4-19.5M251,1.5C113.6,1.5,2.2,112.9,2.2,250.2s111.4,248.8,248.8,248.8,248.8-111.4,248.8-248.8S388.4,1.5,251,1.5h0Z"/>
  </g>
  <path class="st1" d="M251.6,381.1c73.7-63.1,177.1-124.5,234-146.6-8.8-5.6-22.4-13.7-37.9-22.4-73.3,24.2-158.9,77.9-235.4,138.6,13,9.8,26.7,20,39.3,30.5h0Z"/>
  <path class="st2" d="M217.9,209.5c-10.9-5.3-22.8-10.2-31.9-14.4-27.7,13.7-63.8,34.4-109.4,67,9.8,5.3,20.3,11.6,31.6,17.9,35.1-26,70.5-50.5,109.8-70.5Z"/>
  <path class="st1" d="M283.5,179.4c-13.3-7.4-59.6-24.6-91.6-31.9-9.5,3.5-22.8,8.8-31.9,12.6,11.6,3.2,54.7,14.7,91.6,33.3,9.5-4.6,22.8-10.2,31.9-14Z"/>
  <path class="st2" d="M126.7,174.8c-41,18.9-84.2,44.9-107.7,60,8.4,3.9,16.8,7,28.4,12.6,51.9-35.1,92.6-56.5,108.7-63.5-11.6-4.2-22.4-7-29.5-9.1h0Z"/>
  <path class="st1" d="M314.3,168.5c9.5-3.2,20.3-6,29.8-8.8-27.4-11.6-61.7-23.9-92.6-31.6-4.9,1.4-19.6,5.3-29.8,8.4,10.5,3.2,45.3,11.2,92.6,31.9ZM141.4,300.4c11.2,6.7,23.2,15.8,34.7,23.5,76.8-59.6,152.6-105.6,235.7-131.5-11.6-6-21.7-11.2-34.7-17.5-49.8,12.6-135,46.7-235.7,125.6Z"/>
</svg>