<?xml version="1.0" encoding="UTF-8"?>
<svg id="Layer_1" xmlns="http://www.w3.org/2000/svg" version="1.1" viewBox="0 0 500 500">
  <!-- Generator: Adobe Illustrator 29.8.1, SVG Export Plug-In . SVG Version: 2.1.1 Build 2)  -->
  <defs>
    <style>
      .st0 {
        fill: #fff5f1;
      }

      .st1 {
        fill: #dc2329;
      }

      .st2 {
        fill: #1670a9;
      }

      .st3 {
        fill: #fff;
      }

      .st4 {
        fill: #f5c6b5;
      }

      .st5 {
        fill: #7592b9;
      }
    </style>
  </defs>
  <g>
    <path class="st3" d="M251,498.5c-66.3,0-128.7-25.8-175.6-72.7S2.7,316.6,2.7,250.2,28.6,121.6,75.5,74.7,184.7,2,251,2s128.7,25.8,175.6,72.7,72.7,109.2,72.7,175.6-25.8,128.7-72.7,175.6-109.2,72.7-175.6,72.7Z"/>
    <path d="M251,2.5c33.5,0,65.9,6.6,96.4,19.5,29.5,12.5,56,30.3,78.8,53.1,22.8,22.8,40.6,49.3,53.1,78.8,12.9,30.5,19.5,63,19.5,96.4s-6.6,65.9-19.5,96.4c-12.5,29.5-30.3,56-53.1,78.8-22.8,22.8-49.3,40.6-78.8,53.1-30.5,12.9-63,19.5-96.4,19.5s-65.9-6.6-96.4-19.5c-29.5-12.5-56-30.3-78.8-53.1-22.8-22.8-40.6-49.3-53.1-78.8-12.9-30.5-19.5-63-19.5-96.4s6.6-65.9,19.5-96.4c12.5-29.5,30.3-56,53.1-78.8,22.8-22.8,49.3-40.6,78.8-53.1,30.5-12.9,63-19.5,96.4-19.5M251,1.5C113.6,1.5,2.2,112.9,2.2,250.2s111.4,248.8,248.8,248.8,248.8-111.4,248.8-248.8S388.4,1.5,251,1.5h0Z"/>
  </g>
  <path class="st3" d="M438.5,132.7c-40.5,9.6-79.3,24.1-116.9,41.9-16.5,7.8-31.8,13.7-39.1,32-13.7,34.2-.3,63.1,8.3,96.1,5.5,21,9.4,42.6,11.3,64.3.2,1.8-.2,3.5.5,5.3l.5-4.8,10.7-141.7c.6-1.7,16.6-7.4,19.2-9.4s-.3-4.1-1.8-5.5c-3.1-3-7.5-5.4-10.6-8.5l4.8-4.8c37.2-22.1,75.2-43.3,113-64.4"/>
  <path class="st3" d="M355.2,86.6l-93.1,77.4c-3.9,3-6.9,5.5-11.8,6.8-14.5,3.6-30-2.7-44.9-3.6s-11.2-.4-12.8.5c-7.6,4.3-7.5,30.8.6,34.9,3.5,1.8,8.6-.4,12.1,3.8,5.7,7-1.4,13.4-6.3,18-49.2,52.4-97.7,105.6-145.9,159-1,1.1-2.2,2.3-3.5,3.2h-.5"/>
  <path class="st1" d="M451.2,125.8c-48.3,10.5-97,23.3-142.7,42.2-24.6,10.2-55.7,22.5-63.5,50.5-16.9,59.9,33.2,115.7,52.4,168.7H51.5s-1.8-.5-1.8-.5c1.3-.9,2.4-2,3.5-3.2,48.2-53.4,96.7-106.6,145.9-159,4.9-4.6,12-11,6.3-18-3.5-4.2-8.5-2-12.1-3.8-8.1-4.1-8.2-30.6-.6-34.9s10.4-.6,12.8-.5c14.9.9,30.5,7.2,44.9,3.6s7.9-3.7,11.8-6.8l93.1-77.4"/>
  <path class="st1" d="M199.1,174.1c-6.7,1.9-5.7,22.1.4,22.1,4.4,0,5.3-9.8,5.1-13-.2-2.7-1.8-9.7-5.5-9.2Z"/>
  <polygon class="st4" points="297.4 387.1 297.4 387.7 49.2 387.7 49.2 386.6 49.7 386.6 51.5 387.2 297.4 387.1"/>
  <path class="st2" d="M438.5,133.2c-37.8,21.1-75.8,42.3-113,64.4l-4.8,4.8c3.2,3.1,7.5,5.5,10.6,8.5s4.2,3.6,1.8,5.5-18.7,7.7-19.2,9.4l-10.7,141.7-1.1-.5c-1.9-21.7-5.8-43.2-11.3-64.3-8.7-33-22-61.9-8.3-96.1,7.3-18.3,22.6-24.1,39.1-32,37.6-17.9,76.4-32.4,116.9-41.9"/>
  <path class="st5" d="M303.2,367.5l-.5,4.8c-.8-1.8-.4-3.5-.5-5.3l1.1.5Z"/>
  <path class="st0" d="M199.1,174.1c3.7-.6,5.3,6.5,5.5,9.2.2,3.2-.7,13-5.1,13-6.1,0-7.1-20.2-.4-22.1Z"/>
</svg>