<?xml version="1.0" encoding="UTF-8"?>
<svg id="Layer_1" xmlns="http://www.w3.org/2000/svg" version="1.1" viewBox="0 0 500 500">
  <!-- Generator: Adobe Illustrator 29.8.1, SVG Export Plug-In . SVG Version: 2.1.1 Build 2)  -->
  <defs>
    <style>
      .st0 {
        fill: #fff;
      }
    </style>
  </defs>
  <g>
    <path class="st0" d="M251,498.5c-66.3,0-128.7-25.8-175.6-72.7S2.7,316.6,2.7,250.2,28.6,121.6,75.5,74.7,184.7,2,251,2s128.7,25.8,175.6,72.7,72.7,109.2,72.7,175.6-25.8,128.7-72.7,175.6-109.2,72.7-175.6,72.7Z"/>
    <path d="M251,2.5c33.5,0,65.9,6.6,96.4,19.5,29.5,12.5,56,30.3,78.8,53.1,22.8,22.8,40.6,49.3,53.1,78.8,12.9,30.5,19.5,63,19.5,96.4s-6.6,65.9-19.5,96.4c-12.5,29.5-30.3,56-53.1,78.8-22.8,22.8-49.3,40.6-78.8,53.1-30.5,12.9-63,19.5-96.4,19.5s-65.9-6.6-96.4-19.5c-29.5-12.5-56-30.3-78.8-53.1-22.8-22.8-40.6-49.3-53.1-78.8-12.9-30.5-19.5-63-19.5-96.4s6.6-65.9,19.5-96.4c12.5-29.5,30.3-56,53.1-78.8,22.8-22.8,49.3-40.6,78.8-53.1,30.5-12.9,63-19.5,96.4-19.5M251,1.5C113.6,1.5,2.2,112.9,2.2,250.2s111.4,248.8,248.8,248.8,248.8-111.4,248.8-248.8S388.4,1.5,251,1.5h0Z"/>
  </g>
  <path id="path3534" d="M151.7,147.7c-5.3,0-10.6.2-16,.7-35.6,3-69.5,22.8-69.6,53,0,15.3,10.9,27.7,27.9,27.1,20-.7,36.4-16.5,45-36.5,3.3-7.6-2.8-10.7-5.6-6.4-5.1,7.9-12.4,14-20.2,17.8-9.4,4.6-19.5,3.3-22.5-4.2-4.3-10.7,4.6-26.6,24.9-34.1,29.3-10.8,60.1-3.6,89.6,1.9.4,0,2,.9.6,1.6-5.3,2.9-10.5,5.2-18.6,12.1-5.8,4.9-13.4,11.5-19.3,18.7-5.8,7.1-10,13.3-15.5,20.3-.8,1-1.7,1-1.7,1-13.4,2.2-26.5,3.7-38.4,12-2.5,1.7-3.6,4.7-2,7,1.4,2,4.4,2.3,6.6.7,7.4-5.5,15.1-8.1,23.9-8.3.4,0,.6,0,.7.3,0,.1,0,.4-.1.6-13.2,18.1-16.5,22.2-26.4,33.4-5.1,5.8-10.1,10.6-15.6,15.7-22.5,20.7-46.7,20.3-55.4,7.4-5.2-7.8-4.5-16-1.1-22.7,4.2-8.3,12.6-14.4,19.7-17.9,2.6-1.3,3.4-4.6.7-7.6-1.7-2-5.7-2.3-8.7-1.8-9.2,1.7-20.1,8.6-26.5,16.9-7.2,9.3-10.9,20.6-9.7,33.3,2.2,22.9,21.2,36.1,42.8,36,17.2-.1,33.4-5.3,52.9-24.9,18.2-18.3,34.7-45.6,50.2-70.9.5-.8.8-1.2,3.2-1.5,9.7-1.2,24.1-2.6,33.3-3.1,2-.1,2.5,0,3.3.9,2.4,3,6,5.5,8.9,7.1,1.4.8,2.1,1.1,3.2,1.2,1.4,0,2.4-.7,3.1-1.5,1-1.1,1.2-2.4.7-3.3-.5-.9-7-4.5-7.2-5.9-.1-.9.8-1.1.8-1.1,4.7-1.5,9.6-4.5,12.6-10.1,2.9-5.6,3.4-13-1.9-17.1-4.7-3.6-11.8-3-17.4,2-5.5,4.9-7.4,12-6.6,18.2.1,1.1,0,1.4-1.4,1.6-8.5.7-16.7.9-25.8,1.4-.6,0-.8-.4-.4-.8,10.5-18,26.2-30.9,43.5-43.6,1.1-.9.8-2.5.8-3.8,31.3,6.7,61.5,19.3,94,19,13.4-.1,26.3-2.1,38.6-8.8,10.8-5.8,15.2-11.2,15.5-16.8.3-3.9-2.5-6.3-6.3-5.5-32.8,7.5-64.1,7.4-96.7,3.5-37.3-4.5-73-13.7-110.1-13.6ZM217.2,200c.8,0,1.5.3,2.1.8,1.7,1.5.9,5.1-.8,7.6-1.9,2.8-5.1,5.2-8.1,5.8-.6.1-1.1-.1-1.3-1.4-.5-3.4.7-8,4.4-11.3,1.2-1,2.6-1.5,3.9-1.5ZM480.4,200.6c-6,0-13.8,0-20,0s-2.2.2-2.9,1.5c-2.3,4.4-30.2,45.8-35.4,53.9-.9,1.2-1.9,1.1-2.1-.3-.5-4.8-4.7-10.3-11.3-12.9-5-2-9.9-2.4-15-1.7-9.2,1.2-17.4,6-24.6,11.4-10.9,8.2-20.2,18.8-32.3,26.6-6.6,4.3-15.6,8-21.7,2.4-5.5-5-4.9-16.2,3.5-24.8.9-.9,1.9-.1,1.8.7-.8,3.9.2,7.8,3.2,10.5,3.7,3.2,8.9,3.6,13.3,1.4,5.3-2.6,8.4-7.6,9.3-13.3,1.4-8.8-5.4-16.6-14-17.2-7-.5-13.6,1.9-20.1,7.2-3.3,2.7-5.1,4.7-7.9,8.6-.7,1-1.7,1.1-1.7-.4.3-11.3-4.4-17.6-13.8-17.8-7.3-.2-15.1,3.8-21.2,8.6-6.7,5.3-12.5,12.3-18.7,18.9-.8.8-1.5.8-1.7-.8-.2-7.5-2.1-14.7-5.6-19.8-1.2-1.8-3.8-2.7-6-1.5-1,.5-4.5,2.1-7.1,4.2-1.3,1-1.8,2.5-1.2,4.4,3.4,11.2,2.6,23.8-1.9,34.6-4.2,9.8-12.4,18.7-21.9,21.7-6.3,2-12.9,1-16.9-4.5-5.6-7.7-3.3-21,5-32,7.3-9.7,18-15.9,28.6-19.9,1.2-.5,1.5-1.3,1.2-2.3-.6-1.7-1.5-4.1-1.9-5.1-1-2.6-3.7-3-7-2.6-7.7.9-14.6,3.5-21.5,7.1-18,9.5-27,28-30.9,37.8-1.9,4.7-3.5,7.7-5.6,10.3-2.8,3.5-6.4,6.7-12.9,12.4-.6.5-1,1.6-.5,2.6.7,1.4,4,6.1,5,6.5,1.1.5,2.3-.2,2.8-.6,4.5-3.1,10-7.9,12.7-11.2.9-1.1,1.9-.7,2.4,1.1,2.5,8.8,9,15.9,18,18.9,16.5,5.5,33.5-2.5,46.4-16.3,8.2-8.8,11.2-14.5,14.3-18.3,5.3-6.5,15.8-21.1,28.3-30.5,4.6-3.5,10-6.1,12.7-4.3,2.2,1.4,2.9,4.7-.6,11-12.7,23-31.5,50.1-34.9,56.7-.6,1.1,0,2,1.1,2,6.7,0,13.3,0,19.3,0,1,0,1.5-.5,2-1.2,9.8-15.2,19-29.6,28.9-44.5.6-.9,1.1-.2,1.1.2.2,3.5,1.1,8.2,3.1,11.3,3.7,5.7,9,8.2,14.9,8.3,4.7,0,7-.6,12.1-2.5,4.1-1.5,7.4-3.5,9.9-5.3,1.5-1,1.7.7,1.7.9-2.3,12,.5,26.3,12.6,32.2,14.5,7.1,30.3-2.9,39.5-11.8.9-.9,1.9-.8,1.9,1.1.2,3.4,1.8,7.5,4.6,10.3,7.7,7.6,23.1,4.6,38.6-7.3,10-7.6,20.4-18.4,29.8-29.8.3-.4.6-1.2,0-1.9-1.4-1.5-3.5-3.2-4.9-4.5-.6-.5-1.6-.4-2.1,0-9.6,9.1-18.3,19.4-30.9,28-4.2,2.9-11,5.3-14,1.2-1.2-1.6-1-3.8.1-6.6,3.7-9,61.6-96.4,64.6-101.6.5-.9,0-1.6-1.2-1.6h0ZM399.2,255.2c1.5,0,2.9.3,4.2.9,7.1,3.4,4.9,11.6,1.7,18-.2.5-.3.9-.1,1.3.1.7,1,1.3,1.9,1.6.3.1.5.3.1,1-2.5,5.2-4.7,8.2-7.8,12.8-2.8,4.2-6,7.5-9.9,10.6-5.8,4.8-14,10-20.7,6.5-3-1.5-4.3-5.7-4.2-9,.2-9.4,4.4-19.1,12.2-28.5,7.7-9.4,16.1-15.2,22.7-15.2Z"/>
</svg>