<?xml version="1.0" encoding="UTF-8"?>
<svg id="Layer_1" xmlns="http://www.w3.org/2000/svg" version="1.1" viewBox="0 0 500 500">
  <!-- Generator: Adobe Illustrator 29.8.1, SVG Export Plug-In . SVG Version: 2.1.1 Build 2)  -->
  <defs>
    <style>
      .st0 {
        fill: #fff;
      }
    </style>
  </defs>
  <g>
    <path class="st0" d="M251,498.5c-66.3,0-128.7-25.8-175.6-72.7S2.7,316.6,2.7,250.2,28.6,121.6,75.5,74.7,184.7,2,251,2s128.7,25.8,175.6,72.7,72.7,109.2,72.7,175.6-25.8,128.7-72.7,175.6-109.2,72.7-175.6,72.7Z"/>
    <path d="M251,2.5c33.5,0,65.9,6.6,96.4,19.5,29.5,12.5,56,30.3,78.8,53.1,22.8,22.8,40.6,49.3,53.1,78.8,12.9,30.5,19.5,63,19.5,96.4s-6.6,65.9-19.5,96.4c-12.5,29.5-30.3,56-53.1,78.8-22.8,22.8-49.3,40.6-78.8,53.1-30.5,12.9-63,19.5-96.4,19.5s-65.9-6.6-96.4-19.5c-29.5-12.5-56-30.3-78.8-53.1-22.8-22.8-40.6-49.3-53.1-78.8-12.9-30.5-19.5-63-19.5-96.4s6.6-65.9,19.5-96.4c12.5-29.5,30.3-56,53.1-78.8,22.8-22.8,49.3-40.6,78.8-53.1,30.5-12.9,63-19.5,96.4-19.5M251,1.5C113.6,1.5,2.2,112.9,2.2,250.2s111.4,248.8,248.8,248.8,248.8-111.4,248.8-248.8S388.4,1.5,251,1.5h0Z"/>
  </g>
  <polygon class="st0" points="297 56.9 206.6 56.9 205.1 58.5 205.1 128.4 206.6 130 297 130 297 56.9"/>
  <polygon class="st0" points="297 161.3 205.1 161.3 205.1 455 206.6 456.6 297 456.6 297 161.3"/>
  <polygon points="297 161.3 297 456.6 206.6 456.6 205.1 455 205.1 161.3 297 161.3"/>
  <polygon points="297 56.9 297 130 206.6 130 205.1 128.4 205.1 58.5 206.6 56.9 297 56.9"/>
</svg>