<?xml version="1.0" encoding="UTF-8"?>
<svg id="Layer_1" xmlns="http://www.w3.org/2000/svg" version="1.1" viewBox="0 0 500 500">
  <!-- Generator: Adobe Illustrator 29.8.1, SVG Export Plug-In . SVG Version: 2.1.1 Build 2)  -->
  <defs>
    <style>
      .st0 {
        fill: #fff;
      }

      .st1 {
        fill: #e32726;
      }

      .st2 {
        fill: #1d3c6d;
      }
    </style>
  </defs>
  <g>
    <path class="st0" d="M250,496.4c-66.3,0-128.7-25.8-175.6-72.7S1.7,314.5,1.7,248.1,27.6,119.5,74.5,72.6C121.4,25.7,183.7,0,250,0s128.7,25.8,175.6,72.7c46.9,46.9,72.7,109.2,72.7,175.6s-25.8,128.7-72.7,175.6-109.2,72.7-175.6,72.7h0Z"/>
    <path d="M250,.4c33.5,0,65.9,6.6,96.4,19.5,29.5,12.5,56,30.3,78.8,53.1,22.8,22.8,40.6,49.3,53.1,78.8,12.9,30.5,19.5,63,19.5,96.4s-6.6,65.9-19.5,96.4c-12.5,29.5-30.3,56-53.1,78.8s-49.3,40.6-78.8,53.1c-30.5,12.9-63,19.5-96.4,19.5s-65.9-6.6-96.4-19.5c-29.5-12.5-56-30.3-78.8-53.1-22.8-22.8-40.6-49.3-53.1-78.8-12.9-30.5-19.5-63-19.5-96.4s6.6-65.9,19.5-96.4c12.5-29.5,30.3-56,53.1-78.8,22.8-22.8,49.3-40.6,78.8-53.1C184.1,7,216.6.4,250,.4M250-.6C112.6-.6,1.2,110.8,1.2,248.1s111.4,248.8,248.8,248.8,248.8-111.4,248.8-248.8S387.4-.6,250-.6h0Z"/>
  </g>
  <g>
    <g id="g30">
      <path id="path32" class="st2" d="M411.5,186.9c0-6.8,0-13.6,0-20.4-5.8,0-11.7,0-17.5,0,0-7.4,0-14.8,0-22.2-7.7,0-15.5,0-23.2,0v22.2h-9.6c0,6.8,0,13.6,0,20.4h9.6s0,0,0,0c0,6.2,0,12.4,0,18.6h0c0,.5,0,1,0,1.5s0,.8,0,1.2h0c0,3.6,0,7.2,0,10.9.2,9.8,3.8,20.3,12,26,7.3,5.2,16.3,6.2,25,6-7.1-7.4-11.4-18.3-13.1-27v-.3c0,0,0-.3,0-.3-.2-1.9-.5-5-.5-8.2,0-.7,0-1.4-.1-2.1,0-1.8,0-3.5,0-5.3,0-7.1,0-14.1,0-21.2,5.8,0,11.7,0,17.5,0"/>
    </g>
    <g id="g34">
      <path id="path36" class="st2" d="M356.9,150.6c0-6.8,0-13.6,0-20.4-11.4-1.9-24.6-1.2-33.8,6.7-8.2,7.4-9.8,19.1-9.5,29.5h-10c0,6.8,0,13.6,0,20.4h8.5c.5,0,1.1,0,1.6,0h0s0,0,0,0v11.2h0c0,16.7,0,33.4,0,50.1h10.8c4.3,0,8.5,0,12.8,0,0-17,0-33.9,0-50.8h0v-10.4h15.7c0-6.8,0-13.6,0-20.4h-15.8c.2-4.6-.3-10.1,3.5-13.5,4.6-3.8,10.9-2.6,16.4-2.3"/>
    </g>
    <g id="g38">
      <path id="path40" class="st2" d="M271.6,248.2h10.5c2,0,4,0,5.9,0h6.6c-.1-17.5.1-35-.1-52.5-.2-10.3-4.1-21.7-13.9-26.5-14-7-30.4-5.4-45.3-3,0,7.4,0,14.9,0,22.3,9.6-2.1,20.1-4.3,29.6-.7,4.4,1.5,6.1,6.2,6.8,10.4-6.7-.8-13.4-2.4-20.1-1.1-8,1-15.8,4.9-20.3,11.7-7.3,10.9-5.2,27.3,5.6,35.1,10.1,7.7,24.7,6.9,35,0,0,1.1,0,3.2,0,4.3M270.6,230.5c-6,1.8-13.2,3.9-18.7-.3-5-3.5-4.3-12,1.1-14.8,5.5-2.9,12-1.9,17.8-.7.5,5.3.5,10.5-.2,15.8"/>
    </g>
    <g id="g42">
      <path id="path44" class="st2" d="M151.3,137.4c9.4,0,18.7,0,28.1,0-13.7,18.5-27.2,37.2-41,55.6,12.3,18.4,24.4,36.9,36.8,55.2-9.7,0-19.4,0-29.2,0-10.8-16.4-21.7-32.9-32.5-49.3,0,16.4,0,32.9,0,49.3-8.4,0-16.8,0-25.1,0,0-36.9,0-73.8,0-110.8,8.4,0,16.7,0,25.1,0,0,17.4,0,34.9,0,52.3,12.5-17.5,25.1-34.8,37.6-52.3"/>
    </g>
    <g id="g46">
      <path id="path48" class="st2" d="M181.1,166.7c7.9,0,15.8,0,23.7,0,0,5.2,0,10.4-.1,15.6,3.8-8.6,12.1-14.2,21.3-15.7,0,7.7.1,15.5,0,23.2-10.1,1.2-20.4,8.7-20.8,19.6-.3,12.9,0,25.9,0,38.8-8,0-15.9,0-23.9,0,0-27.2,0-54.3,0-81.4"/>
    </g>
  </g>
  <g>
    <g id="g50">
      <path id="path52" class="st1" d="M240.8,364.1c-3.3,1.3-4,2-7.9,3.3-4,1.3-8.6,1.3-12.6,0-12.6-5.3-4.6-24.5-4.6-24.5,51.5-12.6,44.3-40.3,30.4-41.6-8.6,0-39.7,1.3-54.2,37-2,5.3-15.9,43,15.2,45.6,6.6,0,13.9-.7,20.5-4,5.9-3.3,10.6-7.3,14.5-12.6,3.3-5.9-1.3-3.3-1.3-3.3M233.5,311.3c4,1.3-5.9,21.1-5.9,21.1-4,1.3-7.9,2.6-10.6,2.6,1.3-2.6,8.6-27.8,16.5-23.8"/>
    </g>
    <g id="g54">
      <path id="path56" class="st1" d="M361,371.4c-.7-.7-2-.7-2.6-1.3-4-2.6-.7-9.9,0-13.9l11.9-42.3c.7-2.6,5.3-16.5-13.2-13.9-15.9,2.6-27.1,12.6-27.1,12.6,1.3-4,2.6-9.9,0-11.2-3.3-1.3-22.5,4.6-27.1,8.6-1.3,0-3.3,2-1.3,4,2,2.6,2.6,4.6,1.3,9.2-2.6,7.9-10.6,35.7-12.6,41-2,5.3-4.6,15.2,0,18.5,3.3,2.6,17.2-3.3,19.2-4.6,2-.7,4-2,4.6-2.6,2.6-2.6-1.3-4,2.6-17.8,0-.7,4.6-14.5,7.9-26.4,2.6-9.9,11.9-14.5,15.2-15.2,5.3-.7,4,4,3.3,7.3-4.6,14.5-9.9,36.3-11.9,41.6-2,5.3-5.3,15.9,0,17.8,4.6,3.3,25.8-5.9,27.8-7.3,4-2.6,4-4,2-4"/>
    </g>
    <g id="g58">
      <path id="path60" class="st1" d="M280.4,371.4c-1.3-.7-2-.7-2.6-1.3-4-2.6-1.3-9.9,0-13.9l12.6-42.3c.7-4.6,3.3-10.6,0-12.6-4-1.3-23.1,4.6-27.8,8.6-.7,0-2.6,2-.7,4,2,2.6,2,4.6.7,9.2-2,7.9-11.2,36.3-13.2,41.6-2,5.3-4.6,15.9,1.3,17.8,4.6,3.3,24.5-5.3,27.1-7.3,4.6-2,4.6-4,2.6-4"/>
    </g>
    <g id="g62">
      <path id="path64" class="st1" d="M276.5,291.4c1.3,2.6,13.2-2.6,19.2-5.9.7-.7,3.3-2.6,4-4.6,1.3-4.6,2-6.6,2.6-9.9.7-1.3.7-3.3-1.3-4-2.6-.7-18.5,1.3-22.5,7.9-1.3,2.6-5.9,15.2-2,16.5"/>
    </g>
    <g id="g66">
      <path id="path68" class="st1" d="M453.6,337.7c-2-7.3-13.9-9.3-18.5-5.3-2.6,2.6-4,7.9-3.3,9.3,11.2-3.3,13.2,6.6,11.2,10.6-4,6-5.3,7.9-10.6,7.9h-35c-.7-.7-1.3-1.3,0-2.6,2-2.6,36.3-49.6,37.7-51.5.7-1.3,2.6-4.6-2-4.6h-38.3c-4,0-5.9,1.3-9.2,4.6-2.6,3.3-5.9,13.2-7.9,19.8,0,0,0,2.6,4-.7.7-.7,2-3.3,4-3.3h23.1c7.3,0-31.1,36.3-43,55.5-2,3.3,1.3,3.3,3.3,3.3h50.2c12.6,0,10.6,2,17.2-7.3,0,0,20.5-26.4,17.2-35.7"/>
    </g>
    <g id="g70">
      <path id="path72" class="st1" d="M177.3,360.2l13.9-53.5c9.2-32.4,14.5-33.7,17.8-37h-21.8c-7.9,0-13.9,11.2-15.2,18.5l-9.3,33.7h-19.8s11.9-43,13.2-47.6c.7-2,.7-4.6-3.3-4.6s-42.3-1.3-55.5,3.3c-5.9,2-14.5,7.3-17.2,15.2-2,4.6-4.6,13.2,1.3,29.1.7,2,2,3.3,2.6,4,2,1.3,19.2-1.3,18.5-1.3,1.3,0,2-.7.7-3.3-1.3-3.3-5.3-9.3-5.9-15.2-2.6-23.1,13.9-26.4,16.5-27.1,4-.7,7.3-.7,11.2,0,1.3,0,4.6.7,5.3,2,1.3,2.6-.7,7.3-2,12.6-1.3,4-12.6,44.9-15.9,56.2-2,8.6-10.6,27.1-19.2,29.7-2,.7-4.6.7-7.3,0-2.6-.7-5.3-2-7.3-3.3-5.3-5.3-8.6-15.9-9.3-23.8-.7-9.9,1.3-17.2-.7-17.2-3.4,0-15,4.6-19.6,7.9,0,0,0,0,0,0-1.9,1.4-2,1.6-2,1.6,0,0-.2.2-.2.3-1.2,2.1-1.1,9.5-.6,14,2,9.9,7.3,21.1,15.2,26.4,21.1,14.5,58.2-11.9,62.1-14.5,5.9-5.3,9.9-12.6,11.2-17.8,2-6.6,5.3-17.8,5.3-17.8h19.8s-7.9,29.7-9.9,37c-2,5.9-3.3,15.9,2,15.2,19.8,0,27.8-7.3,28.4-7.9.7-.7.7-2,0-2.6-1.3-.7-5.9-5.3-3.3-11.9"/>
    </g>
  </g>
</svg>