<?xml version="1.0" encoding="UTF-8"?>
<svg id="Layer_1" xmlns="http://www.w3.org/2000/svg" version="1.1" viewBox="0 0 500 500">
  <!-- Generator: Adobe Illustrator 29.8.1, SVG Export Plug-In . SVG Version: 2.1.1 Build 2)  -->
  <defs>
    <style>
      .st0 {
        fill: #fff;
      }

      .st1 {
        fill: #f40000;
      }
    </style>
  </defs>
  <circle class="st1" cx="251" cy="250.2" r="248.8"/>
  <g id="Page-1">
    <g id="Asset-1KO">
      <path id="Path" class="st1" d="M494.2,251.1c0-134.3-108.9-243.1-243.1-243.1S7.9,116.8,7.9,251.1s108.9,243.1,243.1,243.1,243.1-108.9,243.1-243.1h0"/>
      <path id="Shape" class="st0" d="M340.6,189.3c-6.8,3.3-12.8,8-17.7,13.8-9.6,10.5-15.1,22.3-11,25.4,1.6,1.2,5.2,1.4,11.7-4.5,6.1-5.3,10.9-12,14-19.5,4.2-10.4,2.9-15.2,2.9-15.3M392.6,208.1c-10.6-5.5-18.3-12.1-26.4-16.2s-12.5-5.5-18.7-4.8c-.9.1-1.7.3-2.6.6,0,0,3.2,10.9-9.5,29.3-12.7,18.4-24.6,18.7-27.8,13.5s1-16.4,8.5-26.2c6.2-7.3,13.5-13.6,21.7-18.8,0,0-4.4-2.6-15.2,3.5-18.2,11.3-33.8,26.4-45.7,44.2-16.8,23.9-20.2,37.2-22.6,47.5-2.4,10.4-.2,21.5,11.3,21.5s24.9-17.6,28.7-23.7c7-11.4,11.7-28.8,2.1-26.4-4.8,1.2-8.6,6.4-10.9,11.4-1.5,3.2-2.7,6.6-3.5,10.1-3.3,1.4-6.5,3.2-9.3,5.5-3.2,2.3-6.1,5-8.8,7.8.7-7.6,3-15,6.7-21.7,4.8-10.4,14.3-17.9,25.5-20.1,6.2-.5,14.3,4.8,7.4,24.2s-26.9,43-48.1,43.3c-19.5.3-32.4-24.7-5.2-68.3,30.3-48.1,65.3-62.9,77-64.6s15.2,3.4,15.2,3.4c6.9-2.8,14.4-4.1,21.8-3.6,14,.9,24.8,10.9,39.1,17.8-3.9,3.6-7.2,7.4-10.5,10.9M455.7,191.9c-9.7,6.3-23.1,11.9-36,10.7-3.3,3.4-6.8,7.3-10.3,11.7,22.4,4.4,42-9.5,52.4-21.3,3.8-4.2,7-8.9,9.7-13.9-4.7,4.9-10,9.2-15.8,12.9M426,255c.2-.3.3-.6.4-.9-.1-1.1-1-1.9-2-1.9-2.1,0-5.1.3-12.7,8.7-6.3,7-11.8,14.7-16.2,23.1-4.4,7.8-6.1,13.9-3.6,15.6.8.4,1.8.5,2.6.3,1.7-.4,3.6-2,6.5-5.4,1.4-1.6,2.9-3.9,4.7-6.3,5-6.9,17.7-28.5,20.2-32.9M346.7,264.2c1.3-3.3,2.9-9.9-.5-12.4s-12.8,3.7-12.9,10.2c.3,4.8,3.5,8.8,8.1,10.2.9.3,1.2.2,1.6-.5,1.4-2.4,2.6-4.9,3.7-7.4M339.8,276.6c-2.3-1-4.4-2.3-6.3-3.9-1.9-1.6-3.5-3.6-4.8-5.8,0-.2-.2,0-.4,0-2,2.5-3.9,5.1-5.6,7.8-4.9,7.2-12.5,22.2-5.6,24.7,4.4,1.6,11.7-6,15.6-11.1,2.7-3.5,5.2-7.3,7.4-11.2,0-.4,0-.5-.2-.6M417.3,293.9c-1.9,3-3.9,8.6,2.2,5.1,7.5-4.3,18.1-20.5,18.1-20.5h4.8c-4.4,6.8-9.2,13.2-14.6,19.2-7.6,8.4-16.8,16-23.4,15.3-7.8-.9-5.2-10.9-5.2-10.9,0,0-10.9,11.7-18.4,10.7-10-1-6.9-13.7-6.9-13.7,0,0-11.7,14.1-19.5,13.7-12.3-.7-9.2-15.6-5.8-26.1,1.8-5.6,3.5-10,3.5-10,0,0-1.2.3-3.9.7-1.3,0-2.6.2-3.9.4,0,0-5.1,9-9.2,14.4s-21.3,24.1-31.4,20.4c-9.5-3.5-6.3-18-.8-29.4,8-16.7,30.6-40.9,43.6-37.7s.3,27.9.3,27.9h0c.8.2,1.7.2,2.6,0,1.7-.3,3.3-.8,4.9-1.4,8-16.6,17.5-32.3,28.5-47.1,15-18.6,44.9-50.6,56.7-42.8,2.8,1.9,1.6,8.5-2.3,16.4-1.7.5-3.5,1-5.3,1.4,2.1-3.6,3.8-7.4,4.8-11.4,1.8-9.6-20.7,10.7-36.7,32.5-9.6,13.1-18.2,27-25.6,41.5,2.9-1.7,5.7-3.7,8.3-5.9,7.1-5.9,13.9-12.3,20.3-19,6.2-6.3,12.1-13,17.5-20,1.7,0,3.4-.2,5.1-.5-5.8,7.9-12.1,15.5-18.9,22.5-6.4,6.5-13.3,13.4-19.5,18.5-5.4,4.6-11,8.8-16.9,12.6,0,0-14.1,28.2-6.4,30.1,4.5,1.1,13.3-12.6,13.3-12.6,0,0,11.7-17.6,18.5-25.6,9.5-10.8,17.7-17,25.9-17.2,3.2.3,6,2.2,7.6,5l2.2-3.5h13.9s-25.8,43.7-27.8,47M455.9,192c-9.7,6.3-23.1,11.9-36,10.7-3.3,3.4-6.8,7.3-10.3,11.7,22.4,4.4,42-9.5,52.4-21.3,3.8-4.2,7-8.9,9.7-13.9-4.7,4.9-10,9.2-15.8,12.9M432.1,304.7h1.9c.6,0,1.1,0,1.7,0,.6.3,1,.9,1,1.6,0,.5-.2.9-.6,1.2-.3.2-.6.3-.9.4.4,0,.8.2,1.1.6.2.3.3.6.4.9v1.2h-1v-1c0-.7,0-1.2-.6-1.4-.3-.2-.7-.3-1.1-.2h-.9v2.4h-1.1l.2-5.6ZM435.8,306.6c0-.5,0-.8-.4-.9-.4-.2-.8-.3-1.3-.2h-.9v2.2h.9c.3,0,.7,0,1,0,.4-.2.6-.5.6-.9M439.6,307.8c0,3.1-2.4,5.5-5.5,5.6-3.1,0-5.5-2.4-5.6-5.5,0-1.5.6-2.9,1.6-4,2.2-2.1,5.6-2.1,7.8,0,1.1,1,1.6,2.4,1.6,3.9M434.1,303c-1.3,0-2.5.5-3.3,1.4-.9.9-1.4,2.1-1.4,3.3,0,1.3.5,2.5,1.4,3.4.9.9,2.1,1.4,3.3,1.4,2.6.2,4.8-1.8,5-4.4,0-.1,0-.2,0-.4,0-1.3-.5-2.5-1.4-3.3-.9-.9-2.1-1.4-3.4-1.4M262.2,213.5h-13.1l-7.4,12h13.1l7.5-12ZM199.9,255c5.6-7.8,21-34.5,21-34.5-.1-1.1-1-1.9-2.1-1.9-2.1,0-5.6.6-12.7,9.5-6.2,7.3-11.7,15.1-16.5,23.4-4.4,7.8-6.3,13.6-3.9,15.1.8.4,1.8.5,2.6.3,2.8-1.1,5.3-3.1,7-5.6,1.4-1.6,2.9-3.9,4.8-6.2M129.7,218.9c-3.6-2.7-12.9,3.7-12.9,10.2,0,6.6,8.3,8.8,9.4,8.8.5.2,1.1,0,1.3-.5.2-.5,1.4-2.6,2.6-5.9s2.9-9.9-.5-12.5M124.3,242.1c-2.5-.8-5-1.9-7.2-3.3-2.1-1.4-3.9-3.3-5.1-5.6,0-.2-.3,0-.4,0s-.9,1.2-5.8,8.4c-4.9,7.2-12.1,22.2-5.3,24.7,4.4,1.6,11.7-6.1,15.6-11.1,3-4,5.8-8.1,8.3-12.4.2-.4,0-.5-.2-.6M231.3,246.5h4.8s-24.1,34.8-37.7,33.3c-7.6-.9-5.3-10.3-5.3-10.3,0,0-10.7,12.5-20.4,10-8.9-2.3-3.2-17.1-3.2-17.1-1,.4-20.2,22.1-33.8,16.9s-6.8-23.6-3.9-29c2.2-4.6,4.7-9.1,4.7-9.1,0,0-2.2.6-3.5.9l-3.4.7s-6.7,10.9-10.8,16.3-21.2,24.1-31.6,20.4-7.8-18-1.9-29.4c9.3-18.5,31.4-41.2,44.7-37.7,13.3,3.4,2.3,25.2,2.3,25.2,0,0,2.6.4,9.1-3.9,9.3-6.3,21.5-23.4,34.7-21.3,6.2.9,12,7.3,3.9,19.5-2.6,3.9-6.8,7.4-10,3.9-2-2.1-.3-6,1.9-8.7,1.7-2.2,4.4-3.4,7.1-3.3,0,0,2.2-5-3.3-4.9-4.5,0-15.8,10.6-22.3,21.1-5.9,9.7-14.8,26.3-5.8,29.9,8.2,3.3,23.8-15.2,31.2-25,7.4-9.7,23.7-31.8,37.5-32.7,3,0,5.9,1.4,7.6,3.9l1.6-2.5h14.1s-26.1,43.5-28.1,46.7c-1.6,2.6-3.9,8.4,2.2,5.1,6.1-3.2,18.1-19,18.1-19M223.8,316.2c-10.2-7-22.4-10.6-34.8-10.1-6.8.2-13.1,3.6-17,9.2-5.3-9.2-15.6-14.8-31.8-14.7-26.1.3-51.9,12.3-72.4,12.3s-34-12.3-33.5-34.2c.8-38.4,33.3-73.1,57.6-88.7,13.9-9,25.6-11.7,33.3-10.7,6.1.9,10.3,6.6,9.4,12.7-.2,1.3-.7,2.6-1.3,3.8-6.2,13.9-14.8,12.7-14.5,6.1.3-3.5,2.2-6.7,5.2-8.5,1.5-.8,3.3-1.2,5-1.2,1.2-1,2.2-8.6-7.8-6.1s-22,12.3-33.5,25c-11.5,12.7-29.2,36.6-33.8,62-2.1,11.7-.7,32.9,27,32.7,23.4,0,58-15.6,89.8-15.3,11.1,0,21.9,2.9,31.4,8.6,8.1,4.7,15.4,10.6,21.6,17.5"/>
    </g>
  </g>
</svg>