<?xml version="1.0" encoding="UTF-8"?>
<svg id="Layer_1" xmlns="http://www.w3.org/2000/svg" version="1.1" viewBox="0 0 500 500">
  <!-- Generator: Adobe Illustrator 29.8.1, SVG Export Plug-In . SVG Version: 2.1.1 Build 2)  -->
  <defs>
    <style>
      .st0 {
        fill: #e3000b;
      }

      .st1 {
        fill: #fff;
      }
    </style>
  </defs>
  <circle class="st0" cx="251" cy="250.2" r="248.8"/>
  <g>
    <polygon class="st0" points="41.6 309.3 27.4 323.5 46.7 329.8 41.6 309.3"/>
    <polygon class="st0" points="48.7 337 37.7 352.5 53.4 353.6 48.7 337"/>
    <polygon class="st0" points="34.4 282.9 20 295.5 39.8 302.9 34.4 282.9"/>
    <polygon class="st0" points="64.4 354.5 32 273.1 17.9 265.7 39.4 252.1 18.6 236.1 41.5 224.8 22.2 207.4 47.4 199.5 30.2 179.8 55.7 174.1 41.8 152.5 67.3 149.9 55.9 126.2 82.7 126.9 75 103.5 101.2 105.6 95.7 81.6 120.4 88.9 118.5 63.1 143 73.5 144.8 48.7 166.9 62.5 170.9 37 191.2 53 199 29.1 217 47.5 227.1 25 243.2 44.7 256 23.4 269.4 44.9 284.5 25.6 294.8 48.6 313.4 30.7 320.6 55.7 340.9 40.4 345.3 65.6 366.8 53.5 367.7 79.6 391.3 69.5 389.1 96.1 414.7 89.5 408 114.1 432.8 111.8 424.1 135 450.6 136 438.1 158 463.1 159.9 447.6 180.1 472.4 187.4 455.5 205.8 478.5 216.7 459.6 232.8 481.3 247.1 461.2 258.8 481.3 275 458.8 285.6 477.4 304.9 453.4 312.6 468.7 332.9 444.4 338.4 458.6 362.4 431.6 362.3 442.6 385.7 417 384.8 424.9 409.2 400.3 403.8 405.8 429.3 380.4 422 382.3 446.4 358.8 436.8 358.3 463.3 336.5 449.7 331.8 473.8 311.5 458.8 303.5 482.7 284.6 464.8 275.4 487.5 258.3 467.9 245.6 488.9 231.8 467.1 216.3 486.4 206 462.4 188.1 481.1 180.4 455.9 159.7 472.4 156.2 446.4 135.2 459.6 135 433.7 110.7 443.5 113.8 418 87.8 424.5 94.8 400.3 69.2 403.4 77.7 379.5 51.7 378.2 64.4 354.5"/>
    <polygon class="st1" points="29.6 265.5 51.6 259.6 95.3 324.1 95.6 324 100.4 246.4 122 240.6 146.5 331.5 131.7 335.5 112.8 265.3 112.5 265.4 106.6 342.3 93.9 345.7 50.3 282.1 50 282.1 68.9 352.4 54 356.4 29.6 265.5"/>
    <path class="st1" d="M161.4,230l16.6-4.4,58.7,81.6-16.7,4.5-14.9-21.8-35.6,9.5-1.9,26.4-16.1,4.3,9.8-100.2ZM170.7,286.2l27.2-7.3-23.9-35.5h-.4c0,0-2.9,42.8-2.9,42.8Z"/>
    <polygon class="st1" points="189.5 222.5 261.7 203 265.4 216.8 237.1 224.4 257.8 301.5 242.2 305.8 221.4 228.6 193.3 236.2 189.5 222.5"/>
    <polygon class="st1" points="248.7 206.5 321 187.2 324.6 200.9 296.3 208.5 317 285.7 301.4 289.8 280.7 212.7 252.5 220.3 248.7 206.5"/>
    <polygon class="st1" points="326.7 185.7 388.7 168.9 392.5 182.6 346 195.2 352.4 219 395.3 207.4 398.7 220.4 355.9 232 363 258.5 410.3 245.8 414.1 259.6 351.2 276.5 326.7 185.7"/>
    <polygon class="st1" points="396.7 166.8 412.3 162.6 433.1 239.8 478.4 227.6 482.1 241.3 421.1 257.7 396.7 166.8"/>
  </g>
</svg>