<?xml version="1.0" encoding="UTF-8"?>
<svg id="Layer_1" xmlns="http://www.w3.org/2000/svg" version="1.1" viewBox="0 0 500 500">
  <!-- Generator: Adobe Illustrator 29.8.1, SVG Export Plug-In . SVG Version: 2.1.1 Build 2)  -->
  <defs>
    <style>
      .st0 {
        fill: #fff;
      }
    </style>
  </defs>
  <g>
    <path class="st0" d="M251,498.5c-66.3,0-128.7-25.8-175.6-72.7S2.7,316.6,2.7,250.2,28.6,121.6,75.5,74.7,184.7,2,251,2s128.7,25.8,175.6,72.7,72.7,109.2,72.7,175.6-25.8,128.7-72.7,175.6-109.2,72.7-175.6,72.7Z"/>
    <path d="M251,2.5c33.5,0,65.9,6.6,96.4,19.5,29.5,12.5,56,30.3,78.8,53.1,22.8,22.8,40.6,49.3,53.1,78.8,12.9,30.5,19.5,63,19.5,96.4s-6.6,65.9-19.5,96.4c-12.5,29.5-30.3,56-53.1,78.8-22.8,22.8-49.3,40.6-78.8,53.1-30.5,12.9-63,19.5-96.4,19.5s-65.9-6.6-96.4-19.5c-29.5-12.5-56-30.3-78.8-53.1-22.8-22.8-40.6-49.3-53.1-78.8-12.9-30.5-19.5-63-19.5-96.4s6.6-65.9,19.5-96.4c12.5-29.5,30.3-56,53.1-78.8,22.8-22.8,49.3-40.6,78.8-53.1,30.5-12.9,63-19.5,96.4-19.5M251,1.5C113.6,1.5,2.2,112.9,2.2,250.2s111.4,248.8,248.8,248.8,248.8-111.4,248.8-248.8S388.4,1.5,251,1.5h0Z"/>
  </g>
  <path d="M77,347.7c-13.6-.5-24.7-4.3-33.3-11.1-1.7-1.3-5.6-5.3-6.9-6.9-3.5-4.4-5.9-8.7-7.5-13.5-4.9-14.7-2.4-34,7.2-55.2,8.2-18.1,20.9-36.1,43.1-61,3.3-3.7,13-14.4,13-14.4s-.5.9-1.2,2c-5.8,9.6-10.7,21-13.4,30.9-4.3,15.8-3.8,29.3,1.5,39.8,3.7,7.2,10,13.5,17,17,12.4,6.1,30.5,6.6,52.6,1.5,1.5-.4,77-20.4,167.8-44.5,90.8-24.1,165-43.9,165.1-43.9,0,0-210.9,90.3-320.4,137.1-17.3,7.4-22,9.3-30.1,12.1-20.8,7.3-39.5,10.8-54.6,10.2h0Z"/>
</svg>