<?xml version="1.0" encoding="UTF-8"?>
<svg id="Layer_1" xmlns="http://www.w3.org/2000/svg" version="1.1" viewBox="0 0 500 500">
  <!-- Generator: Adobe Illustrator 29.8.1, SVG Export Plug-In . SVG Version: 2.1.1 Build 2)  -->
  <defs>
    <style>
      .st0 {
        fill: #fff;
      }
    </style>
  </defs>
  <g>
    <path d="M251,498.5c-66.3,0-128.7-25.8-175.6-72.7S2.7,316.6,2.7,250.2,28.6,121.6,75.5,74.7,184.7,2,251,2s128.7,25.8,175.6,72.7,72.7,109.2,72.7,175.6-25.8,128.7-72.7,175.6-109.2,72.7-175.6,72.7Z"/>
    <path class="st0" d="M251,2.5c33.5,0,65.9,6.6,96.4,19.5,29.5,12.5,56,30.3,78.8,53.1,22.8,22.8,40.6,49.3,53.1,78.8,12.9,30.5,19.5,63,19.5,96.4s-6.6,65.9-19.5,96.4c-12.5,29.5-30.3,56-53.1,78.8-22.8,22.8-49.3,40.6-78.8,53.1-30.5,12.9-63,19.5-96.4,19.5s-65.9-6.6-96.4-19.5c-29.5-12.5-56-30.3-78.8-53.1-22.8-22.8-40.6-49.3-53.1-78.8-12.9-30.5-19.5-63-19.5-96.4s6.6-65.9,19.5-96.4c12.5-29.5,30.3-56,53.1-78.8,22.8-22.8,49.3-40.6,78.8-53.1,30.5-12.9,63-19.5,96.4-19.5M251,1.5C113.6,1.5,2.2,112.9,2.2,250.2s111.4,248.8,248.8,248.8,248.8-111.4,248.8-248.8S388.4,1.5,251,1.5h0Z"/>
  </g>
  <g id="g4">
    <path id="path1" class="st0" d="M231.8,78c-38.2,0-81.6,7.2-118.3,23.7-34.2,15.3-62.1,39.9-62.1,80.6,0,21.3,8.1,41.9,22.7,57.4,9.9,9.1,25.9,24.7,67.6,33.8,18.7,3.9,58.5,10.3,98.2,14.5,39.7,4.2,78.2,7.9,94,12.1,12.5,3.2,33.6,7.5,33.6,31.2s-22.2,30.8-26.1,32.3c-3.9,1.5-30.5,13.8-78.4,13.8-31.7-.9-63.2-6.3-93.3-16.1-17.9-6.4-36.6-14.8-54.1-36.1-7.1-10-11-22-11.2-34.2h-43.4v121.5h48.2v-16.4c0-3.8,3-6.9,6.8-6.9,1.3,0,2.5.3,3.6,1,22.7,9.9,46.3,17.5,70.5,22.8,25.3,5.3,41.7,9.1,73.2,9.1,33.2.6,66.3-4,98-13.8,21.1-5.8,40.8-15.5,58.2-28.7,19.8-15.2,31.4-38.9,31.2-63.9.2-23.4-8.9-46-25.2-62.9-9.1-8.8-19.6-16-31.1-21.3-12.4-5.6-25.2-10.1-38.3-13.4-25-6.1-81.2-13.8-108-16.4-28.2-2.9-77-7-96.5-13-5.9-1.9-18-7.6-18-21.6s5.5-18.4,16.4-25.2c17.3-10.8,52.3-17.6,88.7-17.6,35.3-.4,70.3,6.4,102.8,20.1,8.7,3.8,17,8.7,24.5,14.6,12.2,10.4,20.7,24.6,24.1,40.3h38.9v-105.7h-43.4v12.3c0,3.9-3.9,9.1-11.8,4.9-19.6-10.2-74.5-32.2-141.9-32.5Z"/>
  </g>
</svg>