<?xml version="1.0" encoding="UTF-8"?>
<svg id="Layer_1" xmlns="http://www.w3.org/2000/svg" xmlns:xlink="http://www.w3.org/1999/xlink" version="1.1" viewBox="0 0 500 500">
  <!-- Generator: Adobe Illustrator 29.8.1, SVG Export Plug-In . SVG Version: 2.1.1 Build 2)  -->
  <defs>
    <style>
      .st0 {
        fill: #f50a23;
      }

      .st1 {
        fill: url(#radial-gradient);
      }

      .st2 {
        fill: #fff;
      }
    </style>
    <radialGradient id="radial-gradient" cx="-216" cy="349.6" fx="-216" fy="349.6" r="15.4" gradientTransform="translate(3634.5 -1969.1) rotate(-90) scale(10.7 -9.7)" gradientUnits="userSpaceOnUse">
      <stop offset="0" stop-color="#f5ff1e"/>
      <stop offset="1" stop-color="#f50a23"/>
    </radialGradient>
  </defs>
  <g>
    <path class="st2" d="M251,498.5c-66.3,0-128.7-25.8-175.6-72.7S2.7,316.6,2.7,250.2,28.6,121.6,75.5,74.7,184.7,2,251,2s128.7,25.8,175.6,72.7,72.7,109.2,72.7,175.6-25.8,128.7-72.7,175.6-109.2,72.7-175.6,72.7Z"/>
    <path d="M251,2.5c33.5,0,65.9,6.6,96.4,19.5,29.5,12.5,56,30.3,78.8,53.1,22.8,22.8,40.6,49.3,53.1,78.8,12.9,30.5,19.5,63,19.5,96.4s-6.6,65.9-19.5,96.4c-12.5,29.5-30.3,56-53.1,78.8-22.8,22.8-49.3,40.6-78.8,53.1-30.5,12.9-63,19.5-96.4,19.5s-65.9-6.6-96.4-19.5c-29.5-12.5-56-30.3-78.8-53.1-22.8-22.8-40.6-49.3-53.1-78.8-12.9-30.5-19.5-63-19.5-96.4s6.6-65.9,19.5-96.4c12.5-29.5,30.3-56,53.1-78.8,22.8-22.8,49.3-40.6,78.8-53.1,30.5-12.9,63-19.5,96.4-19.5M251,1.5C113.6,1.5,2.2,112.9,2.2,250.2s111.4,248.8,248.8,248.8,248.8-111.4,248.8-248.8S388.4,1.5,251,1.5h0Z"/>
  </g>
  <g id="layer1">
    <path id="path27" class="st1" d="M60.7,109.5l131,341.1c1,2.6,3.5,4.3,6.3,4.3h106.2c-2.8,0-5.3-1.7-6.3-4.3L166.9,109.5H60.7Z"/>
    <path id="path29" class="st0" d="M441.4,109.5l-131,341.1c-1,2.6-3.5,4.3-6.3,4.3h-106.2c2.8,0,5.3-1.7,6.3-4.3L335.1,109.5h106.2Z"/>
  </g>
</svg>