<?xml version="1.0" encoding="utf-8"?>
<!-- Generator: Adobe Illustrator 27.4.1, SVG Export Plug-In . SVG Version: 6.00 Build 0)  -->
<svg version="1.1" xmlns="http://www.w3.org/2000/svg" xmlns:xlink="http://www.w3.org/1999/xlink" x="0px" y="0px"
	 viewBox="0 0 200 200" style="enable-background:new 0 0 200 200;" xml:space="preserve">
<style type="text/css">
	.st0{fill:#FFFFFF;}
	.st1{display:none;}
</style>
<g id="Layer_1">
	<g>
		<path class="st0" d="M64,114.5c-4-9.1-5.1-22.4,2-30.1c2.8-3,8-4.9,13.6-4.9c3.8,0,7.4,0.9,10,2.4c0.4,0.3,1,0.3,1.4,0
			c2.7-1.6,6.2-2.4,10-2.4c5.6,0,10.8,1.9,13.6,4.9c4.7,5.1,6.3,13.2,4.4,22.3h2.9c1.8-9.7-0.1-18.5-5.3-24.2
			c-3.4-3.6-9.2-5.8-15.6-5.8c-3.8,0-7.5,0.8-10.4,2.3l-0.3,0.2L90,79c-2.9-1.5-6.6-2.3-10.4-2.3c-6.4,0-12.3,2.2-15.6,5.8
			c-8,8.6-7,22.8-2.5,33.1c2.6,6,6.4,10.8,10.8,13.5v-3.4C69,123.1,66.1,119.3,64,114.5z"/>
		<path class="st0" d="M82.6,72.3c-0.3-0.8-0.7-2-1-3.2c-0.8-0.4-1.5-0.9-2-1.5c-1.8-2-2.5-5.3-2.2-9.8l0-0.8l0.8,0.1
			c1.5,0.2,2.8,0.5,4,0.9c0.3-0.7,0.6-1.4,0.9-2c0.1-0.2,0.2-0.3,0.3-0.5c-2-0.7-4.4-1.1-7.1-1.3c0,0-0.1,0-0.1,0
			c-0.7,0-1.3,0.5-1.4,1.2c-0.8,6.4,0.1,11.2,2.7,14.1C78.7,70.8,80.5,71.8,82.6,72.3z"/>
		<path class="st0" d="M70.4,102.9c-0.1-5,1-8.5,3.3-11c1.4-1.5,3.7-2.6,6.6-3v-2.8c-3.8,0.5-6.8,1.9-8.7,4c-2.8,3-4.1,7.2-4,12.8
			H70.4z"/>
		<path class="st0" d="M89.9,72c0.2,0.1,1.9,0.6,4.3,0.6c3.6,0,6.7-1.2,8.8-3.6c3-3.3,4-8.8,3.1-16.2c-0.1-0.7-0.8-1.3-1.5-1.2
			c-8.3,0.6-13.6,3.1-16,7.4C85.4,64.5,88.9,71,89,71.3C89.2,71.6,89.5,71.8,89.9,72z M91,60.2c1.6-3,5.7-5,11.6-5.7l0.8-0.1
			l0.1,0.8c0.4,5.4-0.5,9.5-2.6,11.9c-1.6,1.8-3.8,2.7-6.7,2.7c0,0,0,0,0,0c-1,0-1.9-0.1-2.5-0.2l-0.4-0.1L91.1,69
			C90.3,67.1,89.2,63.4,91,60.2z"/>
		<path class="st0" d="M79.1,122.6v7.4c0,5,4,9,9,9h60.1v-2.8H88.1c-3.4,0-6.2-2.8-6.2-6.2v-7.4c0-3.4,2.8-6.2,6.2-6.2h60.1v-2.8
			H88.1C83.2,113.6,79.1,117.6,79.1,122.6z"/>
		<rect x="91" y="124.9" class="st0" width="51.8" height="2.8"/>
	</g>
</g>
<g id="guides" class="st1">
</g>
</svg>
