<?xml version="1.0" encoding="utf-8"?>
<!-- Generator: Adobe Illustrator 27.4.1, SVG Export Plug-In . SVG Version: 6.00 Build 0)  -->
<svg version="1.1" xmlns="http://www.w3.org/2000/svg" xmlns:xlink="http://www.w3.org/1999/xlink" x="0px" y="0px"
	 viewBox="0 0 200 200" style="enable-background:new 0 0 200 200;" xml:space="preserve">
<style type="text/css">
	.st0{fill:#FFFFFF;}
	.st1{display:none;}
</style>
<g id="Layer_1">
	<g>
		<path class="st0" d="M142.5,95.3l-15-13.7V57.5c0-0.8-0.6-1.4-1.4-1.4h-16.9c-0.8,0-1.4,0.6-1.4,1.4v6.1L95.1,52
			c-0.5-0.5-1.4-0.5-1.9,0L45.9,95.3c-1.2,1.1-1.6,2.9-1,4.4c0.6,1.6,2.1,2.6,3.7,2.6h8.5v36.4c0,0.8,0.6,1.4,1.4,1.4h71.4
			c0.8,0,1.4-0.6,1.4-1.4v-36.4h8.5c1.7,0,3.1-1,3.7-2.6C144.1,98.2,143.7,96.4,142.5,95.3z M88.1,109.6v27.7h-14v-27.7H88.1z
			 M89.5,106.8H72.8c-0.8,0-1.4,0.6-1.4,1.4v29.1H59.9v-36.4c0-0.8-0.6-1.4-1.4-1.4h-9.9c-0.5,0-0.9-0.3-1.1-0.8
			c-0.2-0.5-0.1-1,0.3-1.3l46.4-42.5l14,12.8c0.4,0.4,1,0.5,1.5,0.3c0.5-0.2,0.8-0.7,0.8-1.3v-7.9h14.1v23.4c0,0.4,0.2,0.8,0.5,1
			l15.4,14.1c0.4,0.4,0.5,0.8,0.3,1.3l0.4,0.1l-0.4-0.1c-0.2,0.5-0.6,0.8-1.1,0.8h-9.9c-0.8,0-1.4,0.6-1.4,1.4v36.4H90.9v-29.1
			C90.9,107.5,90.3,106.8,89.5,106.8z"/>
		<path class="st0" d="M104.2,115.9h13.6c0.8,0,1.4-0.6,1.4-1.4v-13.6c0-0.8-0.6-1.4-1.4-1.4h-13.6c-0.8,0-1.4,0.6-1.4,1.4v13.6
			C102.8,115.3,103.4,115.9,104.2,115.9z M105.6,113.1v-10.8h10.8v10.8H105.6z"/>
	</g>
</g>
<g id="guides" class="st1">
</g>
</svg>
