<svg xmlns="http://www.w3.org/2000/svg" xml:space="preserve" id="number1" x="0" y="0" version="1.1" viewBox="0 0 2000 2000" enable-background="new 0 0 2000 2000">
  <path d="M1303.26 205.65c.33.05.67.09 1 .14C1303.93 205.74 1303.59 205.69 1303.26 205.65zM1301.58 205.43c.13.02.26.03.38.04C1301.83 205.46 1301.71 205.45 1301.58 205.43zM1305.17 205.93c.43.07.86.14 1.28.21C1306.02 206.07 1305.59 206 1305.17 205.93zM1307.4 206.33c.38.07.76.14 1.14.22C1308.16 206.47 1307.78 206.4 1307.4 206.33zM1374.24 264.54c2.96 8.78 4.56 18.18 4.56 27.96C1378.86 282.77 1377.25 273.35 1374.24 264.54zM1310.08 206.87c.16.03.31.07.47.1C1310.4 206.94 1310.24 206.91 1310.08 206.87z" fill="none"></path>
  <path d="M1055.72,1706.06c139.26,55.71,286.86,2.79,286.86-142.05s0-1206,0-1206s5.43-149.68-112.82-153.13
	c-24.64-0.01-49.68-0.02-68.77,0.01c-11.16,0.09-22.34-0.29-33.46,0.64c-36.14,2.89-71.36,16.18-100.49,37.74
	c-11.71,8.5-35.13,25.96-47.19,34.76c-72.67,51.89-148.52,99.55-228.03,140.27c-9.72,4.74-20.17,10.31-30.03,14.85
	c-9.75,4.72-20.48,9.54-29.58,15.44c-18.74,11.95-34.71,28.03-46.66,46.76c-7.09,11.32-12.8,23.73-16.73,36.61
	c6.68,42.6,28.99,87.47,87.09,112.9c120.98,52.92,219.14,28.33,251.16-13.98c1.86-2.46,5.19-2.17,6.87-0.2
	c0.3-4.56,0.62-9.11,1-13.67c3.43,41.32,3.46,82.91,0.01,124.23v18.41c4.25,3.68,7.1,8.97,7.37,14.7
	c0.5,196.14,0.63,538.34,0.62,780.31C996.92,1633.29,1019.72,1691.65,1055.72,1706.06z M1097.49,1625.28
	c-17.43,0-31.57-14.13-31.57-31.57s14.13-31.57,31.57-31.57s31.57,14.13,31.57,31.57S1114.92,1625.28,1097.49,1625.28z
	 M753.98,542.75c-103.98,3.71-92.45-69.66,0-94.7S874.67,390.49,1000,295.79c61.83-46.72,113.94-60.45,150.88-62.36
	c17.83-0.93,25.15,22.6,9.83,31.76c-29.62,17.71-69.18,47.78-109.64,97.45C969.37,462.91,857.96,539.04,753.98,542.75z
	 M1033.43,692.69c0-33.58,27.23-60.81,60.81-60.81h0c33.58,0,60.81,27.23,60.81,60.81v775.22c0,33.58-27.23,60.81-60.81,60.81h0
	c-33.58,0-60.81-27.23-60.81-60.81V692.69z" fill="#578b9c" class="color57929c svgShape"></path>
  <path d="M1143.1,204.8c-4.19,0-8.38,0.14-12.54,0.41c4.97-0.18,10.24-0.31,15.73-0.41H1143.1z" fill="#578b9c" class="color57929c svgShape"></path>
  <path d="M972.61 660.1c.25-9.81.69-19.61 1.33-29.41-1.67-1.97-5.01-2.26-6.87.2-32.02 42.31-130.17 66.89-251.16 13.98-58.1-25.43-80.41-70.3-87.09-112.9-1.74 5.71-3.14 11.51-4.15 17.35-1.01 4.56-1.37 9.8-1.91 14.42-.65 8.48-.49 18.6-.48 27.11-.01 6.63-.03 14.34.29 20.86 1.01 20.05 6.25 39.49 14.9 57.23 54.98 46.24 91.56 60.9 241.39 60.9C946.78 729.84 966.79 684.02 972.61 660.1zM1371.43 257.29c-8.73-19.88-24.62-35.9-44.4-44.8C1346.69 221.44 1362.65 237.52 1371.43 257.29zM1254.13 204.8h-22.82C1239.3 204.83 1246.99 204.84 1254.13 204.8z" fill="#4d7e8e" class="color4d828e svgShape"></path>
  <path d="M1378.8,292.5c0-9.78-1.61-19.18-4.56-27.96c-9.72-28.5-34.03-50.79-63.69-57.56c-0.16-0.04-0.31-0.07-0.47-0.1
	c-0.51-0.11-1.03-0.23-1.55-0.33c-0.38-0.08-0.76-0.15-1.14-0.22c-0.32-0.06-0.63-0.12-0.95-0.18c-0.43-0.08-0.85-0.14-1.28-0.21
	c-0.3-0.05-0.6-0.1-0.91-0.15c-0.33-0.05-0.67-0.09-1-0.14c-0.43-0.06-0.86-0.12-1.3-0.17c-0.13-0.02-0.26-0.03-0.38-0.04
	c-3.55-0.42-7.16-0.62-10.82-0.58c-16.91,0.04-38.79,0.04-60.99,0.03c118.25,3.45,112.82,153.13,112.82,153.13s0,1061.16,0,1206
	s-147.6,197.76-286.86,142.05c-36-14.41-58.8-72.78-72.78-151.39c0,45.38-0.01,87.25-0.02,123.95c0,0-0.01,16.74-0.01,16.74l0,8.37
	c0,1.39-0.01,2.8,0.01,4.17l0.11,4.07c0.15,3.68,0.58,7.33,1.24,10.93c43.27,47.55,113.21,45.81,113.21,45.81s55.71,0,157.37,0
	c63.65,0,102.2-56.24,122.12-98.3c1.17-409.99,1.5-961.52,1.82-1366.29c0-3.88,0.01-7.74,0.01-11.59
	C1378.8,292.53,1378.8,292.51,1378.8,292.5z" fill="#4d7e8e" class="color4d828e svgShape"></path>
  <path d="M1378.79,304.13c-0.05,71.5-0.04,147.5,0.01,226.44V292.53c0-0.01,0-0.02,0-0.03c0,0.01,0,0.03,0,0.04
	C1378.8,296.39,1378.79,300.26,1378.79,304.13z" fill="#4d7e8e" class="color4d828e svgShape"></path>
  <path d="M1160.71 265.19c15.33-9.16 8.01-32.69-9.83-31.76-36.94 1.92-89.06 15.65-150.88 62.36-125.33 94.7-153.58 127.22-246.02 152.26s-103.98 98.41 0 94.7c103.98-3.71 215.39-79.84 297.09-180.11C1091.54 312.98 1131.09 282.9 1160.71 265.19zM1094.24 1528.73 1094.24 1528.73c33.59 0 60.81-27.23 60.81-60.81V692.69c0-33.58-27.23-60.81-60.81-60.81h0c-33.58 0-60.81 27.23-60.81 60.81v775.22C1033.43 1501.5 1060.65 1528.73 1094.24 1528.73z" fill="#6297a8" class="color629fa8 svgShape"></path>
  <circle cx="1097.49" cy="1593.72" r="31.57" fill="#6297a8" class="color629fa8 svgShape"></circle>
  <path d="M974.94 741.43c-2.26-27.05-3.03-54.21-2.33-81.33-5.82 23.92-25.83 69.74-93.75 69.74-149.83 0-186.41-14.66-241.39-60.9 16.73 34.31 46.21 62.24 82.53 75.84 11.6 4.47 23.8 7.4 36.14 8.88 11.04 1.41 22.15 1.05 33.26 1.07 48.03-.12 119.21-.18 167.43-.29 1.55-.01 4.96-.04 6.47.12 4.35.41 8.4 2.29 11.64 5.1v-18.41C974.95 741.31 974.94 741.37 974.94 741.43zM1254.86 1768.72c-101.67 0-157.37 0-157.37 0s-69.93 1.74-113.21-45.81c5.22 28.46 25.67 53.68 52.86 64.07 10.12 3.99 20.96 5.94 31.87 5.9 22.63.72 142.42-.35 167.43.17 12.5-.04 41.93.07 54.42.07 14.98.01 29.99-3.83 42.98-11.37 25.04-14.18 41.85-41.52 43.02-70.3.04-13.51.08-27.19.12-41.03C1357.05 1712.48 1318.51 1768.72 1254.86 1768.72z" fill="#2e7389" class="color467984 svgShape"></path>
  <path d="M620.34,611.84c2.77,59.77,42.72,114.46,98.64,135.6c17.07,6.62,35.36,10.07,53.66,10.32
	c10.97,0.09,39.08,0.13,50.25,0.13c35.49,0.06,102.65,0.19,138.13,0.24c8.99-0.1,17.14,7.46,17.52,16.48
	c-0.23,232.53-0.65,672.12-0.47,904.01c0.06,9.23-0.13,24.66,0.14,33.61c1.48,34.64,24.82,66.81,57.21,79.13
	c10.67,4.18,22.18,6.22,33.59,6.16c22.7-0.72,141.79,0.81,167.43-0.18c12.85-0.09,42.05,0.06,54.42-0.07
	c15.7-0.02,31.41-4.14,44.98-12.06c26.13-14.89,43.58-43.54,44.71-73.59c-0.19-343.73-1.48-797.17-1.74-1181.05
	c-0.05-78.94-0.06-154.94-0.01-226.44c-0.32,404.77-0.64,956.31-1.82,1366.29c-0.04,13.84-0.08,27.52-0.12,41.03
	c-1.16,28.78-17.97,56.12-43.02,70.3c-12.99,7.53-28,11.37-42.98,11.37c-12.49,0.01-41.92-0.1-54.42-0.07
	c-25.02-0.53-144.8,0.55-167.43-0.17c-10.91,0.04-21.76-1.92-31.87-5.9c-27.19-10.38-47.64-35.61-52.86-64.07
	c-0.66-3.6-1.09-7.25-1.24-10.93l-0.11-4.07c-0.02-1.37-0.01-2.78-0.01-4.17l0-8.37c0,0,0.01-16.74,0.01-16.74
	c0.01-36.71,0.02-78.57,0.02-123.95c0.01-241.97-0.12-584.17-0.62-780.31c-0.27-5.73-3.12-11.02-7.37-14.7
	c-3.24-2.81-7.3-4.69-11.64-5.1c-1.52-0.15-4.92-0.13-6.47-0.12c-48.22,0.11-119.41,0.17-167.43,0.29
	c-11.11-0.02-22.23,0.34-33.26-1.07c-12.34-1.48-24.53-4.42-36.14-8.88c-36.32-13.6-65.8-41.54-82.53-75.84
	c-8.65-17.74-13.9-37.18-14.9-57.23c-0.33-6.52-0.3-14.23-0.29-20.86c0-8.51-0.16-18.63,0.48-27.11c0.54-4.62,0.9-9.86,1.91-14.42
	c1.01-5.84,2.4-11.64,4.15-17.35c3.93-12.88,9.64-25.29,16.73-36.61c11.95-18.73,27.92-34.81,46.66-46.76
	c9.1-5.9,19.83-10.72,29.58-15.44c9.86-4.54,20.32-10.11,30.03-14.85c79.52-40.72,155.37-88.37,228.03-140.27
	c12.05-8.79,35.47-26.26,47.19-34.76c29.13-21.56,64.35-34.85,100.49-37.74c11.12-0.94,22.3-0.56,33.46-0.64
	c19.09-0.04,44.13-0.02,68.77-0.01c22.21,0.01,44.09,0.01,60.99-0.03c3.66-0.04,7.27,0.16,10.82,0.58c0.13,0.02,0.26,0.03,0.38,0.04
	c0.43,0.05,0.86,0.11,1.3,0.17c0.33,0.05,0.67,0.09,1,0.14c0.3,0.05,0.6,0.1,0.91,0.15c0.43,0.07,0.86,0.14,1.28,0.21
	c0.32,0.06,0.64,0.12,0.95,0.18c0.38,0.07,0.76,0.14,1.14,0.22c0.52,0.1,1.03,0.22,1.55,0.33c0.16,0.03,0.31,0.07,0.47,0.1
	c29.66,6.77,53.96,29.06,63.69,57.56c3.01,8.82,4.62,18.23,4.56,27.96c0,0.02,0,0.03,0,0.04c0-0.01,0-0.03,0-0.04
	c0.08-12.47-2.57-24.39-7.37-35.21c-8.77-19.77-24.73-35.85-44.4-44.8c-11.12-5.06-23.42-7.85-36.27-7.73
	c-6.8-0.07-22.69,0.08-29.3-0.01c-2.37,0.03-4.81,0.05-7.32,0.06c-7.14,0.04-14.83,0.03-22.82,0c-27.51-0.1-58.78-0.46-85.02,0
	c-5.49,0.1-10.76,0.23-15.73,0.41c-1.03,0.04-2.05,0.07-3.05,0.12c-39.11,2.89-76.7,18.44-107.5,42.54c0,0-13.49,9.91-13.49,9.91
	c-26.02,19.59-55.24,39.69-82.15,57.77c-55.8,36.99-113.44,71.28-173.16,101.56c-7.19,3.67-15.22,7.53-22.49,11.15
	c-9.8,4.68-20.6,9.57-30.15,14.67c-22.01,12.41-40.94,30.16-54.56,51.46c-8.97,14.07-15.67,30.12-19.62,46.33
	c-1.08,3.65-1.67,8.76-2.47,12.39c-0.27,1.38-0.34,2.79-0.52,4.18l-0.47,4.19c0,0-0.23,2.09-0.23,2.09
	c-0.7,8.47-0.53,18.81-0.59,27.28C620.16,597.57,619.96,605.08,620.34,611.84z" fill="#325966" class="color325c66 svgShape"></path>
  <path d="M1378.79 304.13c0-3.88.01-7.74.01-11.59C1378.8 296.39 1378.79 300.26 1378.79 304.13zM974.94 741.43c0-.06.01-.12.01-.18 3.45-41.32 3.42-82.91-.01-124.23-.38 4.55-.71 9.11-1 13.67-.63 9.79-1.08 19.6-1.33 29.41C971.91 687.23 972.67 714.39 974.94 741.43z" fill="#325966" class="color325c66 svgShape"></path>
</svg>
