<?xml version="1.0" encoding="UTF-8"?>
<svg xmlns="http://www.w3.org/2000/svg" xmlns:svgjs="http://svgjs.com/svgjs" version="1.1" viewBox="0 0 288 288">
  <defs>
    <style>
      .cls-1 {
        fill: none;
      }

      .cls-2 {
        fill: #4d7e8e;
      }

      .cls-3 {
        fill: #578b9c;
      }

      .cls-4 {
        fill: #6297a8;
      }

      .cls-5 {
        fill: #28c6f9;
      }

      .cls-6 {
        fill: #2e7389;
      }
    </style>
  </defs>
  <!-- Generator: Adobe Illustrator 28.7.10, SVG Export Plug-In . SVG Version: 1.2.0 Build 236)  -->
  <g>
    <g id="SvgjsSvg1028">
      <g id="SvgjsG1030">
        <path class="cls-1" d="M216.2,252.1c0,0-.2.2-.3.3,0,0,.2-.2.3-.3ZM215.8,252.5c-.1.1-.2.2-.3.3.1-.1.2-.2.3-.3ZM199.7,258.5c.6,0,1.2,0,1.9,0-.3,0-.7,0-1,0h-.8ZM215,253.2c-.1,0-.2.2-.3.3.1,0,.2-.2.3-.3ZM215.4,252.8c-.1.1-.2.2-.3.3.1-.1.2-.2.3-.3ZM201.8,258.5s0,0,0,0c0,0,0,0,0,0ZM222.6,222.5s0,0,0,0c0,0,0,0,0,0ZM205.6,204.1c0,0,.1,0,.2,0,0,0-.1,0-.2,0ZM180.5,203.6h9.6c-2.9,0-6.2,0-9.6,0ZM206.4,204.3s0,0-.1,0c0,0,0,0-.1,0,0,0,.2,0,.2,0ZM222.8,225.2s0,0,0-.1c0-.1,0-.2,0-.4,0,0,0,0,0,0,0,.2,0,.3,0,.5ZM222.8,224.7c0,0,0-.2,0-.3,0,0,0-.2,0-.3,0,.2,0,.4,0,.5ZM200,203.6h-.5c-.9,0-1.9,0-2.9,0s-.1,0-.2,0h3.5ZM222.8,232.8v2.7c0-.3,0-.7,0-1.1,0-.5,0-1,0-1.5v-2.1c0-.2,0-.4,0-.5v2.4ZM222.7,223.5c0-.1,0-.2,0-.3,0,0,0,0,0-.1,0,0,0,0,0,0,0,.2,0,.3,0,.5ZM222.7,224.1c0,0,0-.1,0-.2,0,0,0-.2,0-.2,0,0,0,0,0-.1,0,.2,0,.4,0,.5ZM222.8,225.8h0s0,0,0,0h0s0,0,0,0Z"/>
        <path class="cls-5" d="M204.7,203.9c-.3,0-.6-.1-1-.2.3,0,.6,0,.8.1,0,0,0,0,.1,0ZM215.5,209.3c0,0,.2.2.2.2,0,0-.2-.2-.2-.2ZM216.3,210.1s0,0,.1.1c-.1-.2-.3-.3-.5-.4,0,0,.2.2.2.2,0,0,0,0,0,0ZM222.3,221.2c0,.1,0,.2,0,.3,0-.1,0-.2,0-.3Z"/>
        <path class="cls-3" d="M83.6,249.2h4.5c35.3-.4,72.2-.4,107.5-.3.6,0,2.7,0,3.3,0,3.2,0,6.3-1.4,8.8-3.5,2.7-2.8,4.8-7.6,5-15.6,0-.6,0-1,0-1.1h0s2.4,9,3.6,11.1c1.2,2.1,6.4-7.1,6.4-7.1v-2.4c0-1.8,0-3.6,0-4.6h0c0-.2,0-.4,0-.6,0-.2,0-.3,0-.5,0,0,0,0,0,0,0-.2,0-.4,0-.5,0,0,0,0,0,0,0-.2,0-.4,0-.5,0,0,0,0,0,0,0-.2,0-.3,0-.5,0-.2,0-.3,0-.5,0,0,0,0,0,0-.6-3.7-2.1-7.3-4.4-10.3,0,0,0,0,0-.1,0-.1-.2-.2-.3-.3,0,0-.1-.2-.2-.2,0-.1-.2-.2-.3-.3,0,0-.1-.2-.2-.2,0-.1-.2-.2-.3-.3,0,0-.1-.1-.2-.2-.1-.1-.2-.2-.3-.4,0,0,0,0,0,0-.9-.9-1.9-1.8-3-2.5-2-1.4-4.1-2.4-6.4-3.1-.1,0-.2,0-.3-.1,0,0-.2,0-.2,0-.1,0-.2,0-.3,0,0,0-.1,0-.2,0-.4,0-.7-.2-1.1-.2-1.4-.2-3-.3-4.6-.4h-3.5c-1.4,0-2.8,0-4,0-.7,0-1.5,0-2.3,0h-9.6c-2.9,0-5.9,0-8.9,0-.3.2-.4.3-.5.4,0,0,0,0,0,0h-15.8s0,0,0,0c-3.2,0-8.2.1-11.4.2,0,0-.2,0-.2-.2,0,0,0,0,0-.1.5-.5,1-.9,1.5-1.4,30.4-32.6,54.3-48.2,62.6-97.1,3.3-19.5-.3-35.6-5.9-48.1-2.9-4-6.2-7.7-9.9-10.9-11.2-9.9-25.7-15.8-40.6-16.5-1.7,0-3.6,0-5.4,0-4.9,0-11.2,0-16.1,0-17.9.5-35.3,8.8-46.9,22.4-.3.3-.7.9-1,1.2-.5.7-1.4,1.8-1.9,2.5-.5.7-1.3,1.9-1.8,2.5v.2c-.1,0-.6.8-.6.8-3.8,5.9-6.6,12.3-8.4,19.1-.8,3.2-1.4,6.4-1.7,9.6,0,.2,0,.6,0,.9,2.9,5.4,8.9,10.3,21.3,10.3,24.4,0,25.1-5.4,26.1-10.2,0-.3,0-.5,0-.8,0-6.3,5-12,11.2-12.8,1.3-.2,3.2,0,4.6,0,2.5,0,6.5.1,9.1.2-1.2,0-2.8,0-4.3,0,.2,0,.5,0,.7,0h2.1c-.2,0-.6,0-1.3,0,12.5,1.1,23.4,6.7,24.5,23.6,0,.3.1.6.2,1,.3,1.8.2,3.6.2,5.4-.2,10.5-4.2,20.9-11,28.9-17.4,18.8-50.3,53.5-68.1,72.6-1.1,1.2-6.2,6.6-7.4,7.8-.8.9-1.6,1.7-2.4,2.7-1.8,2.2-3.3,4.7-4.5,7.3,2,13.2,8.5,24.1,15.2,24.1ZM137.4,48.7h-11.8c-9.4,0-17.8,3.8-24,9.9-6.1,6.1-9.9,14.6-9.9,24s-.7,3.5-1.9,4.7c-1.2,1.2-2.9,1.9-4.7,1.9s-3.5-.7-4.7-1.9c-1.2-1.2-1.9-2.9-1.9-4.7,0-26,21.1-47.1,47.1-47.1h11.8c1.8,0,3.5.7,4.7,1.9,1.2,1.2,1.9,2.9,1.9,4.7,0,3.7-3,6.6-6.6,6.6ZM152.9,47.3c-2.6,0-4.7-2.1-4.7-4.7s2.1-4.7,4.7-4.7,4.7,2.1,4.7,4.7-2.1,4.7-4.7,4.7ZM122.3,245.5c-1.5,0-2.8-1.2-2.8-2.8s1.2-2.8,2.8-2.8,2.8,1.2,2.8,2.8-1.2,2.8-2.8,2.8ZM202.7,242.1c-1.9,0-3.4-1.5-3.4-3.4s1.5-3.4,3.4-3.4,3.4,1.5,3.4,3.4c0,1.9-1.5,3.4-3.4,3.4ZM201.9,208.4c.2,0,.4,0,.6,0,1.6.3,8.7,1.8,13.4,7.7,2,2.5-.5,6.3-3.6,5.3-.7-.2-1.5-.3-2.3-.2-3.4.5-1.5,5.1-2.5,8.7-.9,3.1-5.3,3.2-6.4.1-1.9-5.2-6.8-13.7-18.7-13.7h-47.7c-1.9,0-3.4-1.5-3.4-3.4v-1.3c0-1.9,1.5-3.4,3.4-3.4h67.3ZM170.7,85.2c2.8,0,5,2.2,5,5s-2.2,5-5,5-5-2.2-5-5c0-2.8,2.2-5,5-5ZM104.9,191.2c9.6-9.7,26.5-26.9,42-43,17.3-17.8,20.1-35.7,20.4-43.7,0-2.5,2.1-4.4,4.6-4.4h0c2.6,0,4.7,2.2,4.6,4.8-.4,7.2-1.8,21-7.7,32.9-7.5,15.2-48.3,52.8-56.2,60-.8.8-1.9,1.2-3.1,1.2h-1.3c-4.1,0-6.1-4.9-3.3-7.8ZM86,242.8c0-1.5,1.2-2.8,2.8-2.8h25.3c1.5,0,2.8,1.2,2.8,2.8h0c0,1.5-1.2,2.8-2.8,2.8h-25.3c-1.5,0-2.8-1.2-2.8-2.8h0Z"/>
        <path class="cls-5" d="M202.7,203.7c0,0,.2,0,.2,0,0,0-.2,0-.2,0ZM216.9,210.7c0,.1.2.2.3.3,0,0,.1.2.2.2,0,.1.2.2.3.3,0,0,.1.2.2.2,0,.1.2.2.3.3,0,0,0,0,0,.1,2,2.6,3.4,5.6,4.1,8.8-.9-4.1-3-7.8-5.8-10.7,0,0,.1.1.2.2,0,0,.1.1.2.2ZM203.1,203.7c.2,0,.4,0,.5,0-.2,0-.4,0-.5,0ZM206.6,204.4s0,0,0,0c0,0,0,0,0,0ZM215.1,209h0s0,0,0,0Z"/>
        <path class="cls-2" d="M95.3,106.8c-2.1-3.5-11.6-3.9-11.6-3.9h0s0,0,0,0h2.3c5.2-.2,10.7-.2,15.8-.3,1.5,0,3-.1,4.4-.6,5.2-1.6,8.9-6.6,8.8-12,0-.3,0-.6,0-.9-1,4.8-1.7,10.2-26.1,10.2s-18.4-4.9-21.3-10.3c0,.8-.1,1.7-.2,2.2,0,1.5-.1,3,0,4.4.2,3.8,1.8,7.5,4.4,10.3,3.2,3.5,7.8,5.5,12.5,5.4h4.5c4.1-1.3,7.6-3,6.6-4.6ZM137,75.8c-2.1.2-6,.9-9.1,3.4-3.5,2.9,2.9,3.6,8.4,5.3,1.4,0,3.4,0,4.3,0,.6,0,2.1,0,2.7,0,8.8-.1,16.6,6.4,18.2,14.9-1-16.9-12-22.5-24.5-23.6ZM136.2,75.8c-.2,0-.5,0-.7,0-.8,0-1.7,0-2.5,0h3.2ZM212.8,228.8h0s0,0,0,0h0ZM209.9,243.3c.2-.4.5-.8.6-1.2,0,0,0,.1,0,.3.9-1.4,1.6-3,1.9-4.6.3-1.5.3-3,.3-4.4,0,0,0-2.1,0-3.4-.2,8-2.3,12.8-5,15.6.8-.7,1.5-1.4,2.1-2.2ZM83.6,249.2h0,0c-6.7,0-13.2-11-15.2-24.1-1.8,3.9-2.8,8.1-3,12.4-.2,2.4,0,4.8.6,7.1,2,7.4,8.8,13.1,16.4,13.8.2,0,.7,0,.9,0,.4,0,.9,0,1.3,0,5.1,0,10.9,0,17.2,0,12-.9,24.8-2.1,27.9-3.3,6.1-2.4-46.1-5.9-46.1-5.9ZM219.4,248.1s0,0,0,.1c0,0,0,0,0-.1ZM219.7,247.6c0,0,0,.1-.1.2,0,0,0-.1.1-.2ZM222.4,240.6c0,.1,0,.3,0,.4,0-.1,0-.3,0-.4Z"/>
        <path class="cls-6" d="M222.7,237.9c0-.3,0-.6,0-.9,0-.1,0-.3,0-.4,0-.3,0-.6,0-1v-2.7s-5.2,9.2-6.4,7.1c-1.2-2.1-3.6-11.1-3.6-11.1v4.5c0,1.5,0,3-.2,4.5-.4,1.9-1.1,3.7-2.2,5.3-.5,2.3-3,8.2-15.1,10.5-15.2,2.9-.3,2.9,9.6,1.6,3.9-.5,7.8-1.6,10.9-2.7,0,0,0,0,0,0,0,0,.2-.2.3-.3.3-.3.6-.6.8-.9,3.3-3.6,5.3-8.2,5.7-13.1,0,0,0-.1,0-.2,0,0,0,0,0,0Z"/>
        <path class="cls-2" d="M220.3,246.6c0,0,0,.1-.1.2,0,0,0-.1.1-.2ZM220.5,246.2c0,0,0,.1,0,.2,0,0,0-.1,0-.2ZM222.7,237.9s0,0,0,0c0,0,0,.1,0,.2,0,.2,0,.4,0,.5,0-.8.1-1.6.1-2.5h0c0,.2,0,.5,0,.8,0,.3,0,.6,0,.9ZM220,247.1c0,0,0,.2-.2.3,0,0,.1-.2.2-.3ZM222.4,240.5c0-.3.1-.5.1-.8,0,.1,0,.3,0,.4,0,.1,0,.3,0,.4ZM220.9,245.2s0,0,0,0c0,0,0,0,0,0ZM208,105.3c-8.2,48.9-32.1,64.5-62.6,97.1,4.6-4.2,9.1-8.5,13.5-12.9,6.4-6.4,12.7-12.9,18.8-19.7,5.4-6.1,10.7-12.5,15.3-19.2,2-2.8,3.8-5.8,5.4-8.8-.7,1.4-1.6,3.2-2.4,4.6-.7,1.2-1.4,2.4-2.1,3.5,1.8-2.8,3.5-5.5,4.9-8.1-.2.5-6.9,16.7-22.9,36-16.1,19.4,13.6-10.8,20.7-17.8,8.2-12.6,13.8-26.9,16.5-41.7,1.3-7,1.8-14.2,1.8-21.4.2-14.2-4.3-28.3-12.6-39.7,5.6,12.5,9.2,28.6,5.9,48.1ZM171.7,203.6h0c-.2.2-.4.3-.4.4,0,0,.2-.2.5-.4Z"/>
        <path class="cls-2" d="M127.9,79.2c3-2.6,7-3.2,9.1-3.4.6,0,1.1,0,1.3,0h-5.3c-.8,0-1.6,0-2.2,0-1.1,0-2.9,0-3.9.1-4.6.5-8.8,3.8-10.3,8.1-.7,1.7-.9,3.6-.8,5.4,0,1.1,0,2.3-.3,3.4-1.1,5.4-5.9,9.6-11.3,10.2-.8,0-1.5,0-2.3,0-4.4,0-9.2-.1-13.6-.2-1.1,0-3.3,0-4.5,0h0s9.5.4,11.6,3.9c1,1.6-2.5,3.3-6.6,4.6h17s.9,0,.9,0c2,0,4.1-.3,6-.9,5.8-2,10.3-7.5,11-13.6,0-.5.1-1.2.1-1.7,0-2.8,1-5.6,3-7.5,1.7-1.8,4.1-2.9,6.6-3,.6,0,1.2,0,1.8,0,.3,0,.6,0,1.1,0-5.5-1.7-11.8-2.3-8.3-5.3ZM175.8,177.8c16.1-19.3,22.7-35.5,22.9-36-1.4,2.6-3,5.3-4.9,8.1-5.7,9.1-12.8,17.3-20,25.2-9.3,10.1-19.1,19.6-29.4,28.7,3.2,0,7.8,0,10.9.2h15.8s0,0,0,0c0,0,.2-.2.4-.4-4.2,0-8.2,0-11.4,0-.3,0-.6,0-.9-.2-.3-.2-.4-.4-.5-.8-.1-.7.5-1.1.9-1.5,7.1-7.4,16.5-17.1,23.6-24.6,2-2.2,4.1-4.4,5.9-6.7,2.2-2.7,4.4-5.7,6.4-8.6.3-.4.5-.8.8-1.2-7.1,7-36.8,37.2-20.7,17.8ZM209.9,243.3c.2-.3.4-.6.6-.9,0-.2,0-.3,0-.3-.2.4-.4.8-.6,1.2ZM211.1,255.9c-2.2,1.2-4.5,1.9-6.9,2.4,2.5-.4,4.8-1.2,6.9-2.4Z"/>
        <path class="cls-6" d="M195.3,253.6c12.1-2.3,14.6-8.2,15.1-10.5-2.5,3.7-6.8,6.2-11.4,6.4-.7,0-2.6,0-3.4,0-35.3.2-72.2.1-107.5-.2,0,0-4.4,0-4.5,0,0,0,52.3,3.5,46.1,5.9-3.1,1.2-15.9,2.4-27.9,3.3,27.6,0,63.9,0,86.7,0,2.2,0,8.6,0,10.8,0,.1,0,.2,0,.4,0h.8c.3,0,.7,0,1,0,0,0,.1,0,.2,0,0,0,0,0,0,0,4.7-.3,9.2-2.1,12.9-5,.1,0,.2-.2.3-.3,0,0,0,0,0,0,.1-.1.2-.2.3-.3,0,0,0,0,0,0,.1-.1.2-.2.3-.3h0c-3.2,1.1-7,2.2-10.9,2.7-9.9,1.3-24.9,1.3-9.6-1.6Z"/>
        <path class="cls-4" d="M137.4,35.5h-11.8c-26,0-47.1,21.1-47.1,47.1s.7,3.5,1.9,4.7c1.2,1.2,2.9,1.9,4.7,1.9s3.5-.7,4.7-1.9c1.2-1.2,1.9-2.9,1.9-4.7,0-9.4,3.8-17.8,9.9-24,6.1-6.1,14.6-9.9,24-9.9h11.8c3.7,0,6.6-3,6.6-6.6s-.7-3.5-1.9-4.7c-1.2-1.2-2.9-1.9-4.7-1.9ZM131.2,211.7v1.3c0,1.9,1.5,3.4,3.4,3.4h47.7c11.9,0,16.9,8.5,18.7,13.7,1.1,3,5.5,3,6.4-.1,1-3.6-.9-8.2,2.5-8.7.8-.1,1.6,0,2.3.2,3.1,1,5.6-2.8,3.6-5.3-4.7-5.8-11.8-7.4-13.4-7.7-.2,0-.4,0-.6,0h-67.3c-1.9,0-3.4,1.5-3.4,3.4Z"/>
        <circle class="cls-4" cx="152.9" cy="42.7" r="4.7"/>
        <circle class="cls-4" cx="202.7" cy="238.7" r="3.4"/>
        <path class="cls-4" d="M108.1,199h1.3c1.1,0,2.2-.4,3.1-1.2,7.9-7.2,48.7-44.8,56.2-60,5.9-11.9,7.3-25.7,7.7-32.9.1-2.6-2-4.8-4.6-4.8h0c-2.5,0-4.5,1.9-4.6,4.4-.3,8-3.2,25.9-20.4,43.7-15.5,16-32.5,33.3-42,43-2.9,2.9-.8,7.8,3.3,7.8Z"/>
        <circle class="cls-4" cx="170.7" cy="90.3" r="5"/>
        <path class="cls-4" d="M88.8,245.5h25.3c1.5,0,2.8-1.2,2.8-2.8h0c0-1.5-1.2-2.8-2.8-2.8h-25.3c-1.5,0-2.8,1.2-2.8,2.8h0c0,1.5,1.2,2.8,2.8,2.8Z"/>
        <circle class="cls-4" cx="122.3" cy="242.8" r="2.8"/>
        <path class="cls-6" d="M82.8,258.6c12.1.2,36.1,0,48.4,0,7.5,0,61.9,0,68.1,0,1.6,0,3.2,0,4.8-.3,2.4-.4,4.8-1.2,6.9-2.4,1.9-1,3.7-2.4,5.3-4,1.1-1.1,2.1-2.4,2.9-3.7,0,0,0,0,0-.1,0,0,.1-.2.2-.3,0,0,0-.1.1-.2,0,0,.1-.2.2-.3,0,0,.1-.2.2-.3,0,0,.1-.2.2-.3,0,0,0-.1.1-.2,0,0,0-.2.1-.3,0,0,0-.1,0-.2.2-.3.3-.6.4-.9,0,0,0,0,0,0,.6-1.4,1.1-2.8,1.4-4.2,0-.1,0-.3,0-.4,0,0,0,0,0,0,0-.1,0-.3,0-.4,0-.1,0-.3,0-.4,0-.3.1-.7.1-1,0-.2,0-.4,0-.5-.4,4.8-2.5,9.5-5.7,13.1-.3.3-.5.6-.8.9,0,0-.2.2-.3.3,0,0,0,0,0,0h0c-.1.1-.2.2-.3.3,0,0,0,0,0,0-.1.1-.2.2-.3.3,0,0,0,0,0,0-.1,0-.2.2-.3.3-3.6,3-8.2,4.7-12.9,5,0,0,0,0,0,0,0,0-.1,0-.2,0-.6,0-1.2,0-1.9,0-.1,0-.2,0-.4,0-2.2,0-8.5,0-10.8,0-22.8,0-59.1,0-86.7,0-6.3,0-12.1,0-17.2,0-.4,0-.9,0-1.3,0-.2,0-.7,0-.9,0-7.6-.7-14.4-6.4-16.4-13.8-.7-2.3-.8-4.7-.6-7.1.2-4.3,1.3-8.5,3-12.4,1.2-2.6,2.7-5.1,4.5-7.3.7-.9,1.5-1.8,2.4-2.7,1.2-1.3,6.3-6.7,7.4-7.8,17.8-19,50.7-53.8,68.1-72.6,6.8-8,10.8-18.4,11-28.9,0-1.8,0-3.6-.2-5.4,0-.3,0-.6-.2-1-1.6-8.5-9.4-15-18.2-14.9-.6,0-2.1,0-2.7,0-.9,0-2.9,0-4.3,0s-.8,0-1.1,0c-.6,0-1.2,0-1.8,0-2.5.1-4.9,1.2-6.6,3-2,2-3,4.8-3,7.5,0,.5,0,1.2-.1,1.7-.7,6.1-5.2,11.6-11,13.6-1.9.7-4,1-6,.9h-15.2s-1.2,0-2.7,0h-4.5c-4.7,0-9.3-1.9-12.5-5.4-2.6-2.8-4.2-6.5-4.4-10.3,0-1.5,0-3,0-4.4,0-.5.1-1.4.2-2.2,0-.4,0-.7,0-.9.4-3.2.9-6.5,1.7-9.6,1.8-6.8,4.6-13.2,8.4-19.1l.5-.8v-.2c.6-.7,1.5-1.9,1.9-2.5.5-.7,1.4-1.8,1.9-2.5.3-.3.7-.9,1-1.2,11.6-13.6,29.1-21.9,46.9-22.4,4.9-.1,11.2,0,16.1,0,1.7,0,3.6,0,5.4,0,14.9.7,29.4,6.6,40.6,16.5,3.7,3.3,7.1,6.9,9.9,10.9,8.3,11.5,12.8,25.5,12.6,39.7,0,7.1-.5,14.3-1.8,21.4-2.6,14.8-8.3,29.1-16.5,41.7-.3.4-.5.8-.8,1.2-2,2.9-4.1,5.9-6.4,8.6-1.9,2.3-3.9,4.6-5.9,6.7-7.1,7.4-16.5,17.1-23.6,24.6-.4.4-1,.8-.9,1.5,0,.3.2.6.5.8.3.2.6.2.9.2,3.2,0,7.2,0,11.4,0h0c2.9,0,5.9,0,8.9,0,3.4,0,6.7,0,9.6,0,.8,0,1.6,0,2.3,0,1.2,0,2.5,0,4,0,0,0,.1,0,.2,0-10.1,0-23.5,0-32.8,0h-3.6c-.1,0-.3,0-.4,0-.4,0-.8-.4-.9-.9,0-.3,0-.6.2-.8,7.3-7.7,16.9-17.5,24.3-25.2,1.2-1.3,2.5-2.7,3.6-4,4.7-5.4,8.9-11.3,12.5-17.5.5-.9,1.3-2.2,1.7-3.1.6-1.1,1.5-2.8,2.1-4,.6-1.2,1.4-2.9,1.9-4.1.4-.9,1-2.3,1.4-3.3.4-.9,1-2.4,1.3-3.3.5-1.2,1.1-3,1.5-4.2,1.2-3.6,2.2-7.5,3-11.3,1.5-7,2.3-14.2,2.5-21.4,0-2.3,0-4.8,0-7.2-.1-3.6-.6-7.2-1.3-10.7-5.7-28.8-31-51.2-60.3-53.2-1.8-.1-3.6-.2-5.4-.2-4.9,0-11.3,0-16.1,0-21.4,0-41.5,10.7-53.6,28.3-3.8,5.4-6.7,11.4-8.7,17.7-.3.9-.6,2.1-.9,3-.8,3.2-1.4,6.5-1.7,9.8,0,.7-.2,2.4-.2,3.1,0,1.5-.1,3,0,4.5.2,4,1.9,7.8,4.5,10.7,3.3,3.6,8.2,5.7,13,5.6h7.2c1.7,0,15.1,0,16.6,0,4.1-.2,8.1-1.9,11.1-4.8,2.9-2.7,4.8-6.5,5.3-10.4,0-.6.1-1.2.1-1.8,0-1.4.2-2.9.8-4.2,1.4-3.2,4.6-5.5,8.1-5.6.6,0,1.2,0,1.8,0,2.7,0,6.2,0,8.9,0,9.5.3,17.1,8.4,17,17.9,0,2.1,0,4.2-.2,6.2-.7,6.5-2.7,12.8-6,18.5-1.6,2.8-3.6,5.5-5.8,7.9-20.4,21.9-53.5,57.2-74.1,79.2-5.9,6-9.5,14.2-9.9,22.6-1,10.7,6.9,20.3,17.7,21.1ZM222.8,234.5c0-1.1,0-2.3,0-3.5v2.1c0,.5,0,1,0,1.5ZM222.7,223.7c0,0,0,.2,0,.2,0,0,0-.2,0-.2ZM222.6,223.1s0,0,0,.1c0,0,0,0,0-.1Z"/>
        <path class="cls-6" d="M196.6,203.6c1,0,2,0,2.9,0-1,0-1.9,0-2.9,0ZM222.8,224.7c0,.1,0,.2,0,.4,0-.1,0-.2,0-.4ZM222.7,224.1c0,0,0,.2,0,.3,0-.2,0-.3,0-.5,0,0,0,.1,0,.2,0,0,0,0,0,0ZM217.3,211.2c0,.1.2.2.3.3,0-.1-.2-.2-.3-.3ZM222.8,225.8h0c0-.2,0-.5,0-.7,0,0,0,0,0,.1,0,.2,0,.4,0,.6ZM222.7,223.6s0,0,0,.1c0-.2,0-.4,0-.5,0,.1,0,.2,0,.3,0,0,0,0,0,0ZM217.6,211.5c0,0,.1.2.2.2,0,0-.1-.2-.2-.2ZM222.8,224.7s0,0,0,0c0-.1,0-.2,0-.4,0,0,0,.2,0,.3,0,0,0,0,0,0ZM222.6,222.5s0,0,0,0c0,.2,0,.3,0,.5,0,0,0,0,0,0,0-.5-.1-1-.2-1.5,0-.1,0-.2,0-.3,0,0,0-.2,0-.3-.7-3.2-2.1-6.2-4.1-8.8,2.3,3,3.8,6.5,4.4,10.2ZM216.7,210.5c0,0,.1.1.2.2,0,0-.1-.1-.2-.2ZM206.8,204.4c2.3.7,4.5,1.7,6.4,3.1,1.1.7,2.1,1.6,3,2.5,0,0-.2-.2-.2-.2,0,0-.2-.2-.3-.2,0,0-.2-.2-.2-.2-.1-.1-.2-.2-.4-.3h0c-1.5-1.3-3.2-2.4-5-3.3-1.1-.5-2.3-1-3.4-1.3,0,0,0,0,0,0-.1,0-.2,0-.3,0,0,0,0,0,.1,0,.1,0,.2,0,.3.1ZM205.6,204.1c0,0,.1,0,.2,0,.1,0,.2,0,.3,0,0,0,0,0,.1,0-.5-.1-1-.3-1.6-.4,0,0,0,0-.1,0,.4,0,.7.1,1.1.2ZM216.9,210.7c0,.1.2.2.3.3,0-.1-.2-.2-.3-.3ZM216.7,210.5c0,0-.1-.1-.2-.2,0,0,0,0,0,0,0,0,0,0-.1-.1.1.1.2.2.3.4ZM217.1,211c0,0,.1.2.2.2,0,0-.1-.2-.2-.2ZM216.2,210s0,0,0,0c0,0,0,0,0,0ZM217.8,211.8c0,.1.2.2.3.3,0-.1-.2-.2-.3-.3ZM204.6,203.9c-.3,0-.6,0-.8-.1,0,0,0,0,0,0-.2,0-.4,0-.5,0,0,0-.1,0-.2,0,0,0-.2,0-.2,0-1,0-2-.1-3-.1h-.2c.2,0,.3,0,.5,0,1.6,0,3.1.1,4.6.4ZM218.1,212.1s0,0,0,.1c0,0,0,0,0-.1ZM222.8,230.4c0,.2,0,.4,0,.5v-5.1s0,0,0,0c0,1,0,2.7,0,4.6ZM222.7,237.9s0,0,0,0c0,0,0,0,0,0ZM222.8,237c0,.3,0,.6,0,.9,0-.3,0-.6,0-.9ZM222.8,236.6c0,.1,0,.3,0,.4,0-.3,0-.5,0-.8,0-.6,0-1.1,0-1.7,0,.4,0,.8,0,1.1,0,.4,0,.7,0,1ZM222.7,238.2c0,0,0-.1,0-.2,0,0,0,.1,0,.2ZM173.8,175.1c7.2-7.9,14.2-16.2,20-25.2.7-1.2,1.5-2.3,2.1-3.5.8-1.4,1.7-3.2,2.4-4.6-1.6,3.1-3.4,6-5.4,8.8-4.6,6.7-9.9,13.1-15.3,19.2-6,6.8-12.3,13.3-18.8,19.7-4.4,4.4-8.9,8.7-13.5,12.9-.5.5-1,.9-1.5,1.4,0,0,0,0,0,.1,0,0,0,.2.2.2,3.2,0,8.2-.1,11.4-.2,0,0,0,0,0,0-3.1,0-7.7-.1-10.9-.2,10.3-9,20.1-18.6,29.4-28.7ZM106.1,102c-1.4.5-2.9.6-4.4.6-5.1,0-10.7.1-15.8.2h-2.3c0,0,0,0,0,0,1.1,0,3.4,0,4.5,0,4.4,0,9.2.2,13.6.2.7,0,1.5,0,2.3,0,5.4-.5,10.2-4.8,11.3-10.2.3-1.1.3-2.3.3-3.4,0-1.8.1-3.7.8-5.4,1.6-4.3,5.7-7.6,10.3-8.1,1.1-.1,2.8-.1,3.9-.1.7,0,1.4,0,2.2,0,.8,0,1.6,0,2.5,0,1.6,0,3.1,0,4.3,0-2.5,0-6.5-.1-9.1-.2-1.4,0-3.2-.1-4.6,0-6.3.8-11.2,6.5-11.2,12.8,0,.3,0,.5,0,.8s0,.6,0,.9c0,5.4-3.7,10.4-8.8,12ZM212.8,228.8h0c0,.1,0,.5,0,1.1,0,1.3,0,3.4,0,3.4,0,1.5,0,3-.3,4.4-.3,1.7-1,3.2-1.9,4.6-.2.3-.4.6-.6.9-.6.8-1.3,1.6-2.1,2.2-2.4,2.1-5.5,3.4-8.8,3.5-.6,0-2.7,0-3.3,0-35.3-.2-72.2-.1-107.5.2h-4.5c0,0,0,0,0,0h0c0,0,4.5,0,4.5,0,35.3.3,72.2.4,107.5.2.7,0,2.7,0,3.4,0,4.6-.2,8.8-2.7,11.4-6.4,1.1-1.6,1.8-3.4,2.2-5.3.3-1.5.3-3,.3-4.5v-4.5h0Z"/>
      </g>
    </g>
  </g>
</svg>