<?xml version="1.0" encoding="UTF-8"?>
<svg xmlns="http://www.w3.org/2000/svg" version="1.1" viewBox="0 0 2000 2000">
  <defs>
    <style>
      .cls-1 {
        fill: none;
      }

      .cls-2 {
        fill: #6bc1dd;
      }

      .cls-3 {
        fill: #4d7e8e;
      }

      .cls-4 {
        fill: #578b9c;
      }

      .cls-5 {
        fill: #78d2ef;
      }

      .cls-6 {
        fill: #6297a8;
      }

      .cls-7 {
        fill: #2e7389;
      }
    </style>
  </defs>
  <!-- Generator: Adobe Illustrator 28.7.10, SVG Export Plug-In . SVG Version: 1.2.0 Build 236)  -->
  <g>
    <g id="Layer_1">
      <g>
        <path class="cls-1" d="M1056.5,1786.5c-2.3.3-4.6.7-7,1,2.3-.3,4.7-.7,7-1ZM1041.2,1788.7c-2.4.3-4.8.6-7.3.9,2.4-.3,4.8-.6,7.3-.9h.5-.5ZM1064.8,1785.2c-2.3.4-4.6.7-6.9,1.1,2.3-.3,4.6-.7,6.9-1.1ZM1099.8,1778.7h0,0ZM1081.4,1782.3c-2.1.4-4.3.8-6.4,1.2,2.2-.4,4.3-.8,6.4-1.2ZM1091.2,1780.5c-.5,0-1.1.2-1.6.3.5,0,1.1-.2,1.6-.3ZM1073.1,1783.8c-2.2.4-4.5.8-6.7,1.1,2.2-.4,4.5-.7,6.7-1.1Z"/>
        <path class="cls-4" d="M694.7,1622.9c-.9-.8-1.8-1.5-2.7-2.2-7.2-3.8-14.3-7.8-21.4-11.8,6.6,3.6,13.2,7.1,19.8,10.6-5.9-4.9-8.9-7.8-8.9-7.8,49.3,26.1,96.5,46.3,141.5,60.9.3,0,.6.2.9.3,11.1,3.3,22.1,6.3,32.9,9,28.3,6.8,57,11.8,85.9,14.9,46.2,4.5,93.1,3.2,138.6-6.1,34.3-7.1,67.9-18.8,98.9-35.2,39.7-21,75.5-49.3,106.9-81.4,89.6-91.7,130.8-221.2,124.9-348.1-.5-11.3-1.4-22.6-3.1-33.8,2.1,13.5,3.5,27.1,4.2,40.8-1.1-22.5-3.5-37-4.1-40.1,1.3,5.3,2.5,10.5,3.6,15.6-4.3-60.7-17.9-117.1-36.1-162.4-1.9-4.2-12.2-26.2-34.3-65.3-3.5-5.5-6.5-10.8-9.2-16h0c-9-15.5-13.4-29.8-14-43.3v-.2c-6.5-59.6,43.7-104,70.9-213.9,31.6-127.5-1.9-255.4-10.7-285.2-28.7-50.3-73.4-91.3-121.7-122.9-50.8-33.1-107.6-57.4-166.2-72.9-111.1-29.2-232.9-26.9-339,19.6-3.1,1.2-13.1,6.1-16.5,7.7-3,1.3-7.8,4-10.8,5.5s-7.6,4-10.7,5.8c-3.7,2.2-12.2,6.9-15.6,9.3-53.3,33-98.5,78.4-133.3,130.4-23.6,35.2-42.9,73.5-57.7,113.1-3.6,11.4-6.3,23.3-7.4,35.2-.9,8.5-.9,17.3-.3,25.9,9,15.7,23.3,31.7,45.2,46.7,45.3,31.1,79.3,43.4,108.6,41.2,2.7-.4,5.5-.9,8.1-1.7,39.3-10.3,76.5-52,103.2-81.6,11-12.3,21.2-25.4,32.2-37.6l5.1-5.1c3.2-3.2,6.5-6.2,9.9-9.2,25.1-23.9,53.8-39.2,98.6-36.6,31,.3,62.1,8.9,89,24.3h0c-.8-.3-6.1-2.4-14.3-4.6,57.5,31.1,75.1,93.8,77,143,5.1,25,1.6,50.7-14.7,72.6-35.1,46.6-107,58.6-161.8,62.5-5.9.4-11.8,1-17.5,2.9-25.3,7.8-41.5,32.1-40.5,58.4,0,41.1,0,122.6-.2,164.5v.6c10.1,7.2,21.9,11.3,35.3,11.3,37.3,0,69-1.4,100.1-.2,41.4-1.7,79.4,5,113,17.9,54.7,19.4,102.4,55.2,129.2,109.3,21.2,41.1,29.2,89.3,19.3,134.7-9.6,43.6-34.1,85.3-70,112.1-105.5,90.9-255.8,18.3-307.3-60.6-2-2.7-4-5.4-5.8-8.1-13.2-20.6-29-39.1-48.7-53.7-51.8-39.6-124.3-48.7-184.2-23-72.4,29.9-117.4,104.2-114,180.5,34.3,68.6,100.5,135.1,200,183.8v-.3ZM894.1,1011.2c-7.7,0-13.9-6.2-13.9-13.9s6.2-13.9,13.9-13.9,13.9,6.2,13.9,13.9-6.2,13.9-13.9,13.9ZM1129.5,749.4c-37.3,98.8-140.8,122-187.5,127.5-13.3,1.5-23.4,12.8-23.4,26.2v41.7c0,14.6-11.8,26.4-26.4,26.4h-3.1c-14.6,0-26.4-11.8-26.4-26.4v-88.3c0-14.1,11.1-25.6,25.2-26.2,139.4-6.7,180.4-69.1,192.2-99.8,1.9-5.1,5.4-9.3,9.7-12.2,4.3-2.9,9.5-4.6,14.9-4.6,18.4,0,31.2,18.4,24.7,35.6h.1ZM1146.5,337.1l-.7.7c-10.1,10.8-25.8,14-39.3,8-53.3-23.8-193-75-299.8-13-96.7,56.1-163.1,160.3-192.8,214.6-10,18.2-33.5,23.6-50.4,11.6h0c-13.2-9.3-18.1-26.6-11.9-41.5,26.5-63.5,108.8-224.4,275.3-266.4,143.7-36.2,254.8,3.4,310.1,31.6,20.5,10.5,25.2,37.6,9.5,54.4ZM1304.2,1060.3c11.5,0,20.9,9.3,20.9,20.9s-9.3,20.9-20.9,20.9-20.9-9.3-20.9-20.9,9.3-20.9,20.9-20.9ZM1202.2,389.4c-15.6,0-28.2-12.6-28.2-28.2s12.6-28.2,28.2-28.2,28.2,12.6,28.2,28.2-12.6,28.2-28.2,28.2ZM1143.1,1592.4c34-15.5,107-62.3,159.7-191.9,51.8-127.4,21.1-212.5.8-249.2-6.2-11.2-1.4-25.4,10.5-30.3l5.4-2.2c10.4-4.2,22.3.2,27.2,10.2,17.3,35,47.8,122.7,11.9,258.8-37.1,140.7-148.6,216.2-196.1,242.7-11.4,6.3-25.7,1.2-30.4-10.9h0c-4.1-10.5.7-22.5,11-27.1h0ZM918.6,1461.7c13.5,0,24.5,11,24.5,24.5s-11,24.5-24.5,24.5-24.5-11-24.5-24.5,11-24.5,24.5-24.5ZM553.8,1406l-.4-.6c-6.3-8.7-7.7-20.2-3.4-30.1,56.2-126.8,197.2-102.2,247.8-28.9,28.3,41.1,50,64.2,64,76.9,10.3,9.3,13,24.3,6.8,36.6l-6.7,13.1c-7.2,14.1-24,20.5-38.6,14.5-81.5-33.8-83.4-135.9-152.7-121.2-33.9,7.2-54.9,23.9-67.8,40.2-12.7,16.1-37,16.1-49.1-.5h.1Z"/>
        <path class="cls-3" d="M742.2,614.7c-7.6,7.5-15.5,14.8-23.7,21.6-18.2,14.9-39,28.8-62.9,31.8-14.2,1.9-28.5-.5-42-4.7,13.2,3.3,27,5,40.5,3.1-29.3,2.2-63.3-10.2-108.6-41.2-22-15.1-36.3-31-45.2-46.7,0,1.4.2,2.7.3,4.1.2,2.7.8,6.2,1.1,8.9,1.4,9.8,4.1,19.7,7.3,29.1l1.1,2.8,2.1,5.6c14.7,35.1,41.8,64.9,75.8,82,24.1,12.3,50.8,18.1,77.3,17.4,9.9-7.4,21.5-16.7,34.2-28.3,65-58.9,65-97.4,42.9-85.5h-.2ZM825.4,521.3c15.5-12.1,33.4-19.4,52.1-23,8.9-2,18-3.2,27.2-3.5h6.3c-44.7-2.6-73.4,12.8-98.6,36.6,3.9-3.3,7.9-6.4,11.9-9.3.4-.2.7-.4,1-.7h0ZM985.6,514.3c-27.1-7.6-85.9-17.7-114.7,26.5-38.1,58.6-6.8,4.1,45,0,46.8-3.7,99.1,22.7,121.8,62.9,12.1,16.1,21,34.6,24.9,53.5-1.9-49.2-19.5-111.9-77-142.9h0ZM1154.7,1403.9c-6.2,4.6-12.7,8.8-19.5,12.4-11.6,6-24.5,10.2-37.7,10,14.8-.7,29-6,42.1-14-26.7,14.5-48.4,14-48.4,14,114-46.3,116.2-190.7,79.4-113.1-14.9,31.5-35.7,57.6-59.3,75.8-28.4,24.4-65.7,39.8-107.1,40.7-26.6.4-53.1-6.4-76.9-18-32-15.5-58.8-40.1-80-68.4,51.5,78.9,201.9,151.5,307.3,60.6h.1ZM1118.9,1134.8c31.3,35.4,54.5,15-19.1-43.6-71.4-56.9-139.8-60.7-143.8-60.8h-.2,0,0c2.5-.2,5-.3,7.4-.4-31-1.2-62.7.2-100.1.2s-25.1-4.1-35.3-11.3c0,7.7,1.3,15.4,4.3,22.5,9.8,24.3,36,39.3,61.8,35.7,13.2-2.6,26.2-4.3,39.2-5,83.6-19.8,156.5,29.8,185.7,62.7h0ZM1403.6,1000c-23.2-36.7-58.6-84.6-45-38.3,13.2,44.9,18.1,82.4,18.3,84.7,0,0-.2-.3-.3-.6,18.2,45.3,31.8,101.7,36.1,162.4,32.7,151.4,4.5,254.1-71.8,350.6-79,99.9-160.8,186.2,8.2,39.1,121.9-106.1,149.4-251.6,155.3-324.3-5-83.2-29-165.6-69.8-237.8-8.9-7.6-19.8-18-31-35.8h0ZM1342.3,980.5c-2.9-5-5.9-10.4-9.2-16,2.6,5.2,5.7,10.5,9.2,16ZM929.5,1739.6c-119.4-29.9-203.8-91.4-234.8-116.8-99.5-48.7-165.7-115.2-200-183.8.6,13.3,2.7,26.6,6.3,39.8,4.2,15.7,10.9,30.6,17.6,45.3,3.2,7.1,7.1,14.9,10.6,21.9,21.3,41.5,47.8,80.6,79.8,114.6.3.3.6.6.9.9,27.1,17.4,61.4,35.9,104.3,53.6,152.6,62.7,367.8,62.7,215.2,24.5h.1ZM1390,707c-27.2,109.9-77.4,154.2-70.9,213.9-1.4-33.8,21.1-62.2,55.9-89.9,41.7-33.1,55.8-148.6,59.1-181.8-.9-39.7-6.4-79.4-15.8-117.7-4.7-19.3-10.4-39.6-16.8-58.4-5.5-18-13.1-35.1-22.2-51.2,8.8,29.8,42.3,157.7,10.7,285.2h0Z"/>
        <path class="cls-5" d="M857,1681.8c-10.8-2.7-21.8-5.7-32.9-9,2.3.8,4.6,1.5,6.9,2.2,8.6,2.4,17.3,4.7,26,6.8Z"/>
        <path class="cls-7" d="M1346.7,1664.5c-.6.5-1.1.9-1.6,1.4.6-.5,1.1-.9,1.6-1.4ZM1041.8,1788.6c2.6-.3,5.2-.7,7.8-1.1,2.3-.3,4.7-.7,7-1,.5,0,.9,0,1.4-.2,2.3-.3,4.6-.7,6.9-1.1.5,0,1-.2,1.5-.2,2.3-.4,4.5-.7,6.7-1.1.6,0,1.3-.2,1.9-.3,2.2-.4,4.3-.8,6.4-1.2,2.7-.5,5.4-1,8.2-1.6.5,0,1.1-.2,1.6-.3,2.8-.6,5.7-1.1,8.5-1.7h0c84-17.7,165.4-50.3,233.3-103.3,9.3-7.4,19.2-15.7,27.9-23.7,7.1-6.6,15.1-14.4,21.7-21.4l2.1-2.2c.7-.7,1.4-1.5,2-2.3l8.1-9.1c3.6-4.1,8.1-9.8,11.7-14,27.8-34.9,50.1-74.3,66.3-115.9,25.9-67.7,35.9-140.8,31.5-213.3-5.9,72.8-33.4,218.2-155.3,324.3-168.9,147.1-87.2,60.8-8.2-39.1,76.3-96.5,104.5-199.2,71.8-350.6-1.1-5.2-2.3-10.3-3.6-15.6.6,3.1,3,17.6,4.1,40.1,1.7,31.6,0,63.3-4.2,94.6-15.4,114.1-71.7,218.4-162.5,289.9-10.8,8.7-22.9,17.4-34.4,25.1-157.4,102.7-362.2,62.4-520-21.7.8.7,1.7,1.4,2.7,2.2,31,25.3,115.4,86.9,234.8,116.8,152.6,38.2-62.7,38.2-215.2-24.5-42.9-17.7-77.2-36.1-104.3-53.6,2.9,2.9,7.2,7.4,9.7,10.1,4,3.6,11.4,11.1,15.6,14.6,4.1,3.4,9.6,8.6,13.9,11.9,7.8,6.4,16,12.5,24.3,18.4l2.5,1.8,1.2.9,1.3.8c5.7,3.6,14.7,9.8,20.6,13l10.5,6.1c5.2,2.9,10.9,5.6,16.2,8.5,94.9,47.3,204.2,54.8,308.2,42.1,2.4-.3,4.8-.6,7.3-.9h.5v-.2ZM1341.5,1668.8h0Z"/>
        <path class="cls-4" d="M1292,1704.2c-2.6,1.6-5.2,3.2-7.8,4.8,2.6-1.6,5.2-3.2,7.8-4.8ZM1298.4,1700.1c-1.4.9-2.8,1.8-4.2,2.7,1.4-.9,2.8-1.8,4.2-2.7ZM1284,1709.1c-47.9,28.6-100.4,49-154.7,62.8,59.2-15,110.5-36.5,154.7-62.8ZM1128.3,1772.2c-2.7.7-5.4,1.3-8.1,2,2.7-.7,5.4-1.3,8.1-2ZM772.9,1767.5c-.7-.2-1.4-.5-2.1-.7.7.2,1.4.5,2.1.7ZM1004.2,1792.7c-1.9.2-3.8.3-5.7.4,1.9,0,3.8-.3,5.7-.4ZM1012.3,1791.9h-.9.9ZM1104.8,1777.7c-.2,0-.3,0-.5,0,.2,0,.3,0,.5,0ZM681.7,1722.2c2.4,1.6,4.8,3.2,7.2,4.7,0,0-.3-.2-.4-.3,0,0-3.9-2.5-6.8-4.4h0ZM830.9,1675c-2.3-.7-4.6-1.4-6.9-2.2-.3,0-.6-.2-.9-.3-45-14.6-92.2-34.8-141.5-60.9,0,0,3.1,2.9,8.9,7.8,44.8,23,91.9,41.9,140.4,55.6ZM705.7,1736.9c-.4-.2-.9-.5-1.3-.8.4.2.9.5,1.3.8ZM628.2,1679.9c-.8-.8-1.8-1.7-2.8-2.6.9.9,1.8,1.7,2.8,2.6ZM669.4,1713.7c-2.4-1.8-4.9-3.5-7.3-5.3,2.4,1.8,4.8,3.6,7.3,5.3ZM637.9,1688.7c.8.7,1.5,1.3,2.3,2,0,0-.3-.2-.4-.4-.6-.5-1.2-1.1-1.9-1.6h0ZM1114.5,1775.5c-.9.2-1.9.4-2.8.7.9-.2,1.9-.4,2.8-.7ZM697.9,1732.4c1.7,1,3.4,2,5.2,3-1.4-.8-2.7-1.6-4.1-2.4-.4-.2-.7-.4-1.1-.6h0ZM775.2,1768.3c61.4,21.3,134.6,31.4,221.9,24.9-74.8,5.5-151.3-.6-221.9-24.9h0ZM956,1030.3c40.3-1.7,82,3.9,120.3,17.5-33.6-12.9-71.6-19.6-113-17.9-2.5,0-5,.2-7.4.4h0Z"/>
        <path class="cls-7" d="M1170.6,1313.2c36.8-77.6,34.7,66.8-79.4,113.1,0,0,21.7.4,48.4-14,20.6-12.6,38.4-32,50.9-50.3,49.9-73.8,42.6-165.2-9.9-235.5-35.4-47.1-90.4-75.4-147.1-87.8-25.4-5.6-51.4-8.8-77.4-8.4,3.9.2,72.4,4,143.8,60.8,73.6,58.6,50.4,79,19.1,43.6-29.2-33-102.1-82.5-185.7-62.7,59.1-3.4,114.9,13.3,161.2,55.2,24.1,22,44.8,48.3,58.1,78.2,31.6,68.9,9.1,140.4-41.2,183.6,23.6-18.2,44.3-44.3,59.3-75.8h-.1ZM1375,831c-34.9,27.7-57.4,56.1-55.9,89.9v.2c.6,13.5,5,27.8,14,43.3h0c3.3,5.6,6.3,11,9.2,16,22.2,39.1,32.4,61.2,34.3,65.3,0,.3.2.5.3.6-.3-2.3-5.1-39.8-18.3-84.7-13.6-46.3,21.8,1.6,45,38.3,11.2,17.8,22.1,28.2,31,35.8-9.3-16.4-19.4-32.2-30.3-47.5-7.4-10.6-16.5-21-24.4-31.2-10.2-14.2-14.8-32.2-12.6-49.6,1-8.2,3.3-16.2,7.1-23.5,3.8-7,8.3-14.1,12-21.2,35.2-65.7,49.5-139.7,47.9-213.7-3.3,33.1-17.5,148.7-59.1,181.8l-.2.2ZM915.9,540.8c-51.8,4.1-83.1,58.6-45,0,28.8-44.2,87.6-34.1,114.7-26.5,8.2,2.3,13.5,4.3,14.3,4.6-32.4-16.2-69.4-24-105.4-19.6-28.9,3.5-56.3,16.2-78.2,35.2-5.1,4.3-10.5,9.6-15.1,14.4-19.1,22.2-38,45-58.9,65.7,22.2-11.8,22.1,26.7-42.9,85.5-12.7,11.5-24.3,20.8-34.2,28.3,26.1-.7,52.1-7.6,75.3-20.8,18.3-10.4,34.5-24.3,47.5-40.8,19.9-25.7,41.6-50.4,66.7-71.5,30-24.9,71.9-50.8,112.5-41.5,26.9,6.9,52.4,25.8,70.6,49.9-22.7-40.3-75-66.6-121.8-62.9h0Z"/>
        <path class="cls-2" d="M877.5,498.3c-18.7,3.6-36.6,10.9-52.1,23,15.9-11,33.5-18.8,52.1-23Z"/>
        <path class="cls-6" d="M1137,282.7c-55.3-28.2-166.3-67.9-310.1-31.6-166.5,42-248.8,202.9-275.3,266.4-6.2,14.9-1.3,32.1,11.9,41.5h0c16.9,12,40.4,6.5,50.4-11.6,29.7-54.2,96.2-158.5,192.9-214.6,106.7-61.9,246.5-10.8,299.8,13,13.4,6,29.2,2.8,39.3-8l.7-.7c15.7-16.8,11-44-9.5-54.4h-.1Z"/>
        <circle class="cls-6" cx="1202.2" cy="361.2" r="28.2"/>
        <path class="cls-6" d="M1104.8,713.8c-5.5,0-10.6,1.7-14.9,4.6-4.3,2.9-7.7,7.1-9.7,12.2-11.8,30.7-52.8,93-192.2,99.8-14.1.7-25.2,12.1-25.2,26.2v88.3c0,14.6,11.8,26.4,26.4,26.4h3.1c14.5,0,26.4-11.8,26.4-26.4v-41.7c0-13.4,10.1-24.7,23.4-26.2,46.7-5.5,150.2-28.8,187.5-127.5,6.5-17.2-6.3-35.6-24.7-35.6h-.1Z"/>
        <circle class="cls-6" cx="894.1" cy="997.2" r="13.9"/>
        <path class="cls-6" d="M602.9,1406.4c12.9-16.3,33.8-33,67.8-40.2,69.3-14.7,71.2,87.4,152.7,121.2,14.6,6,31.4-.4,38.6-14.5l6.7-13.1c6.3-12.3,3.5-27.3-6.8-36.6-14-12.6-35.7-35.8-64-76.9-50.6-73.3-191.6-97.9-247.8,28.9-4.4,9.9-3,21.4,3.4,30.1l.4.6c12.1,16.6,36.4,16.6,49.1.5h-.1ZM918.6,1510.8c13.5,0,24.5-11,24.5-24.5s-11-24.5-24.5-24.5-24.5,11-24.5,24.5,11,24.5,24.5,24.5ZM1132.1,1619.5c4.7,12.1,19,17.3,30.4,10.9,47.5-26.5,159-102,196.1-242.7,35.9-136.1,5.4-223.8-11.9-258.8-4.9-10.1-16.9-14.5-27.2-10.2l-5.4,2.2c-11.9,4.9-16.7,19-10.5,30.3,20.3,36.6,51,121.8-.8,249.2-52.7,129.7-125.7,176.5-159.7,191.9-10.3,4.7-15,16.6-11,27.1h0ZM1304.2,1102.1c11.5,0,20.9-9.3,20.9-20.9s-9.3-20.9-20.9-20.9-20.9,9.3-20.9,20.9,9.3,20.9,20.9,20.9Z"/>
        <path class="cls-3" d="M1004.2,1427.6c-28.3.6-56.4-7.4-81.4-20.3-32.3-17.1-59-43.2-79.9-73-4.6-6.7-9.1-13.5-14.2-19.9-10.1-12.8-22-24.2-35-34-45.7-34.5-107.3-46.4-162.4-30.7-98.5,26.6-158.1,131.1-130.8,229.4,4.7,17.7,12.7,34.3,20.3,50.9,11.4,23.8,24.2,47,39,68.9,15.7,23.6,33.6,46.1,53.4,66.4l4.2,4.4,2.1,2.2c.8.8,3.4,3.2,5.9,5.6,1,.9,1.9,1.8,2.8,2.6,1.1,1,2,1.9,2.4,2.3,2,2,4.8,4.3,7.3,6.5.7.6,1.3,1.1,1.9,1.6,0,0,.3.2.4.4,7,6.2,14.4,12.1,22,17.7,2.4,1.8,4.8,3.6,7.3,5.3,2.1,1.5,4.3,3.1,6.4,4.6.6.4,1.9,1.4,2.5,1.7,0,0,1.5,1,3.4,2.2,3,1.9,6.8,4.4,6.8,4.4,0,0,.3.2.4.3,2.7,1.8,6,3.8,9,5.5.4.2.7.4,1.1.6,1.4.8,2.7,1.6,4.1,2.4.4.2.9.5,1.3.8s.9.5,1.3.8c20.9,12,42.8,21.9,65.2,29.9.7.2,1.4.5,2.1.7l2.2.8c70.5,24.3,147.1,30.4,221.9,24.9.5,0,.9,0,1.4,0,1.9,0,3.8-.3,5.7-.4,2.4-.2,4.9-.4,7.3-.7h.9c9.7-.9,19.3-2,28.9-3.3-2.4.3-4.8.6-7.3.9-104,12.6-213.3,5.2-308.2-42.1-5.3-2.8-11-5.5-16.2-8.5l-10.5-6.1c-5.9-3.2-14.9-9.4-20.6-13l-1.3-.8-1.2-.9-2.5-1.8c-8.3-5.8-16.5-11.9-24.3-18.4-4.3-3.3-9.8-8.4-13.9-11.9-4.1-3.5-11.6-10.9-15.6-14.6-2.6-2.6-6.9-7.2-9.7-10.1-.3-.3-.6-.6-.9-.9-32-34-58.5-73.1-79.8-114.6-3.5-7-7.4-14.8-10.6-21.9-6.7-14.8-13.5-29.6-17.6-45.3-3.6-13.2-5.7-26.5-6.3-39.8-3.4-76.2,41.5-150.6,113.9-180.5,59.9-25.7,132.4-16.6,184.2,23,19.7,14.6,35.5,33.1,48.7,53.7,1.9,2.7,3.8,5.4,5.8,8.1,21.2,28.3,48,52.9,80,68.4,23.8,11.7,50.3,18.5,76.9,18,41.4-.9,78.7-16.3,107.1-40.7,50.3-43.2,72.8-114.7,41.2-183.6-13.4-29.9-34.1-56.2-58.1-78.2-46.3-41.8-102.1-58.6-161.2-55.2-12.9.7-26,2.4-39.2,5-25.9,3.6-52.1-11.5-61.8-35.7-3-7.1-4.3-14.8-4.3-22.5s0-.4,0-.6c0-41.9.2-123.4.2-164.5-1-26.3,15.2-50.6,40.5-58.4,5.6-1.9,11.5-2.5,17.5-2.9,54.9-3.9,126.7-16,161.8-62.5,16.3-21.9,19.8-47.6,14.7-72.6-3.9-18.9-12.8-37.4-24.9-53.5-18.2-24.2-43.7-43-70.6-49.9-40.5-9.3-82.5,16.6-112.5,41.5-25.1,21.1-46.8,45.8-66.7,71.5-13,16.5-29.3,30.4-47.5,40.8-23.2,13.2-49.2,20.1-75.3,20.8-26.5.7-53.2-5.1-77.3-17.4-34-17.2-61.1-47-75.8-82l-2.1-5.6-1.1-2.8c-3.2-9.4-5.9-19.3-7.3-29.1-.3-2.7-1-6.3-1.1-8.9-.1-1.3-.2-2.7-.3-4.1-.6-8.6-.6-17.3.3-25.9,1-11.9,3.8-23.8,7.4-35.2,14.8-39.7,34.1-78,57.7-113.1,34.8-52,80-97.4,133.3-130.4,3.5-2.3,12-7.1,15.6-9.3,3-1.8,7.5-4.2,10.7-5.8,3-1.5,7.8-4.2,10.8-5.5,3.4-1.6,13.4-6.4,16.5-7.7,106-46.6,227.9-48.8,339-19.6,58.6,15.4,115.4,39.7,166.2,72.9,48.3,31.6,93,72.6,121.7,122.9,9.2,16.1,16.8,33.2,22.2,51.2,6.4,18.8,12.2,39.1,16.8,58.4,9.4,38.4,14.9,78,15.8,117.7,1.7,74-12.6,148-47.9,213.7-3.7,7.1-8.2,14.2-12,21.2-3.7,7.3-6.1,15.3-7.1,23.5-2.2,17.4,2.4,35.3,12.6,49.6,7.9,10.1,17,20.6,24.4,31.2,11,15.2,21.1,31.1,30.3,47.5,40.8,72.2,64.8,154.6,69.8,237.8,4.4,72.5-5.7,145.6-31.5,213.3-16.2,41.6-38.5,81-66.3,115.9-3.6,4.3-8.1,9.9-11.7,14l-8.1,9.1c-.7.8-1.3,1.5-2,2.3l-2.1,2.2c-6.6,7-14.6,14.8-21.7,21.4-8.7,7.9-18.6,16.2-27.9,23.7-67.9,53-149.3,85.7-233.3,103.3h0c-2.8.6-5.7,1.2-8.5,1.7-.5,0-1.1.2-1.6.3-2.7.5-5.4,1-8.2,1.6-2.2.4-4.3.8-6.4,1.2-.6,0-1.3.2-1.9.3-2.2.4-4.5.8-6.7,1.1-.5,0-1,.2-1.5.2-2.3.4-4.6.7-6.9,1.1-.5,0-.9,0-1.4.2-2.3.3-4.7.7-7,1-2.6.4-5.2.7-7.8,1.1h-.5c21.1-2.7,42.1-6.3,63-10.9.2,0,.3,0,.5,0,2.3-.5,4.6-1,6.9-1.5.9-.2,1.9-.4,2.8-.7,1.9-.4,3.8-.9,5.8-1.3,2.7-.7,5.4-1.3,8.1-2,.4,0,.7-.2,1.1-.3,54.2-13.8,106.7-34.3,154.7-62.8h.2c2.6-1.6,5.2-3.2,7.8-4.8.8-.5,1.5-.9,2.2-1.4,1.4-.9,2.8-1.8,4.2-2.7,11.9-7.7,23.5-15.8,34.8-24.6,2.7-2.2,5.4-4.4,8.2-6.7h0c1.2-1,2.3-1.9,3.5-2.9s1.1-.9,1.6-1.4c5-4.2,9.9-8.4,14.4-12.6,7-6.6,15.1-14.4,21.7-21.4l2.1-2.2c.7-.7,1.4-1.5,2-2.3l8.1-9.1c3.7-4.1,8.2-9.9,11.7-14,29.1-36.5,52.4-77.8,68.6-121.6,60.5-164,29.5-358.3-73.6-498.7-6.5-8.8-14-17.7-20.8-26.3-14.8-20.5-16.9-49-5.3-71.5,69-112.7,74.3-246.5,40.6-371.8-.8-3-2.5-8.8-3.2-11.8-1.9-6.7-5-16.7-7.1-23.4-2.2-6.5-5.6-16.7-8-23.1-32.8-85.7-111.8-148.6-191.6-189.2-50.9-25.6-105.8-43.6-161.8-53.8-96.1-17.2-197.9-10.9-288.3,27.4-120.6,50.3-204.3,150.6-250.9,270.8-8.7,23.1-12.1,48.3-9.8,72.9v1.5c.1,0,.3,1.5.3,1.5l.4,3.1c1,8.2,2.8,16.2,5,24.2l1.9,5.9c.3,1,.6,2,1,2.9l1.1,2.9,2.2,5.8,2.5,5.6c15,32.8,41,60.5,72.8,77.5,42.8,22.9,95.7,25.9,140.6,7.3,26.8-10.8,50.6-28.8,68.5-51.4,5-6.2,10-12.9,15.2-19,25.8-30.7,54.9-60,90.4-79.2,20.9-10.8,45-19,68.5-13.3,38.2,9.9,69.9,42.6,85.2,78.2,16.8,39.1,10.2,80.1-23.4,107.6-34.3,27.9-80.9,37.3-123.9,42.1-9,1.1-18.3,1.4-27.4,2.5-19.8,3-37.8,16.2-46.3,34.3-4.7,9.4-6.5,20-6.3,30.5,0,41.5,0,122.2.2,164.5-.8,36.5,31.2,65.9,67.3,62.7,5.1-.4,10.2-1.6,15.2-2.4,10-1.6,20-2.7,30.1-3.2,48.5-2.7,97.4,10.2,136.8,39,31.9,23.2,60.2,56.2,76.4,92.2,49,106.2-32.9,218.4-145.7,221v.2Z"/>
        <path class="cls-7" d="M1412.1,1225.7c5.9,126.9-35.3,256.4-124.9,348.1-31.4,32.1-67.2,60.4-106.9,81.4-30.9,16.5-64.6,28.1-98.9,35.2-45.5,9.3-92.4,10.6-138.6,6.1-28.9-3-57.6-8.1-85.9-14.9-8.7-2.1-17.4-4.4-26-6.8-48.5-13.7-95.7-32.6-140.4-55.6-6.7-3.4-13.3-6.9-19.8-10.6,7,4,14.2,8,21.4,11.8,157.8,84.2,362.6,124.5,520,21.7,11.6-7.7,23.7-16.4,34.4-25.1,90.8-71.6,147.1-175.8,162.5-289.9,4.1-31.3,5.9-63.1,4.2-94.6-.7-13.7-2.1-27.3-4.2-40.8,1.7,11.2,2.5,22.5,3,33.8v.2ZM613.5,663.4c13.5,4.2,27.9,6.6,42,4.7,23.9-3,44.7-16.9,62.9-31.8,8.3-6.8,16.2-14.1,23.7-21.6,21-20.7,39.8-43.5,58.9-65.7,4.7-4.8,10-10.1,15.1-14.4,22-18.9,49.3-31.6,78.2-35.2,36-4.4,73,3.4,105.4,19.6h0c-26.9-15.4-57.9-24-89-24.3h-6.3c-9.2.3-18.3,1.5-27.2,3.5-18.6,4.2-36.3,12-52.1,23-.3.2-.7.5-1,.7-4.1,3-8.1,6.1-11.9,9.3-3.4,2.9-6.8,5.9-9.9,9.2l-5.1,5.1c-11,12.2-21.3,25.3-32.2,37.6-26.6,29.7-63.9,71.3-103.2,81.6-2.7.7-5.4,1.3-8.1,1.7-13.5,2-27.3.3-40.5-3.1h.3Z"/>
        <path class="cls-7" d="M956,1030.3h0,.2c26-.3,52.1,2.8,77.4,8.4,56.7,12.4,111.8,40.7,147.1,87.8,52.5,70.3,59.8,161.7,9.9,235.5-12.5,18.3-30.2,37.7-50.9,50.3-13.1,8-27.3,13.4-42.1,14,13.2.2,26-4,37.7-10,6.8-3.7,13.3-7.8,19.5-12.4,36-26.8,60.5-68.4,70-112.1,9.9-45.4,1.9-93.6-19.3-134.7-26.8-54.1-74.5-89.9-129.2-109.3-38.3-13.6-80-19.2-120.3-17.5h.1Z"/>
      </g>
    </g>
  </g>
</svg>