<svg xmlns="http://www.w3.org/2000/svg" xml:space="preserve" id="number4" x="0" y="0" version="1.1" viewBox="0 0 2000 2000" enable-background="new 0 0 2000 2000">
  <path d="M1332.66 460.07c10.51 1.39 20.54 4.28 29.87 8.45C1353.17 464.29 1343.13 461.38 1332.66 460.07zM1246.34 463.44c.02-.01.04-.01.06-.02C1246.38 463.42 1246.36 463.43 1246.34 463.44zM1420.52 531.63c.07.19.14.38.2.58C1420.65 532.02 1420.59 531.82 1420.52 531.63zM1426.54 567.3c.11-11.88-1.86-23.45-5.56-34.32C1424.59 543.76 1426.54 555.3 1426.54 567.3z" fill="none"></path>
  <path d="M1418.97 527.46c.05.13.1.27.16.4C1419.08 527.73 1419.02 527.59 1418.97 527.46zM1215.48 478.06c.35-.24.69-.47 1.04-.71C1216.17 477.58 1215.83 477.82 1215.48 478.06zM1426.54 667.71V567.3C1426.53 597.6 1426.53 631.34 1426.54 667.71zM1418.62 526.6c-9.18-22.6-25.79-41.4-46.79-53.36C1392.73 485.3 1409.4 504.23 1418.62 526.6zM1214.14 478.99c-9.52 6.75-17.9 15-24.81 24.4C1196.26 494.03 1204.66 485.76 1214.14 478.99zM1187.36 506.17c.51-.74 1.03-1.48 1.56-2.21C1188.39 504.69 1187.87 505.42 1187.36 506.17z" fill="#2f85a0" class="colora0922f svgShape"></path>
  <path d="M1420.72,532.21c-0.07-0.19-0.14-0.38-0.2-0.58c-9.88-27.8-31.14-50.94-57.99-63.1
	c-9.33-4.18-19.36-7.07-29.87-8.45c-2.49-0.31-4.99-0.53-7.52-0.66c-5.6-0.32-14.61-0.22-20.38-0.23
	c-12.33,0.26-28.73-0.62-40.75,0.77c-6,0.63-11.89,1.8-17.61,3.46c-0.02,0.01-0.04,0.01-0.06,0.02
	c-40.03,11.67-71.66,47.44-76.81,89.4c-1.62,11.09-0.77,29.23-0.96,40.73c0.01,67.66,0.17,157.08,0.19,224.33
	c0.35,13.68-3.96,27.42-12.2,38.36c-8.21,10.96-20.13,19.07-33.38,22.56c-6.6,1.82-13.53,2.18-20.33,2.06c0,0-81.57,0.12-81.57,0.12
	c-13.16,0.1-48.37,0.01-61.18,0.09c-4.14,0.01-10.18,0.14-15.32-0.21h-12.54c-17.21,0.55-36.33,1.35-51.13,0.89
	c-5.34-0.14-11.01-0.39-16.75-0.89h-14.25c-30.03,0-52.71-27.31-47.04-56.8c0.41-2.19,0.84-4.35,1.28-6.54
	c0-0.06,0.03-0.16,0.03-0.22c0.47-2.88,1.06-5.91,1.81-9.04c0.09-0.34,0.16-0.69,0.25-1.06c0.03-0.13,0.06-0.28,0.09-0.44
	c17.65-85.13,45.49-171.04,72.61-250.07c5.63-16.61,11.37-33.18,17.2-49.7c22.06-63.49,42-121.01,53.38-168.07
	c9.8-40.51,9.35-76.25,4.02-106.27c-52.38-41.43-130.61-32.54-172.03,21.27c-10.33,13.26-17.59,28.59-21.88,44.83
	c0,0-2.81,9.8-2.81,9.8c-3.14,9.88-24.26,85.81-27.94,98.06C681.07,576.6,633.99,747.1,590.81,918.4
	c-5.6,23.29-15.4,55.48-14.82,79.39c-1.53,84.25,63.65,159.92,147.05,171.34c3.35,0.37,6.79,0.86,9.99,1.15l5.02,0.29l5.02,0.28
	l5.03-0.01c63.32-1.15,200.53-6.98,265.19-7.62c2.75,0.24,5.47,0.69,8.15,1.34c10.95-0.69,22.33-1.08,34.08-1.03
	c0,0,0.75-0.06,2.06,0c0.03,0,0.03,0,0.06,0l4.69,0l-0.17,0c10.29-0.05,24.39-1.06,34.48-0.05c14.49,1.46,27.8,7.34,38.63,16.2
	c8.98,6,14.82,13.55,18.61,22.47c5.24,9.64,8.4,20.49,8.84,31.86c0.8,88.41,0.87,179.36,0.13,269.22l0.55,93.34
	c0,0-0.54-2.55-1.53-6.81c-0.11,7.68-0.23,15.34-0.35,22.98c-0.12,8.27-0.44,25.39-0.65,33.99c0,0.29,0,0.45,0,0.45
	s-15.24,120.53,135,144.03c48.17-8.63,91.15-41.13,112.88-84.96c1.19-2.24,3.2-6.76,4.29-9.18c2.48-6.15,4.97-12.74,6.66-19.13
	c3.26-11.37,5.05-23.14,5.73-34.94c1.09-262.02,0.81-808.24,1.12-1075.72c0-12-1.96-23.54-5.56-34.32
	C1420.89,532.72,1420.81,532.46,1420.72,532.21z M678.72,698.67l121.24-402.28c3.72-12.29,15.04-20.74,27.9-20.74h2.53
	c19.61,0,33.62,18.99,27.84,37.72L734.46,715.62c-3.75,12.23-15.05,20.58-27.84,20.58c-16.55,0-29.15-13.54-29.15-29.09
	C677.47,704.33,677.87,701.52,678.72,698.67z M686.39,756.87c12.58,0,22.77,10.2,22.77,22.77c0,12.58-10.2,22.77-22.77,22.77
	c-12.58,0-22.77-10.2-22.77-22.77C663.61,767.07,673.81,756.87,686.39,756.87z M1055.51,1107.3c0,14.92-12.1,27.03-27.03,27.03
	H769.43c-0.56,0-1.13,0.03-1.69,0.06c-7.26,0.41-64.25,2.19-111.48-42.88c-5.82-5.54-8.41-12.51-8.41-19.33
	c0-13.89,10.76-27.24,27.09-27.24c6.22,0,12.32,2,17.14,5.91c11.32,9.29,43.07,26.12,123.77,26.12h212.64
	c14.92,0,27.03,12.11,27.03,27.06V1107.3z M1384.82,1625.01c0,62.56-50.7,113.26-113.26,113.26h-5.29
	c-15.83,0-28.65-12.86-28.65-28.68v-6.76c0-7.91,3.19-15.08,8.38-20.27c5.19-5.19,12.36-8.41,20.27-8.41
	c33.78,0,61.18-27.37,61.18-61.15v-99.28c0-7.91,3.19-15.08,8.38-20.27c5.19-5.19,12.39-8.41,20.3-8.41
	c15.83,0,28.68,12.86,28.68,28.68V1625.01z M1327.45,1142.34c0-15.84,12.84-28.68,28.68-28.68s28.68,12.84,28.68,28.68
	c0,15.84-12.84,28.68-28.68,28.68S1327.45,1158.18,1327.45,1142.34z M1389.45,1058.88c0,16.52-13.39,29.9-29.9,29.9h-7.69
	c-16.52,0-29.9-13.39-29.9-29.9V575.46c0-16.48-13.39-29.87-29.9-29.87h-4.29c-8.26,0-15.73-3.35-21.15-8.76s-8.76-12.89-8.76-21.14
	c0-16.52,13.39-29.9,29.9-29.9h19.49c45.39,0,82.2,36.78,82.2,82.2V1058.88z" fill="#2f85a0" class="colora0922f svgShape"></path>
  <path d="M864.77 799.45c2.36 39.05 25.19 59.37 48.84 69.94-14.5-10.64-24.45-27.53-25.44-45.74-1.2-12.82 4.15-28.01 6.78-40.28 0 0 9.52-39.66 9.52-39.66 3.98-16.52 8.2-34.05 12.58-52.27C882.94 720.53 860.87 734.89 864.77 799.45zM808.67 798.47c.18-.9.35-1.8.54-2.7 4.6-22.47 10.4-44.64 16.41-66.75 16.15-57.8 34.22-115.31 53.56-172.32-27.13 79.04-54.96 164.94-72.61 250.07C807.16 804.3 807.87 801.52 808.67 798.47zM949.75 338.93c-11.38 47.05-31.31 104.58-53.38 168.07 4.6-13.04 9.25-26.04 13.96-39.02-.25.81-.51 1.62-.77 2.43.51-1.58.78-2.42.78-2.42s-30.37 177.13-7.6 172.07c7.58-1.68 22.74-24.41 39.58-53.97 16.73-69.76 33.77-140.9 47.84-199.32 0 0 4.76-19.83 4.76-19.83l2.36-9.91c.66-3.29 1.47-6.56 1.88-9.9 6.46-40.1-8.9-82.07-39.09-109.14-2.05-1.86-4.16-3.63-6.3-5.33C959.11 262.68 959.55 298.42 949.75 338.93zM804.37 817.53c-.44 2.19-.88 4.35-1.28 6.54-5.66 29.5 17.02 56.8 47.04 56.8h14.25c-7.1-.63-14.31-1.66-21.17-3.39C817.42 871.38 798.46 855.46 804.37 817.53zM1111.5 1270.14c-3.25-96.18-42.66-105.76-53.36-106.57-.16 0-.31 0-.5-.03-.03 0-.03 0-.06 0h-2.06c-11.75-.05-23.13.34-34.08 1.03 7.65 1.86 14.9 5.34 21.11 10.17 11.94 9.18 19.93 23.31 21.5 38.3.52 4.8.3 12.26.33 17.35 4.43 23.13 14.42 78.55 19.14 130.83C1089.7 1429.54 1115.28 1381.47 1111.5 1270.14zM1160.86 1647.18c0 0 0-.16 0-.45 0 .14-.01.3-.01.43 0 0-.38-17.21-.38-17.21-.31-16.28-.57-32.75-.8-49.34-10.88-43.98-42.92-154.04-59.56-4.31-10.99 98.97 12.35 158.35 35.99 191.98 2.09 1.35 4.2 2.67 6.31 3.9 0 0 4.38 2.52 4.38 2.52l4.49 2.31 2.25 1.15 2.3 1.04 4.6 2.09c5.94 2.39 12.85 5.02 19.07 6.65 16.23 4.71 33.21 6.21 50.07 5.93 7.11.08 23.43-.02 30.59.04 11.75.21 23.74-.46 35.3-2.64.13-.02.26-.05.4-.08C1145.62 1767.71 1160.86 1647.18 1160.86 1647.18zM1153.87 1202.16c-3.79-8.92-9.63-16.47-18.61-22.47C1142.84 1185.88 1149.19 1193.54 1153.87 1202.16z" fill="#2d778e" class="color8e802d svgShape"></path>
  <path d="M952.14,879.78c-8.68-1.07-19.92-3.24-31.44-7.5c5.9,3.32,12.36,5.63,19.15,6.66
	C943.23,879.7,947.79,879.79,952.14,879.78z" fill="#2a6d82" class="color82732a svgShape"></path>
  <path d="M902.74 640.05c-22.77 5.07 7.6-172.07 7.6-172.07s-.27.83-.78 2.42c-27.14 86.16-55.02 172.96-79.13 259.93-7.51 27.51-14.88 55.07-19.8 83.13-1.62 10.92-3.9 22.26-.34 32.93 8.85 28.69 45.53 31.23 70.93 32.92 19.38 1.04 38.86.7 58.32.94-9.47-1.42-18.33-5.28-25.93-10.86-23.65-10.57-46.48-30.89-48.84-69.94-3.89-64.56 18.17-78.92 52.27-108.01 8.04-33.44 16.62-69.22 25.28-105.36C925.48 615.65 910.32 638.37 902.74 640.05zM941.76 880.6c-3.07.08-6.26.17-9.52.28h12.54C943.73 880.8 942.72 880.71 941.76 880.6z" fill="#2a6d82" class="color82732a svgShape"></path>
  <path d="M806.46 807.21c-.09.38-.16.72-.25 1.06-.75 3.13-1.35 6.16-1.81 9.04 0 .06-.03.16-.03.22-5.9 37.93 13.05 53.84 38.84 59.95-19.46-4.92-36.02-15.48-38.9-38.56-.82-8.84.58-17.55 1.82-26.19.75-4.78 1.61-9.54 2.54-14.27-.8 3.05-1.51 5.83-2.12 8.31C806.53 806.93 806.49 807.08 806.46 807.21zM1055.51 1163.54h2.06C1056.26 1163.48 1055.51 1163.54 1055.51 1163.54zM1163.39 1596.57l-.55-93.34c-.24 29-.56 57.88-.98 86.53C1162.85 1594.03 1163.39 1596.57 1163.39 1596.57zM1100.11 1576.31c16.64-149.73 48.68-39.67 59.56 4.31-.96-69.28-1.28-140.65-1.32-208.83.02-34.29.27-103.33.48-137.61-.31-11.17-3.36-22.26-8.71-32.11-10.74-19.93-31.14-34.21-53.64-37.28-5.62-.86-11.36-.75-17.1-.88l-17.04-.37-4.69 0c.19.03.34.03.5.03 10.7.81 50.11 10.38 53.36 106.57 3.79 111.32-21.8 159.4-27.99 91.09-4.72-52.29-14.71-107.7-19.14-130.83 0 .25 0 .49 0 .73 0 48.18-.45 344.33-.51 397.68-.04 6.81.02 13.49.61 20.23 3.49 43.7 26.37 85.28 61.19 111.87 3.32 2.6 6.84 5.06 10.43 7.38C1112.46 1734.66 1089.12 1675.27 1100.11 1576.31z" fill="#2a6d82" class="color82732a svgShape"></path>
  <path d="M706.62 736.21c12.79 0 24.09-8.35 27.84-20.58l123.77-402.25c5.79-18.74-8.23-37.72-27.84-37.72h-2.53c-12.86 0-24.18 8.45-27.9 20.74L678.72 698.67c-.84 2.85-1.25 5.66-1.25 8.45C677.47 722.66 690.07 736.21 706.62 736.21zM686.39 802.42c12.58 0 22.77-10.2 22.77-22.77 0-12.58-10.2-22.77-22.77-22.77-12.58 0-22.77 10.2-22.77 22.77C663.61 792.22 673.81 802.42 686.39 802.42zM1307.24 485.78h-19.49c-16.52 0-29.9 13.39-29.9 29.9 0 8.26 3.35 15.73 8.76 21.14s12.89 8.76 21.15 8.76h4.29c16.52 0 29.9 13.39 29.9 29.87v483.42c0 16.52 13.39 29.9 29.9 29.9h7.69c16.52 0 29.9-13.39 29.9-29.9v-490.9C1389.45 522.57 1352.63 485.78 1307.24 485.78z" fill="#3892af" class="colorafa138 svgShape"></path>
  <circle cx="1356.12" cy="1142.34" r="28.68" fill="#3892af" class="colorafa138 svgShape"></circle>
  <path d="M1356.13 1485.03c-7.91 0-15.11 3.22-20.3 8.41-5.19 5.19-8.38 12.36-8.38 20.27V1613c0 33.78-27.4 61.15-61.18 61.15-7.91 0-15.08 3.22-20.27 8.41-5.19 5.19-8.38 12.36-8.38 20.27v6.76c0 15.83 12.82 28.68 28.65 28.68h5.29c62.56 0 113.26-50.7 113.26-113.26v-111.29C1384.82 1497.89 1371.96 1485.03 1356.13 1485.03zM1028.48 1076.96H815.85c-80.7 0-112.45-16.83-123.77-26.12-4.82-3.91-10.92-5.91-17.14-5.91-16.33 0-27.09 13.36-27.09 27.24 0 6.82 2.6 13.79 8.41 19.33 47.23 45.07 104.22 43.29 111.48 42.88.56-.03 1.13-.06 1.69-.06h259.06c14.92 0 27.03-12.11 27.03-27.03v-3.28C1055.51 1089.07 1043.4 1076.96 1028.48 1076.96z" fill="#3892af" class="colorafa138 svgShape"></path>
  <path d="M717.25,1173.09c4.89,0.95,10.41,1.51,15.37,2.04l5.16,0.3c0,0,5.16,0.29,5.16,0.29
	c60.93-1.08,197.85-6.27,260.03-8.03c6.72-0.35,13.1-0.03,19.5,1.84c18.95,5.25,33.93,22.12,36.85,41.57
	c0.97,5.76,0.56,14.06,0.66,20.02c0.04,48.89,0.41,343.13,0.5,397.68c-0.01,6.75,0.04,13.73,0.68,20.52
	c3.74,45.46,28.08,88.46,64.74,115.49c19.95,14.74,43.43,25.01,67.89,29.21c15.01,2.89,30.74,2.54,45.97,2.48
	c11.84-0.11,29.29,0.34,40.88-0.71c3.02-0.18,7.15-0.83,10.2-1.19c2.83-0.57,7.42-1.18,10.09-1.91
	c47.98-10.27,89.66-43.57,110.77-87.81l1.05-2.34c0,0,2.11-4.68,2.11-4.68c2.52-6.27,4.97-12.81,6.69-19.38
	c3.27-11.51,5.04-23.43,5.7-35.37c0.08-234.7-0.63-687.75-0.72-975.4c-0.01-36.37-0.01-70.11,0-100.41
	c-0.31,267.48-0.03,813.7-1.12,1075.72c-0.68,11.8-2.47,23.57-5.73,34.94c-1.7,6.38-4.18,12.98-6.66,19.13
	c-1.1,2.42-3.1,6.94-4.29,9.18c-21.73,43.83-64.71,76.33-112.88,84.96c-0.13,0.02-0.26,0.05-0.4,0.08
	c-11.56,2.17-23.55,2.85-35.3,2.64c-7.17-0.06-23.48,0.04-30.59-0.04c-16.86,0.28-33.84-1.22-50.07-5.93
	c-6.23-1.63-13.14-4.26-19.07-6.65l-4.6-2.09l-2.3-1.04l-2.25-1.15l-4.49-2.31c0,0-4.38-2.52-4.38-2.52
	c-2.11-1.23-4.22-2.55-6.31-3.9c-3.59-2.32-7.12-4.78-10.43-7.38c-34.81-26.59-57.7-68.17-61.19-111.87
	c-0.59-6.74-0.66-13.42-0.61-20.23c0.06-53.35,0.51-349.49,0.51-397.68c0-0.23,0-0.48,0-0.73c-0.02-5.08,0.2-12.55-0.33-17.35
	c-1.57-14.99-9.55-29.12-21.5-38.3c-6.21-4.83-13.46-8.32-21.11-10.17c-2.68-0.65-5.4-1.1-8.15-1.34
	c-64.66,0.64-201.87,6.46-265.19,7.62l-5.03,0.01l-5.02-0.28l-5.02-0.29c-3.2-0.3-6.64-0.79-9.99-1.15
	c-83.4-11.42-148.58-87.09-147.05-171.34c-0.58-23.91,9.22-56.1,14.82-79.39c43.19-171.31,90.26-341.8,138.3-511.79
	c3.69-12.24,24.81-88.17,27.94-98.06c0,0,2.81-9.8,2.81-9.8c4.3-16.24,11.55-31.57,21.88-44.83
	c41.42-53.82,119.65-62.7,172.03-21.27c2.14,1.7,4.25,3.47,6.3,5.33c30.19,27.07,45.54,69.04,39.09,109.14
	c-0.41,3.34-1.22,6.6-1.88,9.9l-2.36,9.91c0,0-4.76,19.83-4.76,19.83c-14.06,58.42-31.11,129.56-47.84,199.32
	c-8.67,36.14-17.25,71.91-25.28,105.36c-4.38,18.22-8.59,35.75-12.58,52.27c0,0-9.52,39.66-9.52,39.66
	c-2.62,12.27-7.98,27.45-6.78,40.28c0.99,18.22,10.94,35.11,25.44,45.74c7.61,5.58,16.46,9.44,25.93,10.86
	c-19.46-0.24-38.94,0.11-58.32-0.94c-25.4-1.69-62.08-4.23-70.93-32.92c-3.56-10.67-1.28-22.02,0.34-32.93
	c4.92-28.06,12.29-55.61,19.8-83.13c24.11-86.98,51.99-173.77,79.13-259.93c0.25-0.81,0.51-1.62,0.77-2.43
	c-4.71,12.97-9.36,25.98-13.96,39.02c-5.83,16.52-11.57,33.09-17.2,49.7c-19.33,57.01-37.41,114.52-53.56,172.32
	c-6,22.11-11.8,44.28-16.41,66.75c-0.18,0.9-0.36,1.8-0.54,2.7c-0.93,4.73-1.8,9.49-2.54,14.27c-1.24,8.64-2.64,17.35-1.82,26.19
	c2.87,23.07,19.44,33.64,38.9,38.56c6.85,1.73,14.06,2.77,21.17,3.39c5.74,0.51,11.4,0.76,16.75,0.89
	c14.79,0.45,33.92-0.34,51.13-0.89c3.25-0.1,6.44-0.2,9.52-0.28c0.95,0.12,1.97,0.21,3.02,0.28c5.14,0.35,11.17,0.21,15.32,0.21
	c12.81-0.08,48.02,0.02,61.18-0.09c0,0,81.57-0.12,81.57-0.12c6.79,0.12,13.72-0.24,20.33-2.06c13.25-3.49,25.17-11.59,33.38-22.56
	c8.23-10.95,12.55-24.69,12.2-38.36c-0.02-67.25-0.18-156.67-0.19-224.33c0.18-11.5-0.67-29.64,0.96-40.73
	c5.14-41.97,36.77-77.73,76.81-89.4c0.02-0.01,0.04-0.01,0.06-0.02c5.71-1.66,11.6-2.83,17.61-3.46
	c12.02-1.39,28.42-0.51,40.75-0.77c5.78,0,14.79-0.09,20.38,0.23c2.53,0.13,5.04,0.35,7.52,0.66c10.47,1.31,20.51,4.21,29.87,8.45
	c26.85,12.17,48.11,35.31,57.99,63.1c0.07,0.19,0.14,0.38,0.2,0.58c0.09,0.25,0.17,0.51,0.26,0.77c3.7,10.88,5.68,22.44,5.56,34.32
	c0.13-13.78-2.52-27.12-7.42-39.44c-0.05-0.13-0.1-0.27-0.16-0.4c-0.12-0.29-0.23-0.57-0.35-0.86
	c-9.22-22.37-25.89-41.31-46.79-53.36c-13.99-8.07-29.87-13.05-46.69-13.93c-5.65-0.43-14.79-0.11-20.39-0.24
	c-12.29,0.28-28.56-0.71-40.76,0.75c-17.19,1.77-33.42,8.03-47.46,17.52c-0.35,0.24-0.7,0.47-1.04,0.71
	c-0.45,0.31-0.9,0.61-1.34,0.93c-9.48,6.77-17.88,15.04-24.81,24.4c-0.14,0.19-0.27,0.38-0.41,0.56c-0.53,0.73-1.05,1.47-1.56,2.21
	c-9.54,13.77-15.97,29.71-18.05,46.64c-1.57,9.52-0.88,31.85-1.03,40.76c-0.08,67.38-0.1,157.2-0.19,224.33
	c0.32,13.55-3.96,27.1-12.12,37.92c-8.12,10.81-19.91,18.8-33,22.2c-6.57,1.78-13.33,2.11-20.12,1.97c0,0-81.57-0.12-81.57-0.12
	c-13.19-0.05-48.52-0.02-61.18-0.09c-2.3-0.06-5.09-0.01-7.96-0.01c-4.36,0.01-8.91-0.09-12.28-0.84
	c-6.79-1.03-13.26-3.34-19.15-6.66c-17.46-9.82-29.92-28.44-30.96-48.74c-1.16-12.27,4.2-27.69,6.85-39.77
	c0,0,9.64-39.63,9.64-39.63c27.63-113.3,63.98-263.65,91.53-376.51c1.35-5.52,3.61-14.62,4.35-20.04
	c7.9-48.46-14.95-98.19-56.16-124.64C877.57,178.9,785.31,211.08,759,287.79c-26.33,89.38-53.36,185.09-78.31,274.69
	c-36.41,130.75-71.9,262.51-104.52,394.31C551.11,1054.98,617.59,1156.21,717.25,1173.09z" fill="#2e7389" class="color63571c svgShape"></path>
  <path d="M1096.47,1164.79c22.51,3.06,42.9,17.35,53.64,37.28c5.35,9.85,8.4,20.94,8.71,32.11
	c-0.21,34.28-0.47,103.33-0.48,137.61c0.04,68.18,0.36,139.55,1.32,208.83c0.23,16.59,0.49,33.06,0.8,49.34
	c0,0,0.38,17.21,0.38,17.21c0-0.14,0.01-0.29,0.01-0.43c0.21-8.6,0.53-25.72,0.65-33.99c0.12-7.64,0.24-15.3,0.35-22.98
	c0.42-28.64,0.74-57.53,0.98-86.53c0.74-89.85,0.67-180.8-0.13-269.22c-0.44-11.37-3.6-22.22-8.84-31.86
	c-4.69-8.62-11.04-16.28-18.61-22.47c-10.82-8.86-24.14-14.74-38.63-16.2c-10.09-1.01-24.19,0-34.48,0.05l0.17,0l17.04,0.37
	C1085.11,1164.04,1090.85,1163.93,1096.47,1164.79z" fill="#2e7389" class="color63571c svgShape"></path>
</svg>
