<svg width="24" height="24" viewBox="0 0 24 24" fill="none" xmlns="http://www.w3.org/2000/svg">
<path d="M16 10H18M16 14H18M6.17004 15.0001C6.37618 14.4141 6.75915 13.9065 7.26606 13.5475C7.77298 13.1884 8.37885 12.9956 9.00004 12.9956C9.62123 12.9956 10.2271 13.1884 10.734 13.5475C11.2409 13.9065 11.6239 14.4141 11.83 15.0001M11 11C11 12.1046 10.1046 13 9 13C7.89543 13 7 12.1046 7 11C7 9.89543 7.89543 9 9 9C10.1046 9 11 9.89543 11 11ZM4 5H20C21.1046 5 22 5.89543 22 7V17C22 18.1046 21.1046 19 20 19H4C2.89543 19 2 18.1046 2 17V7C2 5.89543 2.89543 5 4 5Z" stroke="black" stroke-width="1.33" stroke-linecap="round" stroke-linejoin="round"/>
</svg>
