<?xml version="1.0" encoding="UTF-8"?>
<svg id="Layer_2" xmlns="http://www.w3.org/2000/svg" viewBox="0 0 122.94 79.54">
  <defs>
    <style>
      .cls-1 {
        fill: #45beb4;
      }

      .cls-2 {
        fill: #136f91;
      }
    </style>
  </defs>
  <g id="Layer_1-2" data-name="Layer_1">
    <path class="cls-1" d="M122.89,12.92c-.17-.72-.75-1.27-1.55-1.47l-.37-.1c-.59-.16-1.2-.32-1.89-.34-.96-.03-1.76-.14-2.44-.34-1.05-.31-2.12-.48-3.15-.64-.53-.08-1.05-.17-1.58-.27-1.18-.23-2.36-.43-3.54-.63-1.02-.17-2.05-.34-3.07-.54-.93-.17-1.86-.33-2.79-.49-1.41-.24-2.88-.49-4.29-.8-.17-.04-.33-.09-.49-.14-.44-.14-.95-.29-1.53-.25-.63.05-1.29-.11-1.99-.28l-.41-.1c-1.07-.25-2.14-.43-3.19-.6-.58-.1-1.15-.19-1.72-.3-.66-.12-1.33-.24-1.99-.35-.89-.16-1.78-.31-2.67-.48-1.13-.22-2.26-.42-3.4-.62-1.19-.21-2.37-.42-3.56-.65-1.66-.33-3.62-.7-5.58-.98-.24-.03-.5-.11-.77-.2-.49-.15-1.04-.32-1.68-.28-.59.03-1.2-.11-1.85-.26-.17-.04-.34-.08-.51-.12-1.09-.23-2.2-.42-3.28-.6-.66-.11-1.31-.22-1.97-.34-.29-.05-.58-.1-.87-.14-.6-.09-1.16-.18-1.68-.34-1.75-.55-3.34-.27-4.87.86-1.27.93-2.65,1.8-3.98,2.63l-.36.22c-.52.33-1.04.66-1.56.99-.8.52-1.61,1.04-2.43,1.53-.86.51-1.69,1.08-2.49,1.63-.8.55-1.62,1.12-2.45,1.61-1.31.77-2.59,1.61-3.83,2.42-.68.45-1.36.89-2.05,1.33-1.99,1.26-3.96,2.55-5.94,3.84-1.29.85-2.59,1.69-3.89,2.53-1.08.7-2.17,1.39-3.25,2.09-1.21.78-2.43,1.56-3.64,2.34-.41.26-.81.54-1.21.82-.69.48-1.35.93-2.04,1.32-1.38.77-2.7,1.65-3.98,2.51-.94.63-1.91,1.29-2.89,1.88-1.34.81-2.67,1.68-3.96,2.53-1.04.68-2.07,1.36-3.13,2.02C.42,35.79.02,36.48,0,37.29c-.02.8.44,1.44,1.26,1.76l.44.18c.66.27,1.35.55,2.1.66.77.11,1.52.36,2.3.61.34.11.68.22,1.02.32.46.13.92.25,1.38.36.82.2,1.59.39,2.32.69.84.34,1.35.13,1.63-.12.42-.36.53-.94.33-1.7-.03-.13-.05-.26-.06-.39-.02-.14-.03-.29-.07-.45-.05-.28-.21-1.11-1.1-1.25-.45-.07-.91-.23-1.39-.39-.44-.15-.88-.31-1.37-.41-.78-.17-1.54-.39-2.33-.62.65-.44,1.32-.85,1.97-1.26.59-.36,1.17-.73,1.74-1.11l1-.67c.82-.55,1.64-1.09,2.47-1.62,1.17-.76,2.35-1.51,3.53-2.26,1.37-.87,2.74-1.74,4.1-2.63.99-.64,1.98-1.29,2.97-1.94,1.17-.77,2.35-1.54,3.53-2.3,1.07-.68,2.14-1.35,3.22-2.03,1.65-1.03,3.35-2.1,5.01-3.19,1.73-1.14,3.45-2.28,5.2-3.38.58-.37,1.15-.76,1.72-1.15.8-.55,1.55-1.07,2.35-1.53,1.28-.74,2.51-1.56,3.71-2.36,1.1-.73,2.23-1.48,3.37-2.15.75-.44,1.47-.93,2.16-1.4.89-.6,1.73-1.17,2.63-1.66.19-.1.24-.09.26-.08,1.18.43,2.4.61,3.57.78.36.05.71.11,1.07.17.82.14,1.64.29,2.45.44,1.34.25,2.72.5,4.1.7,1.4.21,2.83.49,4.21.76,1,.2,2.01.4,3.01.57.16.03.32.08.48.13.37.12.83.27,1.38.22.69-.06,1.44.12,2.16.3l.29.07c.95.23,1.9.39,2.83.54.69.11,1.38.22,2.07.37,1.73.36,3.49.67,5.2.97.71.12,1.43.25,2.14.38.24.04.49.1.73.17.43.11.88.22,1.35.26,1.77.15,3.52.51,4.84.82.46.11.9.15,1.33.19.37.04.72.07,1.06.15,1.51.34,3.04.63,4.6.92.66.12,1.31.23,1.97.33.4.06.8.13,1.2.2l1.08.18c1.22.21,2.43.41,3.64.64.74.14,1.47.29,2.23.46-.59.48-1.16.94-1.74,1.39-.61.47-1.23.94-1.85,1.4-.67.5-1.34,1-2,1.52-.87.68-1.73,1.37-2.6,2.06-.94.76-1.89,1.51-2.84,2.25-1.09.85-2.19,1.69-3.29,2.52-1.23.94-2.46,1.87-3.67,2.82-1.73,1.35-3.45,2.73-5.17,4.1l-1.94,1.55c-.98.78-1.97,1.54-2.96,2.29-1.23.94-2.51,1.91-3.74,2.92-1.14.93-2.32,1.85-3.47,2.74-.95.74-1.9,1.48-2.84,2.23-.97.78-2,1.55-3,2.29-1.25.93-2.55,1.9-3.77,2.92-.65.54-1.33,1.07-2,1.57-.75.57-1.52,1.16-2.26,1.79-.29.25-.36.22-.49.18-1.1-.36-2.22-.67-3.31-.96l-.38-.1c-.61-.16-1.21-.32-1.82-.47-.97-.25-1.98-.5-2.94-.79l-.25-.08c-1.61-.48-3.27-.99-4.92-1.38-.94-.22-1.87-.48-2.79-.74-.58-.16-1.17-.33-1.79-.49-2.75-.73-5.6-1.48-8.37-2.32-1.88-.57-3.83-1.16-5.82-1.6-.37-.08-.74-.21-1.12-.34-.47-.16-.96-.33-1.49-.42-.83-.15-1.63-.39-2.48-.64-.79-.23-1.6-.47-2.44-.64-.18-.04-.35-.08-.53-.13-.81-.21-1.81-.46-2.89.1-.24.13-.54.21-.86.29-.47.12-.99.27-1.5.59-.23.15-.38.39-.4.66-.02.27.08.54.29.72.58.52,1.23.63,1.74.71.18.03.35.05.52.11,1.05.34,2.01.62,2.92.86.52.14,1.04.27,1.56.4,1.21.3,2.47.62,3.67,1,.13.04.17.08.18.08,0,0,.01.04.01.13-.04.76.15,1.46.31,2.09.04.17.09.34.13.51.33,1.44.66,2.99.85,4.55.1.79.28,1.55.45,2.28.17.71.33,1.39.42,2.08.02.18.04.36.06.54.05.55.11,1.12.29,1.69.31.99.47,2,.64,3.08.09.56.17,1.12.28,1.67l.09.49c.19,1.01.39,2.06.86,3.02,1.02,2.1,2.73,3.77,5.38,5.24.77.43,1.57.82,2.34,1.19.44.21.88.42,1.32.65.25.13.52.25.86.33.6.14,1.18.32,1.77.5.8.24,1.62.49,2.48.66.47.09.93.2,1.4.31,1.3.3,2.62.59,4.08.61h.15c.08,0,.21,0,.25,0,1.01.31,2.02.38,3.01.38.43,0,.86-.01,1.29-.03.42-.01.85-.02,1.27-.03h.54c1.8.01,3.66.02,5.52-.3.47-.08.96-.13,1.45-.19.62-.07,1.26-.14,1.89-.27,2.4-.48,4.73-.97,6.97-1.75,3.57-1.23,6.46-2.5,9.09-3.98,3.45-1.94,6.38-4.08,8.95-6.56,1.02-.98,2-1.96,2.82-3.06.97-1.32,2.05-2.88,2.53-4.79l.09-.36c.22-.85.48-1.82.24-2.91l-.08-.38c-.31-1.44-.64-2.93-.75-4.38-.07-.94-.27-1.83-.46-2.69-.18-.81-.35-1.57-.41-2.35-.08-.96-.22-1.8-.41-2.57-.37-1.5-.64-3-.81-4.47-.08-.66-.22-1.3-.35-1.91-.12-.53-.23-1.03-.3-1.53-.02-.14-.05-.29-.08-.44-.11-.57-.08-.62,0-.7.96-.81,1.97-1.6,2.95-2.37l.4-.31c1.26-.99,2.53-1.98,3.79-2.96l2.82-2.19c.87-.68,1.75-1.36,2.62-2.04l1.62-1.27c.72-.57,1.44-1.14,2.17-1.7.65-.51,1.3-1.01,1.96-1.51.81-.63,1.63-1.25,2.44-1.89l.61-.47c.93-.72,1.89-1.47,2.8-2.27.62-.54.88-1.3.71-2.01ZM97.78,56.6l-.03.18c-.35,2.03-1.54,3.63-2.84,5.23-1.66,2.04-3.75,3.68-5.58,5.01-1.81,1.32-3.76,2.41-6.14,3.65-1.01.52-2.11,1.01-3.37,1.48-.4.15-.8.32-1.2.49-1.08.46-2.1.89-3.19.99-.34.03-.62.15-.85.25-.06.03-.13.05-.2.08-1.05.38-2.14.57-3.3.77-.51.09-1.02.18-1.53.28-2.32.48-4.86.7-7.57.65-.28-.01-.49,0-.71,0-.45,0-.83-.01-1.22.02-1.64.13-3.33-.14-4.96-.39-2.38-.37-4.92-.85-7.4-1.81-2.24-.87-4.36-1.7-6.18-3.12-1.09-.85-1.79-1.7-2.22-2.68-.1-.24-.13-.52-.17-.86-.03-.26-.06-.56-.14-.87-.35-1.39-.63-2.9-.83-4.48-.06-.44-.16-.85-.26-1.24-.1-.38-.19-.74-.23-1.1-.07-.63-.19-1.24-.31-1.84-.07-.35-.14-.7-.2-1.06-.1-.6-.23-1.2-.36-1.8-.06-.29-.12-.58-.18-.87-.11-.52-.2-1.04-.29-1.57l-.12-.7c-.16-.89-.36-1.76-.56-2.61l.45.12c1.02.26,2.07.53,3.06.86.78.26,1.58.46,2.35.65.72.18,1.41.35,2.09.57.88.28,1.77.51,2.64.74.7.18,1.39.36,2.08.57,1.11.33,2.25.62,3.35.9.72.18,1.44.37,2.16.57l1.21.33c1.2.33,2.39.66,3.59.97.68.17,1.36.37,2.04.56,1.15.33,2.35.67,3.57.91.41.08.82.22,1.25.36.18.06.36.12.55.18,1.31.4,2.44.16,3.46-.74,1.02-.91,2.15-1.76,3.24-2.58l.95-.72c1.39-1.06,3.22-2.47,5.02-3.96.83-.69,1.71-1.35,2.57-1.98.57-.42,1.13-.84,1.69-1.28.98-.76,1.95-1.53,2.93-2.3,1.28-1.01,2.56-2.02,3.85-3.02.62-.48,1.24-.98,1.85-1.48.94-.77,1.91-1.55,2.91-2.26.08.81.24,1.59.39,2.36.16.82.32,1.59.39,2.38.1,1.13.37,2.22.62,3.28.09.39.19.78.28,1.17.16.72.23,1.48.3,2.26.08.94.28,1.84.47,2.71.17.8.34,1.56.42,2.34l.05.56c.07.81.15,1.65.41,2.49.02.08,0,.25-.04.42Z"/>
    <path class="cls-2" d="M73.21,24.2c-.18-.66-.83-.88-1.04-.95-.31-.11-.61-.22-.91-.33-.45-.17-.91-.33-1.36-.48-1.07-.35-2.15-.77-3.19-1.17-.98-.38-1.99-.77-3.01-1.12-.88-.29-1.76-.63-2.62-.96l-.55-.21c-.81-.31-1.28.04-1.44.2-.16.16-.51.61-.23,1.37.16.45.26.94.36,1.46.13.66.26,1.34.55,2.02.06.13.08.33.11.54.02.13.04.27.06.41-.55.17-1.11.34-1.66.51l-1.24.38c-.52.16-1.04.31-1.56.47-1.14.34-2.31.69-3.47,1.07-1.14.38-2.31.77-3.47,1.06-.67.17-1.31.39-1.94.6-.75.25-1.47.49-2.21.65-.71.15-1.4.39-2.06.62-.29.1-.57.2-.86.29-1.46.46-2.93.89-4.45,1.33-.47.14-.93.3-1.39.47-.64.23-1.25.45-1.86.58-1.22.25-2.39.64-3.52,1.02-.95.32-1.86.63-2.79.85-1.01.24-2.01.58-2.97.9-.66.22-1.33.44-1.99.64-2.92.84-5.81,1.75-8.51,2.6-.28.09-.87.28-1.16.83-.12.23-.22.6-.06,1.08.15.46.17.99.18,1.54.02.61.04,1.24.23,1.9.13.46.15.96.18,1.5.02.45.04.91.12,1.38.05.27.1.53.15.79.19.96.36,1.87.36,2.8,0,.28,0,.59.08.93.2.78.26,1.59.33,2.45.07.82.14,1.66.33,2.5.11.47.14.97.18,1.49.04.57.09,1.17.23,1.76.2.85.27,1.71.35,2.63.05.63.11,1.28.21,1.93.05.29.1.59.16.88.14.73.28,1.41.21,2.09-.05.57.23,1.06.71,1.24.12.05.25.07.38.07.37,0,.73-.19.99-.54.08-.11.19-.21.29-.3.23-.22.54-.52.75-.98.28.17.56.32.84.48.22.12.43.24.67.39.52.31.99.31,1.41,0,.31-.23.61-.66.34-1.44-.16-.47-.27-1.04-.33-1.72-.12-1.34-.34-2.68-.55-3.97-.18-1.09-.36-2.21-.48-3.32-.12-1.12-.29-2.24-.45-3.32-.14-.96-.29-1.93-.4-2.9-.03-.22-.05-.44-.07-.66-.07-.69-.14-1.41-.32-2.12-.17-.71-.25-1.44-.33-2.21-.07-.65-.14-1.31-.27-1.98,0-.12.02-.3-.03-.5,0-.04-.02-.07-.02-.1.02,0,.06-.02.1-.03.57-.14,1.16-.34,1.8-.62.51-.23,1.07-.36,1.66-.49.51-.12,1.03-.24,1.56-.43.65-.24,1.33-.48,2.01-.67l.88-.24c1.57-.43,3.19-.87,4.77-1.4.87-.29,1.75-.56,2.63-.82,1.06-.31,2.15-.64,3.22-1.02,1.36-.48,2.78-.89,4.16-1.28.79-.22,1.57-.45,2.35-.69.95-.29,1.9-.6,2.85-.9.99-.32,1.98-.63,2.97-.94.9-.27,1.81-.54,2.71-.8,1.22-.35,2.44-.71,3.65-1.09l.74-.24c1.37-.44,2.79-.89,4.26-1.29.1.41.22.82.33,1.22.28.99.54,1.92.67,2.89.11.78.54,1.07.8,1.18.25.11.77.21,1.4-.27.26-.2.49-.45.66-.72.35-.57.78-1.08,1.23-1.63.21-.25.42-.51.62-.77.81-1.04,1.64-2.06,2.46-3.09l1.35-1.69c.21-.26.42-.53.62-.8.35-.46.71-.92,1.08-1.36.18-.21.66-.77.48-1.44Z"/>
  </g>
</svg>