<?xml version="1.0" encoding="UTF-8"?>
<svg id="Layer_2" xmlns="http://www.w3.org/2000/svg" viewBox="0 0 546.97 74.57">
  <defs>
    <style>
      .cls-1 {
        fill: #45beb4;
      }

      .cls-2 {
        fill: #136f91;
      }
    </style>
  </defs>
  <g id="Layer_1-2" data-name="Layer_1">
    <path class="cls-1" d="M98.96,13.82c-.14-.58-.6-1.02-1.25-1.18l-.3-.08c-.47-.13-.97-.26-1.52-.28-.77-.02-1.41-.11-1.96-.28-.85-.25-1.71-.39-2.54-.52-.42-.07-.85-.13-1.27-.22-.95-.18-1.9-.34-2.85-.5-.82-.14-1.65-.28-2.47-.43-.75-.14-1.5-.27-2.24-.4-1.14-.19-2.32-.4-3.46-.64-.13-.03-.27-.07-.4-.11-.36-.11-.77-.23-1.24-.2-.51.04-1.04-.09-1.6-.23l-.33-.08c-.86-.2-1.73-.34-2.57-.48-.46-.08-.93-.15-1.39-.24-.53-.1-1.07-.19-1.6-.29-.72-.13-1.44-.25-2.15-.39-.91-.18-1.82-.34-2.74-.5-.96-.17-1.91-.33-2.86-.52-1.33-.26-2.91-.57-4.49-.79-.2-.03-.4-.09-.62-.16-.39-.12-.84-.26-1.35-.23-.48.02-.97-.09-1.49-.21-.14-.03-.28-.06-.41-.09-.88-.19-1.78-.34-2.64-.48-.53-.09-1.06-.18-1.58-.27-.23-.04-.47-.08-.7-.11-.48-.07-.94-.14-1.36-.27-1.41-.44-2.69-.22-3.92.69-1.02.75-2.13,1.45-3.21,2.11l-.29.18c-.42.26-.84.53-1.25.8-.65.42-1.3.83-1.96,1.23-.69.41-1.36.87-2,1.32-.64.44-1.31.9-1.98,1.3-1.05.62-2.09,1.3-3.08,1.95-.55.36-1.1.72-1.65,1.07-1.6,1.02-3.19,2.05-4.78,3.09-1.04.68-2.08,1.36-3.13,2.04-.87.56-1.75,1.12-2.62,1.68-.98.63-1.96,1.25-2.93,1.88-.33.21-.65.44-.98.66-.56.39-1.09.75-1.65,1.06-1.11.62-2.18,1.33-3.2,2.02-.76.51-1.54,1.04-2.33,1.51-1.08.65-2.15,1.36-3.19,2.03-.83.55-1.67,1.1-2.52,1.62-.57.35-.89.91-.9,1.56-.02.64.36,1.16,1.02,1.42l.36.14c.53.22,1.09.44,1.69.53.62.09,1.22.29,1.85.49.27.09.55.18.82.26.37.11.74.2,1.11.29.66.16,1.28.32,1.87.56.68.28,1.09.1,1.31-.1.34-.29.43-.75.27-1.37-.03-.1-.04-.21-.05-.31-.01-.12-.03-.23-.05-.36-.04-.22-.17-.9-.88-1.01-.37-.06-.73-.18-1.12-.32-.35-.12-.71-.25-1.1-.33-.63-.13-1.24-.31-1.88-.5.52-.35,1.06-.69,1.59-1.01.47-.29.94-.58,1.41-.89l.81-.54c.66-.44,1.32-.88,1.99-1.31.95-.61,1.89-1.21,2.84-1.82,1.1-.7,2.2-1.41,3.3-2.11.8-.52,1.59-1.04,2.39-1.56.95-.62,1.89-1.24,2.84-1.85.86-.55,1.73-1.09,2.59-1.63,1.33-.83,2.7-1.69,4.03-2.57,1.39-.92,2.78-1.83,4.19-2.73.47-.3.92-.61,1.38-.93.64-.44,1.25-.86,1.89-1.24,1.03-.6,2.02-1.26,2.99-1.9.88-.59,1.8-1.19,2.72-1.74.6-.36,1.18-.75,1.74-1.12.72-.48,1.39-.94,2.12-1.33.15-.08.19-.07.21-.06.95.34,1.93.49,2.87.63.29.04.57.09.86.13.66.11,1.32.23,1.98.35,1.08.2,2.19.4,3.3.57,1.13.17,2.28.39,3.39.61.81.16,1.62.32,2.43.46.13.02.26.07.39.11.3.1.67.22,1.11.18.56-.05,1.16.1,1.74.25l.23.06c.76.19,1.53.31,2.28.43.56.09,1.11.18,1.66.3,1.39.29,2.81.54,4.18.78.57.1,1.15.2,1.72.3.2.04.39.08.59.13.35.09.71.18,1.09.21,1.42.12,2.83.41,3.9.66.37.09.72.12,1.07.15.3.03.58.06.85.12,1.22.27,2.45.51,3.71.74.53.1,1.06.18,1.59.27.32.05.64.1.97.16l.87.15c.98.17,1.96.33,2.93.52.59.11,1.19.24,1.8.37-.47.39-.93.76-1.4,1.12-.49.38-.99.75-1.49,1.13-.54.4-1.08.81-1.61,1.22-.7.55-1.4,1.1-2.09,1.66-.76.61-1.52,1.22-2.29,1.81-.88.68-1.76,1.36-2.65,2.03-.99.75-1.98,1.51-2.96,2.27-1.4,1.09-2.78,2.2-4.16,3.3l-1.56,1.25c-.79.63-1.59,1.24-2.39,1.85-.99.76-2.02,1.54-3.01,2.35-.92.75-1.87,1.49-2.8,2.21-.77.59-1.53,1.19-2.29,1.8-.79.63-1.61,1.25-2.41,1.84-1.01.75-2.05,1.53-3.04,2.35-.52.44-1.07.86-1.61,1.27-.6.46-1.22.93-1.82,1.44-.23.2-.29.18-.39.14-.88-.29-1.79-.54-2.67-.78l-.3-.08c-.49-.13-.98-.26-1.47-.38-.78-.2-1.59-.4-2.37-.64l-.2-.06c-1.29-.39-2.63-.79-3.96-1.11-.75-.18-1.5-.39-2.25-.6-.47-.13-.94-.26-1.44-.4-2.22-.59-4.51-1.19-6.74-1.87-1.52-.46-3.08-.93-4.69-1.29-.3-.07-.59-.17-.9-.27-.38-.13-.78-.26-1.2-.34-.67-.12-1.31-.31-2-.51-.63-.19-1.29-.38-1.96-.52-.14-.03-.28-.07-.43-.1-.65-.17-1.46-.37-2.33.08-.19.1-.44.17-.69.24-.38.1-.8.21-1.21.47-.19.12-.31.32-.32.53-.02.22.07.43.23.58.47.42.99.51,1.4.58.14.02.28.04.42.09.85.27,1.62.5,2.35.69.42.11.84.21,1.26.32.98.24,1.99.5,2.96.8.11.03.14.06.14.06,0,0,.01.03,0,.1-.03.61.12,1.18.25,1.68.03.14.07.28.1.41.26,1.16.53,2.41.69,3.67.08.64.22,1.25.36,1.84.14.58.27,1.12.34,1.67.02.14.03.29.05.43.04.44.08.9.23,1.36.25.79.38,1.61.51,2.48.07.45.14.9.23,1.35l.08.4c.15.81.31,1.66.69,2.43.82,1.69,2.2,3.03,4.33,4.22.62.35,1.26.66,1.89.96.36.17.71.34,1.06.52.2.1.42.2.69.27.48.12.95.26,1.43.4.64.2,1.3.4,2,.53.38.07.75.16,1.13.25,1.05.24,2.11.48,3.28.49h.12c.07,0,.17,0,.2,0,.82.25,1.63.31,2.43.31.35,0,.69-.01,1.04-.02.34-.01.68-.01,1.02-.02h.43c1.45,0,2.95.02,4.45-.24.38-.07.77-.11,1.17-.15.5-.06,1.02-.11,1.52-.21,1.93-.39,3.81-.78,5.61-1.41,2.87-.99,5.2-2.01,7.32-3.2,2.78-1.56,5.14-3.29,7.21-5.28.82-.79,1.61-1.58,2.27-2.46.78-1.06,1.65-2.32,2.04-3.85l.08-.29c.18-.69.39-1.47.2-2.34l-.07-.3c-.25-1.16-.51-2.36-.6-3.53-.06-.75-.22-1.47-.37-2.17-.14-.65-.28-1.26-.33-1.89-.07-.78-.18-1.45-.33-2.07-.3-1.21-.52-2.42-.65-3.6-.06-.53-.17-1.05-.28-1.54-.1-.43-.18-.83-.24-1.24-.02-.12-.04-.24-.06-.35-.09-.46-.07-.5,0-.56.77-.65,1.59-1.29,2.37-1.91l.32-.25c1.02-.8,2.04-1.59,3.06-2.39l2.27-1.77c.7-.55,1.41-1.09,2.11-1.64l1.3-1.02c.58-.46,1.16-.92,1.75-1.37.52-.41,1.05-.81,1.58-1.22.66-.5,1.31-1.01,1.96-1.52l.49-.38c.75-.58,1.52-1.18,2.25-1.83.5-.44.71-1.04.57-1.62ZM78.74,49l-.03.15c-.28,1.63-1.24,2.93-2.29,4.21-1.34,1.64-3.02,2.96-4.49,4.03-1.45,1.06-3.03,1.94-4.95,2.94-.81.42-1.7.81-2.71,1.19-.33.12-.65.26-.97.39-.87.37-1.69.71-2.57.79-.27.02-.5.12-.69.2-.05.02-.1.04-.16.06-.84.31-1.73.46-2.66.62-.41.07-.82.14-1.23.23-1.87.39-3.91.56-6.09.52-.23,0-.4,0-.57,0-.36,0-.67-.01-.98.01-1.32.1-2.68-.11-4-.32-1.92-.3-3.96-.68-5.96-1.46-1.8-.7-3.51-1.37-4.98-2.52-.88-.68-1.44-1.37-1.78-2.15-.08-.19-.11-.42-.14-.69-.02-.21-.05-.45-.11-.7-.28-1.12-.51-2.33-.67-3.6-.05-.35-.13-.68-.21-1-.08-.31-.15-.6-.19-.89-.06-.51-.16-1-.25-1.48-.06-.28-.11-.57-.16-.85-.08-.49-.19-.97-.29-1.45-.05-.23-.1-.47-.15-.7-.08-.42-.16-.84-.23-1.26l-.1-.56c-.13-.71-.29-1.42-.45-2.11l.36.09c.82.21,1.66.43,2.47.69.63.21,1.27.37,1.89.52.58.15,1.13.28,1.68.46.71.23,1.43.41,2.13.59.56.14,1.12.29,1.67.46.9.27,1.81.5,2.7.73.58.15,1.16.3,1.74.46l.98.27c.96.27,1.93.53,2.89.78.55.14,1.1.29,1.64.45.93.26,1.89.54,2.87.73.33.06.66.17,1.01.29.15.05.29.1.44.14,1.06.33,1.96.13,2.78-.6.82-.73,1.73-1.41,2.61-2.07l.77-.58c1.12-.86,2.6-1.99,4.04-3.19.67-.55,1.38-1.08,2.07-1.6.46-.34.91-.68,1.36-1.03.79-.61,1.57-1.23,2.36-1.85,1.03-.81,2.06-1.63,3.1-2.43.5-.39,1-.79,1.49-1.19.76-.62,1.54-1.25,2.35-1.82.07.65.19,1.28.32,1.9.13.66.26,1.28.31,1.92.08.91.3,1.79.5,2.64.08.31.15.63.22.94.13.58.19,1.19.25,1.82.07.75.22,1.48.38,2.18.14.65.27,1.26.34,1.88l.04.45c.06.65.12,1.33.33,2.01.02.06,0,.2-.03.34Z"/>
    <path class="cls-2" d="M58.95,22.91c-.14-.53-.67-.71-.84-.77-.25-.09-.49-.18-.73-.27-.37-.13-.73-.27-1.1-.39-.86-.28-1.73-.62-2.57-.94-.79-.31-1.6-.62-2.42-.9-.7-.24-1.42-.51-2.11-.77l-.44-.17c-.65-.25-1.03.03-1.16.16-.13.13-.41.49-.19,1.11.13.37.21.76.29,1.18.1.53.21,1.08.44,1.63.04.11.07.26.09.43.01.1.03.21.05.33-.45.13-.89.27-1.34.41l-1,.31c-.42.13-.84.25-1.26.38-.92.27-1.86.55-2.79.86-.91.31-1.86.62-2.79.86-.54.14-1.06.31-1.56.48-.61.2-1.18.4-1.78.52-.57.12-1.13.31-1.66.5-.23.08-.46.16-.69.23-1.17.37-2.36.72-3.58,1.07-.38.11-.75.24-1.12.38-.52.19-1.01.36-1.5.46-.98.2-1.92.52-2.83.83-.77.26-1.49.51-2.25.69-.81.2-1.62.46-2.39.73-.53.18-1.07.36-1.6.51-2.35.68-4.68,1.41-6.86,2.09-.23.07-.7.22-.93.67-.09.18-.18.48-.05.87.12.37.13.79.15,1.24.01.49.03,1,.18,1.53.11.37.12.78.14,1.21.01.36.03.73.1,1.11.04.21.08.43.12.64.15.77.29,1.51.29,2.26,0,.22,0,.48.07.75.16.63.21,1.28.27,1.97.05.66.11,1.34.26,2.02.09.38.11.78.15,1.2.03.46.07.94.18,1.42.16.68.22,1.38.28,2.12.04.51.09,1.03.17,1.56.04.24.08.47.13.71.11.59.22,1.14.17,1.68-.04.46.18.85.57,1,.1.04.2.06.31.06.3,0,.59-.15.79-.43.07-.09.15-.17.23-.24.19-.18.43-.42.6-.79.22.13.45.26.67.39.17.1.35.2.54.31.42.25.8.25,1.13,0,.25-.18.49-.53.28-1.16-.13-.38-.21-.83-.26-1.39-.1-1.08-.27-2.16-.44-3.2-.14-.88-.29-1.78-.39-2.67-.1-.9-.23-1.8-.36-2.68-.11-.78-.23-1.55-.32-2.33-.02-.17-.04-.35-.06-.53-.06-.56-.11-1.13-.25-1.71-.14-.57-.2-1.16-.27-1.78-.05-.52-.11-1.06-.22-1.6,0-.1.01-.24-.03-.4,0-.03-.01-.06-.02-.08.02,0,.04-.01.08-.02.46-.11.94-.28,1.45-.5.41-.18.86-.29,1.34-.4.41-.09.83-.19,1.26-.35.53-.19,1.07-.39,1.62-.54l.71-.19c1.26-.34,2.57-.7,3.84-1.13.7-.24,1.41-.45,2.12-.66.85-.25,1.73-.51,2.59-.82,1.09-.39,2.24-.72,3.35-1.03.63-.18,1.26-.36,1.89-.55.77-.23,1.53-.48,2.3-.72.8-.25,1.59-.51,2.39-.75.72-.22,1.45-.43,2.18-.64.98-.28,1.96-.57,2.94-.88l.6-.19c1.1-.35,2.24-.71,3.43-1.04.08.33.18.66.27.99.22.8.44,1.55.54,2.33.08.63.44.86.64.95.2.08.62.17,1.13-.22.21-.16.39-.36.53-.58.28-.46.63-.87.99-1.31.17-.2.34-.41.5-.62.65-.83,1.32-1.66,1.98-2.49l1.09-1.36c.17-.21.34-.43.5-.64.28-.37.57-.74.87-1.09.15-.17.53-.62.38-1.16Z"/>
    <path class="cls-1" d="M341.15,59.66c5.36-.06,10.73.12,16.08-.02,17.14-.44,34.27.22,51.4.33,17.15.11,34.31.23,51.45.7,7.69.21,15.39.4,23.07.75,4.52.2,9.06.13,13.54.52,4.71.41,9.42.09,14.08.5,3.28.28,6.6.23,9.84.63,3,.37,6.01.07,8.95.42,3.4.41,6.82.21,10.2.47,1.89.14,3.77.55,5.25,1.62,1.23.89,2.04,1.89,1.95,3.19-.06,1,.23,2.02-.47,2.97-1.21,1.64-3.05,2.65-5.55,2.8-3.68.22-7.32-.38-10.99-.55-4.07-.19-8.14-.6-12.2-.96-2.5-.22-4.99-.2-7.47-.41-5.39-.46-10.8-.7-16.19-1.08-2.91-.2-5.83-.16-8.72-.39-6.91-.55-13.84-.77-20.75-1.16-3.67-.2-7.36-.07-11-.42-6.41-.62-12.87-.4-19.29-.96-3.12-.27-6.34.05-9.46-.23-7.01-.63-14.06-.09-21.04-.61-6.87-.51-13.73-.25-20.59-.53-7.55-.3-15.11-.4-22.67-.63-10.68-.33-21.37-.38-32.05-.45-4.44-.03-8.89-.13-13.34-.05-10.49.2-20.99-.17-31.46.05-6.68.14-13.37-.27-20.02.09-4.53.24-9.02-.03-13.52.12-5.61.19-11.24.17-16.84.37-4.29.15-8.59-.18-12.83.15-4.61.37-9.26-.01-13.83.57-.11.01-.23.02-.34.01-5.16-.17-10.31.17-15.45.28-4.03.09-8.11-.04-12.12.5-.19.03-.38.06-.56.05-3.87-.24-7.72.21-11.57.29-3.88.08-7.8.08-11.66.53-.49.06-.98.09-1.47.08-3.41-.1-6.8.25-10.21.31-4.6.09-9.2.49-13.81.68-2.15.09-4.31.07-6.45.22-4.14.29-8.29.5-12.44.71-3.65.19-7.31.38-10.93.71-1.82.17-3.64.08-5.44.25-4.27.4-8.59.4-12.84.92-.11.01-.23.04-.34.03-2.81-.18-5.57.47-8.38.29-.49-.03-.99-.03-1.45.13-.63.23-1.08,0-1.24-.43-.16-.46.08-.85.81-.91,2.93-.25,5.87-.43,8.79-.76,3.73-.42,7.51-.42,11.24-.92,1.75-.23,3.58-.37,5.39-.4,2.39-.04,4.73-.34,7.08-.63.19-.02.38-.09.56-.08,2.17.15,4.3-.25,6.43-.39,2.16-.14,4.4-.07,6.5-.59.14-.04.3-.07.45-.05,2.48.18,4.89-.3,7.35-.36,1.98-.05,3.99-.2,5.96-.44,1.17-.15,2.36-.11,3.51-.24,2.61-.3,5.26-.17,7.88-.49,1.82-.22,3.7-.35,5.54-.4,2.39-.06,4.74-.33,7.12-.4,2.82-.09,5.66-.23,8.46-.57.22-.03.45-.1.67-.08,2.7.17,5.36-.21,8.03-.35,3.01-.15,6.06-.07,9.03-.56.18-.03.38-.08.56-.07,2.78.2,5.5-.25,8.27-.3,3.7-.07,7.41-.23,11.09-.59.15-.01.3-.06.45-.05,2.85.19,5.65-.27,8.49-.32,3.78-.07,7.55-.36,11.32-.57.23-.01.45-.08.68-.06,3.76.22,7.48-.29,11.23-.29,4.04,0,8.08-.35,12.12-.55.26-.01.53-.07.79-.06,4.82.16,9.61-.25,14.43-.28,3.46-.02,6.97-.09,10.42-.37,2.05-.17,4.07-.16,6.11-.17,5.34-.03,10.69-.16,16.02-.26,3.93-.07,7.9-.02,11.79-.33,4.68-.36,9.35.17,13.97-.16,5.42-.39,10.85.07,16.25-.28,2.13-.14,4.25,0,6.38-.06Z"/>
    <path class="cls-2" d="M233.17,22.8c0-6.89,0-13.78,0-20.67,0-1.4.15-1.55,1.55-1.55.59,0,1.18.02,1.77,0,.69-.03.95.27.94.96-.02,1.69,0,3.37,0,5.06,0,4.75,0,9.51,0,14.26,0,.22-.01.45,0,.67.01.21-.08.5.19.59.22.07.33-.18.45-.33.7-.87,1.38-1.77,2.09-2.64,1.06-1.3,2.16-2.57,3.22-3.88,1.08-1.32,2.21-2.59,3.22-3.96.63-.85,1.36-1.63,2.04-2.45,1.12-1.35,2.24-2.71,3.37-4.06,1.02-1.23,2.04-2.46,3.08-3.67.3-.35.71-.54,1.2-.54,1.21,0,2.42-.02,3.63,0,.75.02.86.25.45.87-.43.66-.97,1.24-1.47,1.83-2.12,2.49-4.4,4.85-6.45,7.4-1.16,1.44-2.49,2.72-3.62,4.19-1.31,1.71-2.83,3.25-4.28,4.84-.43.47-.52.85-.09,1.39,1.84,2.33,3.59,4.73,5.49,7.01,1.86,2.24,3.57,4.6,5.38,6.87,1.72,2.16,3.55,4.26,5.03,6.6.13.21.29.38.54.3.23-.07.21-.31.21-.5,0-.62,0-1.24.01-1.86,0-.38.1-.52.57-.43,1.1.22,2.11.72,3.19,1,2,.52,3.97,1.17,6.08,1.12,1.86-.04,3.73.14,5.57-.06,3.34-.37,6.37-1.6,7.78-4.9.89-2.09,1.13-4.39.6-6.74-.38-1.69-1.21-2.91-2.61-3.8-.83-.53-1.81-.76-2.74-1-1.89-.48-3.84-.66-5.77-.93-2.17-.3-4.36-.74-6.36-1.58-2.17-.91-4.29-2.1-5.31-4.45-.47-1.09-.91-2.23-.96-3.45-.05-1.15-.07-2.31-.01-3.46.17-3.32,1.56-6.07,4.25-7.98,1.34-.95,2.88-1.61,4.54-2.09,3.04-.88,6.12-.8,9.19-.68,1.72.07,3.43.47,5.1.97.72.21,1.44.4,2.15.64.75.25,1.23.59,1.13,1.49-.07.67,0,1.35-.02,2.02-.03.81-.51,1.08-1.25.79-2-.77-4.02-1.37-6.18-1.66-2.06-.28-4.1-.32-6.12-.2-2.81.17-5.52.81-7.28,3.34-.71,1.02-.94,2.25-1.08,3.45-.11.92-.02,1.85-.02,2.78-.02,2.11,1.38,3.81,3.09,4.51,1.74.71,3.54,1.09,5.44,1.27,1.07.1,2.2.19,3.28.6.84.32,1.8.3,2.71.48,3.04.59,5.71,1.86,7.63,4.32,1.22,1.56,1.89,3.43,1.98,5.44.05,1.01.09,2.03,0,3.04-.39,4.4-2.35,7.81-6.38,9.88-2.61,1.34-5.38,1.86-8.32,1.97-1.46.05-2.89-.02-4.32-.11-2.13-.15-4.27-.34-6.3-1.09-.41-.15-.89-.1-1.3-.33-.22-.12-.53-.2-.73-.03-.3.25.08.43.18.62.19.38-.06.47-.33.48-1.55.01-3.09,0-4.64,0-.31,0-.51-.22-.68-.45-1.22-1.63-2.42-3.27-3.66-4.89-1.37-1.79-2.84-3.51-4.15-5.34-.91-1.27-1.86-2.51-2.79-3.77-1.58-2.13-3.21-4.22-4.8-6.34-.24-.31-.33-.19-.56.03-1.14,1.16-2.09,2.48-3.18,3.68-.33.37-.29.77-.29,1.19,0,4.87,0,9.73,0,14.6,0,1.3,0,1.3-1.32,1.31-.68,0-1.35-.02-2.03,0-.64.02-.93-.27-.92-.91.01-.87,0-1.74,0-2.62,0-6.16,0-12.32,0-18.48Z"/>
    <path class="cls-2" d="M161.91,23.45c0-1.97-.06-3.32.01-4.67.09-1.74.2-3.48.72-5.18.22-.7.2-1.48.41-2.22.63-2.24,1.48-4.34,2.98-6.19,1.36-1.67,2.95-2.97,4.92-3.79,3.21-1.34,6.6-1.65,9.99-1.25,2.04.24,4.12.65,5.99,1.76,2.45,1.46,4.32,3.36,5.52,5.97,1.06,2.31,1.62,4.7,1.97,7.22.64,4.57.49,9.13.21,13.69-.22,3.7-1.09,7.31-3.09,10.49-1.05,1.66-2.53,3-4.3,4.03-1.46.86-3.1,1.1-4.62,1.7-.25.1-.55.08-.83.11-1.14.11-2.31.18-3.43.19-1.23.01-2.52-.04-3.76-.25-2.12-.35-4.07-1.16-5.9-2.28-1.83-1.13-3.05-2.79-4.08-4.61-.83-1.46-1.42-3.06-1.74-4.7-.25-1.31-.49-2.64-.73-3.95-.41-2.25-.14-4.48-.27-6.09ZM166.65,22.62c-.03,3.5-.06,6.98.8,10.43.72,2.88,2.21,5.16,4.6,6.77,1.32.88,2.89,1.41,4.55,1.41,1.43,0,2.87-.01,4.3-.03.25,0,.52,0,.75-.09,1.56-.6,3.21-1.02,4.43-2.27,1.14-1.17,2.13-2.45,2.66-4.02.43-1.27.75-2.55.95-3.89.22-1.46.5-2.92.56-4.39.11-2.47.03-4.95.03-7.42,0-.56.06-1.15-.08-1.68-.46-1.8-.46-3.68-1.03-5.48-.5-1.57-1.07-3.05-2.12-4.31-1.49-1.78-3.37-2.8-5.68-3.28-2.38-.49-4.71-.34-6.98.21-2.82.68-4.74,2.62-6.02,5.21-.5,1.01-.77,2.06-.96,3.17-.3,1.75-.85,3.45-.77,5.27.07,1.46.01,2.92.01,4.38Z"/>
    <path class="cls-2" d="M122.98.06c1.79-.13,3.89.29,6,.75,1.37.3,2.72.57,3.99,1.2.44.22.57.47.57.9,0,.76.01,1.52,0,2.28-.02.9-.27,1.08-1.16.82-.78-.23-1.49-.62-2.29-.8-1.28-.3-2.54-.59-3.83-.82-2.25-.41-4.49-.31-6.71-.21-2.26.1-4.42.83-6.12,2.4-.87.81-1.41,1.91-1.63,3.12-.24,1.32-.48,2.63-.27,3.99.34,2.22,1.1,3.64,3.29,4.56,1.7.72,3.49,1.02,5.33,1.27,2.58.35,5.19.69,7.68,1.5,2.16.7,4.18,1.68,5.64,3.56,1.09,1.4,1.72,2.94,2.04,4.68.18.97.1,1.94.35,2.9.16.62.05,1.25-.22,1.89-.34.79-.25,1.69-.53,2.53-.59,1.76-1.54,3.26-2.83,4.58-1.32,1.35-2.92,2.23-4.65,2.92-1.3.52-2.69.74-4.05,1-1.23.23-2.51.2-3.76.29-1.19.09-2.44-.18-3.67-.25-2.29-.12-4.52-.6-6.7-1.33-.61-.2-1.22-.4-1.83-.58-.43-.13-.67-.42-.68-.86-.01-.79-.01-1.57.01-2.36.02-.65.41-.91,1.02-.79.52.1,1.04.22,1.53.43,1.42.59,2.95.75,4.42,1.16,2.75.76,5.52.36,8.28.39,1.31.01,2.56-.42,3.79-.91,1.19-.47,2.24-1.08,3.12-2.03,1.16-1.27,1.76-2.78,1.91-4.44.13-1.31.11-2.65,0-3.96-.13-1.51-.91-2.75-2.13-3.65-1.16-.85-2.53-1.19-3.92-1.56-1.87-.5-3.78-.67-5.66-1-1.54-.26-3.09-.52-4.57-.99-3.45-1.09-6.28-2.99-7.25-6.74-.34-1.31-.64-2.73-.48-4.05.32-2.64.84-5.2,2.76-7.37,2.3-2.59,5.18-3.6,8.43-4.14,1.49-.24,2.96-.28,4.84-.29Z"/>
    <path class="cls-2" d="M198.22,22.48c0-.82.01-1.63,0-2.45-.03-1.89.55-3.69.74-5.54.22-2.04,1.09-3.85,1.73-5.74.26-.75.78-1.48,1.26-2.15,1.18-1.68,2.64-3.08,4.4-4.2,2.59-1.64,5.44-2.2,8.43-2.34,2.31-.11,4.6.08,6.87.5,1.51.28,3.01.61,4.44,1.18.68.27,1.13.67,1.03,1.51-.08.64,0,1.29-.02,1.94-.01.9-.55,1.17-1.39.82-1.8-.76-3.65-1.27-5.6-1.6-1.77-.3-3.52-.29-5.27-.27-2.7.03-5.16.89-7.16,2.69-1.61,1.46-2.64,3.35-3.39,5.42-.88,2.42-1.09,4.94-1.47,7.45-.33,2.22-.11,4.42.05,6.61.23,3.11.77,6.21,2.26,8.96,1.45,2.68,3.59,4.7,6.72,5.56,2.63.72,5.26.48,7.85.27,2.22-.18,4.45-.8,6.53-1.74.61-.28.85-.03.85.56,0,.84.04,1.69,0,2.53-.06.98-.93,1.25-1.63,1.47-1.52.47-3.11.65-4.66.97-1.76.37-3.53.33-5.26.41-1.75.08-3.61-.09-5.38-.6-1.82-.53-3.51-1.34-5-2.42-1.56-1.13-2.83-2.63-3.7-4.39-.62-1.25-1.25-2.5-1.71-3.83-.43-1.24-.81-2.52-.96-3.79-.31-2.58-.86-5.16-.55-7.79Z"/>
    <path class="cls-2" d="M147.7,24.76c0-6.24,0-12.48,0-18.72,0-1.19-.04-1.23-1.23-1.23-3.32,0-6.64,0-9.96,0-1.02,0-1.09-.08-1.1-1.12,0-.59.05-1.19-.01-1.77-.09-.91.44-1.19,1.18-1.31.25-.04.51-.02.76-.02,8.38,0,16.76,0,25.14,0,1.63,0,1.77.15,1.79,1.78.03,2.6.01,2.45-2.44,2.44-2.84,0-5.68,0-8.52,0-1.16,0-1.18.02-1.18,1.18,0,12.31,0,24.63,0,36.94q0,1.88-1.91,1.88c-.59,0-1.18,0-1.77,0-.49,0-.72-.24-.72-.72,0-.28,0-.56,0-.84,0-6.16,0-12.31,0-18.47Z"/>
    <path class="cls-2" d="M315.34,17.93c.23-.38.15-.69.15-.99,0-4.13,0-8.26,0-12.38,0-.99.07-1.05,1.05-1.06.05,0,.1,0,.15,0,1.68,0,1.77.08,1.77,1.73,0,5.96,0,11.92,0,17.88,0,1.11-.03,1.05-1.12,1.16-1.24.12-1.85-.43-2.36-1.5-.53-1.1-1.27-2.12-2-3.11-.94-1.29-1.65-2.72-2.55-4.04-1.17-1.72-2.24-3.5-3.35-5.25-.1-.16-.23-.28-.5-.26.03.53.1,1.06.1,1.59,0,3.66,0,7.33,0,10.99,0,.15,0,.31,0,.46-.07.98-.19,1.1-1.16,1.1-1.82.01-1.91-.08-1.91-1.92,0-5.75,0-11.51,0-17.26,0-.59-.08-1.25.62-1.52.81-.32,1.77-.01,2.23.69,1.04,1.59,2.11,3.16,3.1,4.79,1.29,2.13,2.72,4.18,4.08,6.26.56.85.95,1.82,1.69,2.65Z"/>
    <path class="cls-2" d="M481.61,29.49c0-6.89,0-13.78,0-20.67,0-1.17.29-1.49,1.49-1.49,4.42-.02,8.84-.14,13.25.05,1.94.08,3.91.37,5.84.96,2.09.64,3.86,1.6,5.25,3.25,1,1.19,1.54,2.61,1.97,4.12.71,2.45.58,4.91.24,7.34-.4,2.84-1.58,5.35-4.12,7-.95.62-2.01.98-3.05,1.36-.54.19-.54.39-.3.86,1.92,3.61,3.77,7.25,5.73,10.83,1.39,2.55,2.71,5.14,4,7.74.28.56.14.72-.41.72-1.38,0-2.76,0-4.14,0-.45,0-.71-.21-.9-.62-1.3-2.69-2.61-5.39-3.94-8.07-.89-1.8-1.85-3.57-2.74-5.38-.69-1.4-1.35-2.82-1.98-4.25-.29-.66-.65-.98-1.45-.96-3.09.06-6.19.06-9.28.02-.82,0-1.06.28-1.06,1.08.03,5.65.01,11.3.01,16.96,0,1.19-.03,1.22-1.24,1.22-.82,0-1.63,0-2.45,0-.49,0-.73-.21-.72-.71,0-.28,0-.56,0-.84,0-6.83,0-13.67,0-20.5ZM486.03,19.87c0,2.45.02,4.89-.01,7.34-.01.76.24,1.04,1.02,1.03,3.07-.04,6.13,0,9.2-.03,1.22-.01,2.43.02,3.67-.31,3.15-.83,4.88-2.85,5.03-6.05.07-1.4.11-2.82-.03-4.21-.14-1.48-.59-2.88-1.71-3.99-1.33-1.32-3.01-1.86-4.77-1.92-3.79-.12-7.59-.03-11.39-.06-.78,0-1.02.28-1.01,1.04.03,2.39.01,4.78.01,7.17Z"/>
    <path class="cls-2" d="M476.57,23.85c0,5,.08,10.01-.04,15.01-.05,2.02-.54,3.99-1.48,5.87-.93,1.85-2.08,3.42-3.86,4.53-1.86,1.16-3.8,2.13-5.99,2.5-1.51.25-3.04.68-4.55.53-1.39-.14-2.8-.17-4.19-.61-.96-.31-2-.46-2.97-.83-.86-.33-1.66-.73-2.43-1.24-.8-.53-1.53-1.12-2.19-1.8-1.1-1.13-1.9-2.4-2.47-3.91-1.09-2.91-1.21-5.89-1.21-8.92,0-8.66,0-17.32,0-25.98,0-1.56.12-1.68,1.68-1.68.59,0,1.18.03,1.77,0,.82-.05,1.13.34,1.09,1.11-.02.28,0,.56,0,.84,0,9.67,0,19.34.02,29.02,0,2.17.55,4.23,1.86,5.99,1.34,1.8,3.11,2.93,5.38,3.41,2.44.51,4.87.24,7.3.22,1.02,0,2.01-.49,2.88-1.05.47-.31,1.03-.41,1.47-.8,1.73-1.52,2.54-3.48,3.12-5.68.74-2.84.37-5.69.4-8.53.08-7.73.03-15.46.03-23.2,0-1.32.02-1.33,1.3-1.34.7,0,1.41.02,2.11,0,.73-.03,1.01.32,1.01,1.02-.01,1.74,0,3.49,0,5.23,0,3.43,0,6.86,0,10.29h-.01Z"/>
    <path class="cls-2" d="M412.93,24.3c0,5.06.04,10.12-.02,15.18-.02,2.03-.59,3.99-1.59,5.76-2,3.54-5.16,5.38-9.02,6.37-1.4.36-2.82.46-4.22.63-1.62.19-3.34-.07-4.95-.55-.62-.18-1.25-.22-1.87-.42-2.17-.69-4.14-1.69-5.75-3.3-1.21-1.21-2.08-2.66-2.72-4.28-1.09-2.73-1.11-5.57-1.11-8.42,0-8.72,0-17.43,0-26.15,0-2-.11-1.79,1.84-1.8.56,0,1.13,0,1.69,0,.6,0,.87.31.89.88,0,.31,0,.62,0,.93,0,9.5-.05,19.01.04,28.51.02,2.34.53,4.69,1.93,6.67.91,1.28,2.17,2.22,3.65,2.85,2.94,1.27,6.07,1.08,9.04.66,3.51-.5,6.43-2.48,7.45-7.09.27-1.23.31-2.44.31-3.67,0-9.48,0-18.95,0-28.43q0-1.31,1.31-1.32c.59,0,1.18,0,1.77,0,1.2,0,1.32.11,1.32,1.29,0,1.91,0,3.82,0,5.74,0,3.32,0,6.64,0,9.95h-.01Z"/>
    <path class="cls-2" d="M513.67,29.49c0-6.94,0-13.89,0-20.83,0-1.31.03-1.34,1.31-1.34,7.57,0,15.13,0,22.7,0,1.41,0,1.67.27,1.69,1.67.05,2.88-.11,2.7-2.67,2.7-5.79-.01-11.59,0-17.38,0-1.2,0-1.22.02-1.22,1.23,0,4.33.02,8.66-.03,12.99,0,.8.41.77.95.77,5.65,0,11.31,0,16.96,0,1.36,0,1.36,0,1.37,1.36,0,.48,0,.96,0,1.43,0,1.08-.08,1.16-1.14,1.16-3.83,0-7.65,0-11.48,0-1.91,0-3.83.02-5.74,0-.65,0-.9.22-.9.88.02,5.06.02,10.12,0,15.18,0,.8.36.92,1.03.92,6.27-.02,12.55,0,18.82,0q1.43,0,1.43,1.47c0,.51-.03,1.01,0,1.52.05.75-.3.98-1,.98-7.9-.01-15.81-.02-23.71,0-.89,0-1-.43-.99-1.15.01-6.97,0-13.94,0-20.92Z"/>
    <path class="cls-2" d="M353.13,29.49c0-6.89,0-13.78,0-20.67,0-1.17.29-1.49,1.49-1.49,7.51-.01,15.03,0,22.54-.01.73,0,1.01.33,1,1.03-.02.76-.03,1.52,0,2.28.04.82-.31,1.08-1.1,1.07-3.18-.03-6.36-.01-9.54-.01-2.95,0-5.91,0-8.86,0-1.07,0-1.11.04-1.11,1.08,0,4.3.01,8.61-.02,12.91,0,.77.25,1.02,1.02,1.02,5.43-.03,10.86-.01,16.29-.01,1.26,0,1.28.02,1.29,1.27,0,.62-.02,1.24,0,1.86.03.63-.26.85-.86.84-.84-.02-1.69,0-2.53,0-4.67,0-9.34,0-14.01,0-1.18,0-1.18,0-1.18,1.16,0,6.05,0,12.09,0,18.14,0,1.47-.14,1.61-1.58,1.61-.56,0-1.13,0-1.69,0-1.11,0-1.15-.04-1.15-1.13,0-3.52,0-7.03,0-10.55,0-3.46,0-6.92,0-10.38Z"/>
    <path class="cls-2" d="M431.88,31.6c0,6.24,0,12.48,0,18.73,0,1.2-.02,1.21-1.24,1.21-.76,0-1.52,0-2.28,0-.6,0-.88-.3-.89-.88,0-.31-.01-.62-.01-.93,0-12.23,0-24.46,0-36.69q0-1.36-1.34-1.36c-3.09,0-6.19,0-9.28,0-1.4,0-1.52-.13-1.53-1.56,0-.37,0-.73,0-1.1,0-1.21.27-1.53,1.48-1.68.25-.03.51-.02.76-.02,8.3,0,16.6,0,24.9,0,1.49,0,1.71.22,1.71,1.71,0,.45,0,.9,0,1.35-.02,1.01-.3,1.3-1.33,1.3-3.18,0-6.36,0-9.54,0q-1.4,0-1.4,1.36c0,6.19,0,12.37,0,18.56Z"/>
    <path class="cls-2" d="M332.04,40.05c0,3.09,0,6.19,0,9.28,0,1.05-.05,1.1-1.09,1.11q-2.11.02-2.11-2.07c0-2.02-.02-4.05.01-6.07.01-.73-.25-.99-.98-.98-2.02.03-4.05.03-6.08,0-.71-.01-.93.28-.92.95.02,2.28.01,4.55,0,6.83,0,1.14-.2,1.34-1.32,1.34-2.04,0-1.88.21-1.88-1.84,0-5.85,0-11.7,0-17.54,0-1.24,0-1.25,1.19-1.24,2.21,0,2.01-.19,2.01,1.98,0,1.8.02,3.6,0,5.4-.01.69.25.95.94.94,2.03-.03,4.05-.03,6.08,0,.75.01.98-.29.97-1-.03-2.08.01-4.16-.02-6.24-.01-.79.25-1.11,1.07-1.09,2.48.07,2.13-.32,2.14,2.16.02,2.7,0,5.4,0,8.1Z"/>
    <path class="cls-2" d="M335.05,40.14c0-3.09.02-6.18-.01-9.27,0-.79.23-1.08,1.06-1.07,3.51.04,7.03.03,10.54,0,.8,0,1.09.26,1.09,1.07-.01,1.85.02,1.85-1.87,1.85-2.22,0-4.44.02-6.66,0-.69,0-.97.23-.95.93.03,1.15.04,2.31,0,3.46-.03.76.24,1.05,1.02,1.04,1.97-.04,3.94-.02,5.91-.01,1.21,0,1.4.2,1.41,1.44,0,1.96.09,1.76-1.79,1.76-1.86,0-3.71.03-5.57,0-.74-.01-.99.27-.97.99.04,1.43.03,2.87,0,4.3-.01.69.26.94.95.93,2.42-.03,4.84-.01,7.25,0,1.15,0,1.26.13,1.26,1.35,0,1.35-.15,1.55-1.28,1.55-3.46,0-6.92-.02-10.38.02-.79,0-1.02-.29-1.02-1.04.03-3.09.01-6.18.01-9.27Z"/>
    <path class="cls-2" d="M310.63,41.59c0,2.58-.02,5.17.01,7.75,0,.77-.2,1.12-1.04,1.1-2.21-.05-2.05.17-2.05-2.06,0-4.83,0-9.66,0-14.5,0-1.16-.03-1.18-1.18-1.18-1.1,0-2.19-.01-3.29,0-.56,0-.82-.2-.81-.79.03-2.51-.25-2.1,2-2.11,3.57-.02,7.14,0,10.71,0,1.18,0,1.2.02,1.2,1.16,0,1.82.22,1.75-1.71,1.75-.96,0-1.91.04-2.87-.01-.73-.04-.99.22-.98.97.03,2.64.01,5.28.01,7.92Z"/>
    <path class="cls-2" d="M297.08,13.92c0-3.14,0-6.29,0-9.43,0-.95.05-.99,1.02-1,2.44-.01,2.09-.08,2.1,2.06.01,5.87,0,11.75,0,17.62,0,1.02-.04,1.06-1.03,1.06-.54,0-1.08,0-1.62,0-.39,0-.52-.17-.52-.58.02-3.25,0-6.49,0-9.74.01,0,.03,0,.04,0Z"/>
  </g>
</svg>